<svg id="Layer_1" data-name="Layer 1" xmlns="http://www.w3.org/2000/svg" viewBox="0 0 1675.69 741.72"><defs><style>.cls-1{opacity:0.6;}.cls-2{fill:#e6e7e8;}</style></defs><g class="cls-1"><path class="cls-2" d="M934.32,148.34V223.6H1147V148.34Zm211.47,74H935.57V149.59h210.22Z"/><path class="cls-2" d="M1147,222.35v1.25h104.48v-1.25Zm0,0v1.25h104.48v-1.25Zm0,0v1.25h104.48v-1.25Zm0,0v1.25h104.48v-1.25Zm0,0v1.25h104.48v-1.25Zm0,0v1.25h104.48v-1.25Zm0,0v1.25h104.48v-1.25Zm0,0v1.25h104.48v-1.25Zm0,0v1.25h104.48v-1.25Zm0,0v1.25h104.48v-1.25Zm0,0v1.25h104.48v-1.25Zm0,0v1.25h104.48v-1.25Zm0,0v1.25h104.48v-1.25Zm-1.25-74V223.6h212.72V148.34Zm211.47,74H1147V149.59h210.22Zm-210.22,0v1.25h104.48v-1.25Zm0,0v1.25h104.48v-1.25Zm0,0v1.25h104.48v-1.25Zm0,0v1.25h104.48v-1.25Zm0,0v1.25h104.48v-1.25Zm0,0v1.25h104.48v-1.25Zm0,0v1.25h104.48v-1.25Zm0,0v1.25h104.48v-1.25Zm0,0v1.25h104.48v-1.25Zm0,0v1.25h104.48v-1.25Zm0,0v1.25h104.48v-1.25Zm0,0v1.25h104.48v-1.25Z"/><path class="cls-2" d="M1358.51,222.35v1.25H1463v-1.25Zm-1.25-74V223.6H1570V148.34Zm211.47,74H1358.51V149.59h210.22Z"/><path class="cls-2" d="M1568.73,148.34v74h1.18V149.59h98.67v-1.25Zm0,0v74h1.18V149.59h98.67v-1.25Zm0,0v74h1.18V149.59h98.67v-1.25Zm0,0v74h1.18V149.59h98.67v-1.25Zm0,0v74h1.18V149.59h98.67v-1.25Zm0,0v74h1.18V149.59h98.67v-1.25Zm0,1.25v72.76h1.18V149.59Zm0-1.25v74h1.18V149.59h98.67v-1.25Zm0,0v74h1.18V149.59h98.67v-1.25Zm0,0v74h1.18V149.59h98.67v-1.25Zm0,0v74h1.18V149.59h98.67v-1.25Zm0,0v74h1.18V149.59h98.67v-1.25Zm0,0v74h1.18V149.59h98.67v-1.25Zm0,0V223.6h107V148.34Zm106.39,74H1569.91V149.59h105.21Zm-106.39-74v74h1.18V149.59h98.67v-1.25Zm0,0v74h1.18V149.59h98.67v-1.25Zm0,0v74h1.18V149.59h98.67v-1.25Zm0,0v74h1.18V149.59h98.67v-1.25Zm0,0v74h1.18V149.59h98.67v-1.25Zm0,0v74h1.18V149.59h98.67v-1.25Zm0,0v74h1.18V149.59h98.67v-1.25Zm0,0v74h1.18V149.59h98.67v-1.25Zm0,0v74h1.18V149.59h98.67v-1.25Zm0,0v74h1.18V149.59h98.67v-1.25Zm0,0v74h1.18V149.59h98.67v-1.25Zm0,0v74h1.18V149.59h98.67v-1.25Z"/><path class="cls-2" d="M1040.05,223.6v72.77H935.57v1.25h105.74v-74Zm0,0v72.77H935.57v1.25h105.74v-74Zm0,0v72.77H935.57v1.25h105.74v-74Zm0,0v72.77H935.57v1.25h105.74v-74Zm0,0v72.77H935.57v1.25h105.74v-74Zm0,0v72.77H935.57v1.25h105.74v-74Zm0,0v72.77H935.57v1.25h105.74v-74Zm0,0v72.77H935.57v1.25h105.74v-74Zm0,0v72.77H935.57v1.25h105.74v-74Zm0,0v72.77H935.57v1.25h105.74v-74Zm0,0v72.77H935.57v1.25h105.74v-74Zm0,0v72.77H935.57v1.25h105.74v-74Zm0,0v72.77H935.57v1.25h105.74v-74Zm-202.83-1.25v75.27h204.09V222.35Zm202.83,74H837.84V223.6h202.21Zm0-72.77v72.77H935.57v1.25h105.74v-74Zm0,0v72.77H935.57v1.25h105.74v-74Zm0,0v72.77H935.57v1.25h105.74v-74Zm0,0v72.77H935.57v1.25h105.74v-74Zm0,0v72.77H935.57v1.25h105.74v-74Zm0,0v72.77H935.57v1.25h105.74v-74Zm0,0v72.77H935.57v1.25h105.74v-74Zm0,0v72.77H935.57v1.25h105.74v-74Zm0,0v72.77H935.57v1.25h105.74v-74Zm0,0v72.77H935.57v1.25h105.74v-74Zm0,0v72.77H935.57v1.25h105.74v-74Zm0,0v72.77H935.57v1.25h105.74v-74Z"/><path class="cls-2" d="M1251.52,223.6v72.77H1147v1.25h105.74v-74ZM1147,296.37v1.25h104.48v-1.25Zm0,0v1.25h104.48v-1.25Zm0,0v1.25h104.48v-1.25Zm0,0v1.25h104.48v-1.25Zm0,0v1.25h104.48v-1.25Zm0,0v1.25h104.48v-1.25Zm0,0v1.25h104.48v-1.25Zm0,0v1.25h104.48v-1.25Zm0,0v1.25h104.48v-1.25Zm0,0v1.25h104.48v-1.25Zm0,0v1.25h104.48v-1.25Zm0,0v1.25h104.48v-1.25Zm-107-74v75.27h212.73V222.35Zm211.47,74H1041.31V223.6h210.21Zm-104.48,0v1.25h104.48v-1.25Zm0,0v1.25h104.48v-1.25Zm0,0v1.25h104.48v-1.25Zm0,0v1.25h104.48v-1.25Zm0,0v1.25h104.48v-1.25Zm0,0v1.25h104.48v-1.25Zm0,0v1.25h104.48v-1.25Zm0,0v1.25h104.48v-1.25Zm0,0v1.25h104.48v-1.25Zm0,0v1.25h104.48v-1.25Zm0,0v1.25h104.48v-1.25Zm0,0v1.25h104.48v-1.25Z"/><path class="cls-2" d="M1252.78,296.37v1.25h104.48v-1.25Zm0,0v1.25h104.48v-1.25Zm0,0v1.25h104.48v-1.25Zm0,0v1.25h104.48v-1.25Zm0,0v1.25h104.48v-1.25Zm0,0v1.25h104.48v-1.25Zm0,0v1.25h104.48v-1.25Zm0,0v1.25h104.48v-1.25Zm0,0v1.25h104.48v-1.25Zm0,0v1.25h104.48v-1.25Zm0,0v1.25h104.48v-1.25Zm0,0v1.25h104.48v-1.25Zm-1.26-74v75.27h212.72V222.35Zm211.47,74H1252.78V223.6H1463Zm-210.21,0v1.25h104.48v-1.25Zm0,0v1.25h104.48v-1.25Zm0,0v1.25h104.48v-1.25Zm0,0v1.25h104.48v-1.25Zm0,0v1.25h104.48v-1.25Zm0,0v1.25h104.48v-1.25Zm0,0v1.25h104.48v-1.25Zm0,0v1.25h104.48v-1.25Zm0,0v1.25h104.48v-1.25Zm0,0v1.25h104.48v-1.25Zm0,0v1.25h104.48v-1.25Zm0,0v1.25h104.48v-1.25Z"/><path class="cls-2" d="M1464.24,296.37V223.6H1463v74h105.74v-1.25Zm0,0V223.6H1463v74h105.74v-1.25Zm0,0V223.6H1463v74h105.74v-1.25Zm0,0V223.6H1463v74h105.74v-1.25Zm0,0V223.6H1463v74h105.74v-1.25Zm0,0V223.6H1463v74h105.74v-1.25Zm0,0V223.6H1463v74h105.74v-1.25Zm0,0V223.6H1463v74h105.74v-1.25Zm0,0V223.6H1463v74h105.74v-1.25Zm0,0V223.6H1463v74h105.74v-1.25Zm0,0V223.6H1463v74h105.74v-1.25Zm0,0V223.6H1463v74h105.74v-1.25Zm-1.25-74v75.27h212.72V222.35Zm211.47,74H1464.24V223.6h210.22Zm-210.22,0V223.6H1463v74h105.74v-1.25Zm0,0V223.6H1463v74h105.74v-1.25Zm0,0V223.6H1463v74h105.74v-1.25Zm0,0V223.6H1463v74h105.74v-1.25Zm0,0V223.6H1463v74h105.74v-1.25Zm0,0V223.6H1463v74h105.74v-1.25Zm0,0V223.6H1463v74h105.74v-1.25Zm0,0V223.6H1463v74h105.74v-1.25Zm0,0V223.6H1463v74h105.74v-1.25Zm0,0V223.6H1463v74h105.74v-1.25Zm0,0V223.6H1463v74h105.74v-1.25ZM1463,223.6v72.77h1.25V223.6Z"/><path class="cls-2" d="M1041.31,296.37v1.25h104.48v72.76H1147v-74Zm0,0v1.25h104.48v72.76H1147v-74Zm0,0v1.25h104.48v72.76H1147v-74Zm0,0v1.25h104.48v72.76H1147v-74Zm0,0v1.25h104.48v72.76H1147v-74Zm0,0v1.25h104.48v72.76H1147v-74Zm0,0v1.25h104.48v72.76H1147v-74Zm0,0v1.25h104.48v72.76H1147v-74Zm0,0v1.25h104.48v72.76H1147v-74Zm0,0v1.25h104.48v72.76H1147v-74Zm0,0v1.25h104.48v72.76H1147v-74Zm0,0v1.25h104.48v72.76H1147v-74Zm-107,0v75.26H1147V296.37Zm211.47,74H935.57V297.62h210.22Zm-104.48-74v1.25h104.48v72.76H1147v-74Zm0,0v1.25h104.48v72.76H1147v-74Zm0,0v1.25h104.48v72.76H1147v-74Zm0,0v1.25h104.48v72.76H1147v-74Zm0,0v1.25h104.48v72.76H1147v-74Zm0,0v1.25h104.48v72.76H1147v-74Zm0,0v1.25h104.48v72.76H1147v-74Zm0,0v1.25h104.48v72.76H1147v-74Zm0,0v1.25h104.48v72.76H1147v-74Zm0,0v1.25h104.48v72.76H1147v-74Zm0,0v1.25h104.48v72.76H1147v-74Zm104.48,1.25v72.76H1147V297.62Z"/><path class="cls-2" d="M1145.79,296.37v75.26h212.72V296.37Zm211.47,74H1147V297.62h210.22Z"/><path class="cls-2" d="M1357.26,296.37v74h1.25V297.62H1463v-1.25Zm1.25,0v1.25H1463v-1.25Zm0,0v1.25H1463v-1.25Zm0,0v1.25H1463v-1.25Zm0,0v1.25H1463v-1.25Zm0,0v1.25H1463v-1.25Zm0,0v1.25H1463v-1.25Zm0,0v1.25H1463v-1.25Zm0,0v1.25H1463v-1.25Zm0,0v1.25H1463v-1.25Zm0,0v1.25H1463v-1.25Zm0,0v1.25H1463v-1.25Zm0,0v1.25H1463v-1.25Zm-1.25,0v75.26H1570V296.37Zm211.47,74H1358.51V297.62h210.22Zm-210.22-74v1.25H1463v-1.25Zm0,0v1.25H1463v-1.25Zm0,0v1.25H1463v-1.25Zm0,0v1.25H1463v-1.25Zm0,0v1.25H1463v-1.25Zm0,0v1.25H1463v-1.25Zm0,0v1.25H1463v-1.25Zm0,0v1.25H1463v-1.25Zm0,0v1.25H1463v-1.25Zm0,0v1.25H1463v-1.25Zm0,0v1.25H1463v-1.25Zm0,0v1.25H1463v-1.25Z"/><path class="cls-2" d="M1568.73,296.37v74h1.18V297.62h98.67v-1.25Zm0,0v74h1.18V297.62h98.67v-1.25Zm0,0v74h1.18V297.62h98.67v-1.25Zm0,0v74h1.18V297.62h98.67v-1.25Zm0,0v74h1.18V297.62h98.67v-1.25Zm0,1.25v72.76h1.18V297.62Zm0-1.25v74h1.18V297.62h98.67v-1.25Zm0,0v74h1.18V297.62h98.67v-1.25Zm0,0v74h1.18V297.62h98.67v-1.25Zm0,0v74h1.18V297.62h98.67v-1.25Zm0,0v74h1.18V297.62h98.67v-1.25Zm0,0v74h1.18V297.62h98.67v-1.25Zm0,0v74h1.18V297.62h98.67v-1.25Zm0,0v75.26h107V296.37Zm106.39,74H1569.91V297.62h105.21Zm-106.39-74v74h1.18V297.62h98.67v-1.25Zm0,0v74h1.18V297.62h98.67v-1.25Zm0,0v74h1.18V297.62h98.67v-1.25Zm0,0v74h1.18V297.62h98.67v-1.25Zm0,0v74h1.18V297.62h98.67v-1.25Zm0,0v74h1.18V297.62h98.67v-1.25Zm0,0v74h1.18V297.62h98.67v-1.25Zm0,0v74h1.18V297.62h98.67v-1.25Zm0,0v74h1.18V297.62h98.67v-1.25Zm0,0v74h1.18V297.62h98.67v-1.25Zm0,0v74h1.18V297.62h98.67v-1.25Zm0,0v74h1.18V297.62h98.67v-1.25Z"/><path class="cls-2" d="M1040.05,371.63V444.4H935.57v1.25h105.74v-74Zm0,0V444.4H935.57v1.25h105.74v-74Zm0,0V444.4H935.57v1.25h105.74v-74Zm0,0V444.4H935.57v1.25h105.74v-74Zm0,0V444.4H935.57v1.25h105.74v-74Zm0,0V444.4H935.57v1.25h105.74v-74Zm0,0V444.4H935.57v1.25h105.74v-74Zm0,0V444.4H935.57v1.25h105.74v-74Zm0,0V444.4H935.57v1.25h105.74v-74Zm0,0V444.4H935.57v1.25h105.74v-74Zm0,0V444.4H935.57v1.25h105.74v-74Zm0,0V444.4H935.57v1.25h105.74v-74Zm0,0V444.4H935.57v1.25h105.74v-74Zm-202.83-1.25v75.27h204.09V370.38Zm202.83,74H837.84V371.63h202.21Zm0-72.77V444.4H935.57v1.25h105.74v-74Zm0,0V444.4H935.57v1.25h105.74v-74Zm0,0V444.4H935.57v1.25h105.74v-74Zm0,0V444.4H935.57v1.25h105.74v-74Zm0,0V444.4H935.57v1.25h105.74v-74Zm0,0V444.4H935.57v1.25h105.74v-74Zm0,0V444.4H935.57v1.25h105.74v-74Zm0,0V444.4H935.57v1.25h105.74v-74Zm0,0V444.4H935.57v1.25h105.74v-74Zm0,0V444.4H935.57v1.25h105.74v-74Zm0,0V444.4H935.57v1.25h105.74v-74Zm0,0V444.4H935.57v1.25h105.74v-74Z"/><path class="cls-2" d="M1251.52,371.63V444.4H1147v1.25h105.74v-74ZM1147,444.4v1.25h104.48V444.4Zm0,0v1.25h104.48V444.4Zm0,0v1.25h104.48V444.4Zm0,0v1.25h104.48V444.4Zm0,0v1.25h104.48V444.4Zm0,0v1.25h104.48V444.4Zm0,0v1.25h104.48V444.4Zm0,0v1.25h104.48V444.4Zm0,0v1.25h104.48V444.4Zm0,0v1.25h104.48V444.4Zm0,0v1.25h104.48V444.4Zm0,0v1.25h104.48V444.4Zm-107-74v75.27h212.73V370.38Zm211.47,74H1041.31V371.63h210.21Zm-104.48,0v1.25h104.48V444.4Zm0,0v1.25h104.48V444.4Zm0,0v1.25h104.48V444.4Zm0,0v1.25h104.48V444.4Zm0,0v1.25h104.48V444.4Zm0,0v1.25h104.48V444.4Zm0,0v1.25h104.48V444.4Zm0,0v1.25h104.48V444.4Zm0,0v1.25h104.48V444.4Zm0,0v1.25h104.48V444.4Zm0,0v1.25h104.48V444.4Zm0,0v1.25h104.48V444.4Z"/><path class="cls-2" d="M1252.78,444.4v1.25h104.48V444.4Zm0,0v1.25h104.48V444.4Zm0,0v1.25h104.48V444.4Zm0,0v1.25h104.48V444.4Zm0,0v1.25h104.48V444.4Zm0,0v1.25h104.48V444.4Zm0,0v1.25h104.48V444.4Zm0,0v1.25h104.48V444.4Zm0,0v1.25h104.48V444.4Zm0,0v1.25h104.48V444.4Zm-1.26-74v75.27h212.72V370.38Zm211.47,74H1252.78V371.63H1463Zm-210.21,0v1.25h104.48V444.4Zm0,0v1.25h104.48V444.4Zm0,0v1.25h104.48V444.4Zm0,0v1.25h104.48V444.4Zm0,0v1.25h104.48V444.4Zm0,0v1.25h104.48V444.4Zm0,0v1.25h104.48V444.4Zm0,0v1.25h104.48V444.4Zm0,0v1.25h104.48V444.4Zm0,0v1.25h104.48V444.4Zm0,0v1.25h104.48V444.4Z"/><path class="cls-2" d="M1464.24,444.4V371.63H1463v74h105.74V444.4Zm0,0V371.63H1463v74h105.74V444.4Zm0,0V371.63H1463v74h105.74V444.4Zm0,0V371.63H1463v74h105.74V444.4Zm0,0V371.63H1463v74h105.74V444.4Zm0,0V371.63H1463v74h105.74V444.4Zm0,0V371.63H1463v74h105.74V444.4Zm0,0V371.63H1463v74h105.74V444.4Zm0,0V371.63H1463v74h105.74V444.4Zm0,0V371.63H1463v74h105.74V444.4Zm0,0V371.63H1463v74h105.74V444.4Zm0,0V371.63H1463v74h105.74V444.4Zm-1.25-74v75.27h212.72V370.38Zm211.47,74H1464.24V371.63h210.22Zm-210.22,0V371.63H1463v74h105.74V444.4Zm0,0V371.63H1463v74h105.74V444.4Zm0,0V371.63H1463v74h105.74V444.4Zm0,0V371.63H1463v74h105.74V444.4Zm0,0V371.63H1463v74h105.74V444.4Zm0,0V371.63H1463v74h105.74V444.4Zm0,0V371.63H1463v74h105.74V444.4Zm0,0V371.63H1463v74h105.74V444.4Zm0,0V371.63H1463v74h105.74V444.4Zm0,0V371.63H1463v74h105.74V444.4Zm0,0V371.63H1463v74h105.74V444.4ZM1463,371.63V444.4h1.25V371.63Z"/><path class="cls-2" d="M1041.31,444.4v1.25h104.48v72.76H1147v-74Zm0,0v1.25h104.48v72.76H1147v-74Zm0,0v1.25h104.48v72.76H1147v-74Zm0,0v1.25h104.48v72.76H1147v-74Zm0,0v1.25h104.48v72.76H1147v-74Zm0,0v1.25h104.48v72.76H1147v-74Zm0,0v1.25h104.48v72.76H1147v-74Zm0,0v1.25h104.48v72.76H1147v-74Zm0,0v1.25h104.48v72.76H1147v-74Zm0,0v1.25h104.48v72.76H1147v-74Zm0,0v1.25h104.48v72.76H1147v-74Zm0,0v1.25h104.48v72.76H1147v-74Zm-107,0v75.27H1147V444.4Zm211.47,74H935.57V445.65h210.22Zm-104.48-74v1.25h104.48v72.76H1147v-74Zm0,0v1.25h104.48v72.76H1147v-74Zm0,0v1.25h104.48v72.76H1147v-74Zm0,0v1.25h104.48v72.76H1147v-74Zm0,0v1.25h104.48v72.76H1147v-74Zm0,0v1.25h104.48v72.76H1147v-74Zm0,0v1.25h104.48v72.76H1147v-74Zm0,0v1.25h104.48v72.76H1147v-74Zm0,0v1.25h104.48v72.76H1147v-74Zm0,0v1.25h104.48v72.76H1147v-74Zm0,0v1.25h104.48v72.76H1147v-74Zm104.48,1.25v72.76H1147V445.65Z"/><path class="cls-2" d="M1252.78,444.4v1.25h104.48V444.4Zm0,0v1.25h104.48V444.4Zm-107,0v75.27h212.72V444.4Zm211.47,74H1147V445.65h210.22Zm-104.48-74v1.25h104.48V444.4Z"/><path class="cls-2" d="M1357.26,444.4v74h1.25V445.65H1463V444.4Zm1.25,0v1.25H1463V444.4Zm0,0v1.25H1463V444.4Zm0,0v1.25H1463V444.4Zm0,0v1.25H1463V444.4Zm0,0v1.25H1463V444.4Zm0,0v1.25H1463V444.4Zm0,0v1.25H1463V444.4Zm0,0v1.25H1463V444.4Zm0,0v1.25H1463V444.4Zm0,0v1.25H1463V444.4Zm0,0v1.25H1463V444.4Zm0,0v1.25H1463V444.4Zm-1.25,0v75.27H1570V444.4Zm211.47,74H1358.51V445.65h210.22Zm-210.22-74v1.25H1463V444.4Zm0,0v1.25H1463V444.4Zm0,0v1.25H1463V444.4Zm0,0v1.25H1463V444.4Zm0,0v1.25H1463V444.4Zm0,0v1.25H1463V444.4Zm0,0v1.25H1463V444.4Zm0,0v1.25H1463V444.4Zm0,0v1.25H1463V444.4Zm0,0v1.25H1463V444.4Zm0,0v1.25H1463V444.4Zm0,0v1.25H1463V444.4Z"/><path class="cls-2" d="M1568.73,444.4v74h1.18V445.65h98.67V444.4Zm0,0v74h1.18V445.65h98.67V444.4Zm0,0v74h1.18V445.65h98.67V444.4Zm0,0v74h1.18V445.65h98.67V444.4Zm0,1.25v72.76h1.18V445.65Zm0-1.25v74h1.18V445.65h98.67V444.4Zm0,0v74h1.18V445.65h98.67V444.4Zm0,0v74h1.18V445.65h98.67V444.4Zm0,0v74h1.18V445.65h98.67V444.4Zm0,0v74h1.18V445.65h98.67V444.4Zm0,0v74h1.18V445.65h98.67V444.4Zm0,0v74h1.18V445.65h98.67V444.4Zm0,0v74h1.18V445.65h98.67V444.4Zm0,0v75.27h107V444.4Zm106.39,74H1569.91V445.65h105.21Zm-106.39-74v74h1.18V445.65h98.67V444.4Zm0,0v74h1.18V445.65h98.67V444.4Zm0,0v74h1.18V445.65h98.67V444.4Zm0,0v74h1.18V445.65h98.67V444.4Zm0,0v74h1.18V445.65h98.67V444.4Zm0,0v74h1.18V445.65h98.67V444.4Zm0,0v74h1.18V445.65h98.67V444.4Zm0,0v74h1.18V445.65h98.67V444.4Zm0,0v74h1.18V445.65h98.67V444.4Zm0,0v74h1.18V445.65h98.67V444.4Zm0,0v74h1.18V445.65h98.67V444.4Zm0,0v74h1.18V445.65h98.67V444.4Z"/><path class="cls-2" d="M1040.05,519.67v72.76H935.57v1.25h105.74v-74Zm0,0v72.76H935.57v1.25h105.74v-74Zm0,0v72.76H935.57v1.25h105.74v-74Zm0,0v72.76H935.57v1.25h105.74v-74Zm0,0v72.76H935.57v1.25h105.74v-74Zm0,0v72.76H935.57v1.25h105.74v-74Zm0,0v72.76H935.57v1.25h105.74v-74Zm0,0v72.76H935.57v1.25h105.74v-74Zm0,0v72.76H935.57v1.25h105.74v-74Zm0,0v72.76H935.57v1.25h105.74v-74Zm0,0v72.76H935.57v1.25h105.74v-74Zm0,0v72.76H935.57v1.25h105.74v-74Zm0,0v72.76H935.57v1.25h105.74v-74Zm-202.83-1.26v75.27h204.09V518.41Zm202.83,74H837.84V519.67h202.21Zm0-72.76v72.76H935.57v1.25h105.74v-74Zm0,0v72.76H935.57v1.25h105.74v-74Zm0,0v72.76H935.57v1.25h105.74v-74Zm0,0v72.76H935.57v1.25h105.74v-74Zm0,0v72.76H935.57v1.25h105.74v-74Zm0,0v72.76H935.57v1.25h105.74v-74Zm0,0v72.76H935.57v1.25h105.74v-74Zm0,0v72.76H935.57v1.25h105.74v-74Zm0,0v72.76H935.57v1.25h105.74v-74Zm0,0v72.76H935.57v1.25h105.74v-74Zm0,0v72.76H935.57v1.25h105.74v-74Zm0,0v72.76H935.57v1.25h105.74v-74Z"/><path class="cls-2" d="M1251.52,519.67v72.76H1147v1.25h105.74v-74ZM1147,592.43v1.25h104.48v-1.25Zm0,0v1.25h104.48v-1.25Zm0,0v1.25h104.48v-1.25Zm0,0v1.25h104.48v-1.25Zm0,0v1.25h104.48v-1.25Zm0,0v1.25h104.48v-1.25Zm-107-74v75.27h212.73V518.41Zm211.47,74H1041.31V519.67h210.21Zm-104.48,0v1.25h104.48v-1.25Zm0,0v1.25h104.48v-1.25Zm0,0v1.25h104.48v-1.25Zm0,0v1.25h104.48v-1.25Zm0,0v1.25h104.48v-1.25Zm0,0v1.25h104.48v-1.25Z"/><path class="cls-2" d="M1251.52,518.41v75.27h212.72V518.41Zm211.47,74H1252.78V519.67H1463Z"/><path class="cls-2" d="M1464.24,592.43V519.67H1463v74h105.74v-1.25Zm0,0V519.67H1463v74h105.74v-1.25Zm0,0V519.67H1463v74h105.74v-1.25Zm0,0V519.67H1463v74h105.74v-1.25Zm0,0V519.67H1463v74h105.74v-1.25Zm0,0V519.67H1463v74h105.74v-1.25Zm0,0V519.67H1463v74h105.74v-1.25Zm0,0V519.67H1463v74h105.74v-1.25Zm0,0V519.67H1463v74h105.74v-1.25Zm0,0V519.67H1463v74h105.74v-1.25Zm0,0V519.67H1463v74h105.74v-1.25Zm0,0V519.67H1463v74h105.74v-1.25Zm-1.25-74v75.27h212.72V518.41Zm211.47,74H1464.24V519.67h210.22Zm-210.22,0V519.67H1463v74h105.74v-1.25Zm0,0V519.67H1463v74h105.74v-1.25Zm0,0V519.67H1463v74h105.74v-1.25Zm0,0V519.67H1463v74h105.74v-1.25Zm0,0V519.67H1463v74h105.74v-1.25Zm0,0V519.67H1463v74h105.74v-1.25Zm0,0V519.67H1463v74h105.74v-1.25Zm0,0V519.67H1463v74h105.74v-1.25Zm0,0V519.67H1463v74h105.74v-1.25Zm0,0V519.67H1463v74h105.74v-1.25Zm0,0V519.67H1463v74h105.74v-1.25ZM1463,519.67v72.76h1.25V519.67Z"/><path class="cls-2" d="M1041.31,592.43v1.25h104.48v72.76H1147v-74Zm0,0v1.25h104.48v72.76H1147v-74Zm0,0v1.25h104.48v72.76H1147v-74Zm0,0v1.25h104.48v72.76H1147v-74Zm0,0v1.25h104.48v72.76H1147v-74Zm0,0v1.25h104.48v72.76H1147v-74Zm0,0v1.25h104.48v72.76H1147v-74Zm0,0v1.25h104.48v72.76H1147v-74Zm0,0v1.25h104.48v72.76H1147v-74Zm0,0v1.25h104.48v72.76H1147v-74Zm0,0v1.25h104.48v72.76H1147v-74Zm0,0v1.25h104.48v72.76H1147v-74Zm-107,0V667.7H1147V592.43Zm211.47,74H935.57V593.68h210.22Zm-104.48-74v1.25h104.48v72.76H1147v-74Zm0,0v1.25h104.48v72.76H1147v-74Zm0,0v1.25h104.48v72.76H1147v-74Zm0,0v1.25h104.48v72.76H1147v-74Zm0,0v1.25h104.48v72.76H1147v-74Zm0,0v1.25H1147v-1.25Zm0,0v1.25h104.48v72.76H1147v-74Zm0,0v1.25h104.48v72.76H1147v-74Zm0,0v1.25h104.48v72.76H1147v-74Zm0,0v1.25h104.48v72.76H1147v-74Zm0,0v1.25h104.48v72.76H1147v-74Zm104.48,1.25v72.76H1147V593.68Z"/><path class="cls-2" d="M1252.78,592.43v1.25h104.48v-1.25Zm0,0v1.25h104.48v-1.25Zm0,0v1.25h104.48v-1.25Zm0,0v1.25h104.48v-1.25Zm0,0v1.25h104.48v-1.25Zm0,0v1.25h104.48v-1.25Zm-105.74,0v1.25h210.22v-1.25Zm0,0v1.25h210.22v-1.25Zm0,0v1.25h210.22v-1.25Zm0,0v1.25h210.22v-1.25Zm0,0v1.25h210.22v-1.25Zm0,0v1.25h210.22v-1.25Zm-1.25,0V667.7h212.72V592.43Zm211.47,74H1147V593.68h210.22Zm-210.22-74v1.25h210.22v-1.25Zm0,0v1.25h210.22v-1.25Zm0,0v1.25h210.22v-1.25Zm0,0v1.25h210.22v-1.25Zm0,0v1.25h210.22v-1.25Zm0,0v1.25h210.22v-1.25Zm105.74,0v1.25h104.48v-1.25Zm0,0v1.25h104.48v-1.25Zm0,0v1.25h104.48v-1.25Zm0,0v1.25h104.48v-1.25Zm0,0v1.25h104.48v-1.25Zm0,0v1.25h104.48v-1.25Z"/><path class="cls-2" d="M1357.26,592.43v74h1.25V593.68H1463v-1.25Zm1.25,0v1.25H1463v-1.25Zm-1.25,0V667.7H1570V592.43Zm211.47,74H1358.51V593.68h210.22Zm-210.22-74v1.25H1463v-1.25Z"/><path class="cls-2" d="M1568.73,592.43v74h1.18V593.68h98.67v-1.25Zm0,0v74h1.18V593.68h98.67v-1.25Zm0,1.25v72.76h1.18V593.68Zm0-1.25v74h1.18V593.68h98.67v-1.25Zm0,0v74h1.18V593.68h98.67v-1.25Zm0,0v74h1.18V593.68h98.67v-1.25Zm0,0v74h1.18V593.68h98.67v-1.25Zm0,0v74h1.18V593.68h98.67v-1.25Zm0,0v74h1.18V593.68h98.67v-1.25Zm0,0v74h1.18V593.68h98.67v-1.25Zm0,0v74h1.18V593.68h98.67v-1.25Zm0,0v74h1.18V593.68h98.67v-1.25Zm0,0v74h1.18V593.68h98.67v-1.25Zm0,0V667.7h107V592.43Zm106.39,74H1569.91V593.68h105.21Zm-106.39-74v74h1.18V593.68h98.67v-1.25Zm0,0v74h1.18V593.68h98.67v-1.25Zm0,0v74h1.18V593.68h98.67v-1.25Zm0,0v74h1.18V593.68h98.67v-1.25Zm0,0v74h1.18V593.68h98.67v-1.25Zm0,0v74h1.18V593.68h98.67v-1.25Zm0,0v74h1.18V593.68h98.67v-1.25Zm0,0v74h1.18V593.68h98.67v-1.25Zm0,0v74h1.18V593.68h98.67v-1.25Zm0,1.25v72.76h1.18V593.68Zm0,0v72.76h1.18V593.68Zm0-1.25v74h1.18V593.68h98.67v-1.25Z"/><path class="cls-2" d="M1040.05,667.7v68.82l1.26-.14V667.7Zm0,0v68.82l1.26-.14V667.7Zm0,0v68.82l1.26-.14V667.7Zm0,0v68.82l1.26-.14V667.7Zm0,0v68.82l1.26-.14V667.7Zm0,0v68.82l1.26-.14V667.7Zm0,0v68.82l1.26-.14V667.7Zm-202.83-1.26v75.28h204.09V666.44Zm202.83,74H837.84V667.7h202.21Zm0-72.76v68.82l1.26-.14V667.7Zm0,0v68.82l1.26-.14V667.7Zm0,0v68.82l1.26-.14V667.7Zm0,0v68.82l1.26-.14V667.7Zm0,0v68.82l1.26-.14V667.7Zm0,0v68.82l1.26-.14V667.7Z"/><path class="cls-2" d="M1147,666.44v1.26h104.48v-1.26Zm0,0v1.26h104.48v-1.26Zm0,0v1.26h104.48v-1.26Zm0,0v1.26h104.48v-1.26Zm0,0v1.26h104.48v-1.26Zm0,0v1.26h104.48v-1.26Zm0,0v1.26h104.48v-1.26Zm-105.73,0v1.26h210.21v-1.26Zm0,0v1.26h210.21v-1.26Zm0,0v1.26h210.21v-1.26Zm0,0v1.26h210.21v-1.26Zm0,0v1.26h210.21v-1.26Zm0,0v1.26h210.21v-1.26Zm-1.26,0v75.28h212.73V666.44Zm211.47,74H1041.31V667.7h210.21Zm-210.21-74v1.26h210.21v-1.26Zm0,0v1.26h210.21v-1.26Zm0,0v1.26h210.21v-1.26Zm0,0v1.26h210.21v-1.26Zm0,0v1.26h210.21v-1.26Zm0,0v1.26h210.21v-1.26Zm105.73,0v1.26h104.48v-1.26Zm0,0v1.26h104.48v-1.26Zm0,0v1.26h104.48v-1.26Zm0,0v1.26h104.48v-1.26Zm0,0v1.26h104.48v-1.26Zm0,0v1.26h104.48v-1.26Z"/><path class="cls-2" d="M1251.52,666.44v75.28h212.72V666.44Zm211.47,74H1252.78V667.7H1463Z"/><path class="cls-2" d="M1464.24,666.44v1.26h104.49v-1.26Zm0,0v1.26h104.49v-1.26Zm0,0v1.26h104.49v-1.26Zm0,0v1.26h104.49v-1.26Zm0,0v1.26h104.49v-1.26Zm0,0v1.26h104.49v-1.26Zm0,0v1.26h104.49v-1.26Zm0,0v1.26h104.49v-1.26Zm0,0v1.26h104.49v-1.26Zm0,0v1.26h104.49v-1.26Zm0,0v1.26h104.49v-1.26Zm-1.25,0v75.28h212.72V666.44Zm211.47,74H1464.24V667.7h210.22Zm-210.22-74v1.26h104.49v-1.26Zm0,0v1.26h104.49v-1.26Zm0,0v1.26h104.49v-1.26Zm0,0v1.26h104.49v-1.26Zm0,0v1.26h104.49v-1.26Zm0,0v1.26h104.49v-1.26Zm0,0v1.26h104.49v-1.26Zm0,0v1.26h104.49v-1.26Zm0,0v1.26h104.49v-1.26Zm0,0v1.26h104.49v-1.26Zm0,0v1.26h104.49v-1.26Z"/><path class="cls-2" d="M0,148.34V223.6H98.36V148.34Zm97.1,74H.63V149.59H97.11Z"/><path class="cls-2" d="M97.11,148.34V223.6H309.83V148.34Zm211.47,74H98.36V149.59H308.58Z"/><path class="cls-2" d="M309.83,222.35v1.25H414.31v-1.25Zm0,0v1.25H414.31v-1.25Zm0,0v1.25H414.31v-1.25Zm0,0v1.25H414.31v-1.25Zm0,0v1.25H414.31v-1.25Zm0,0v1.25H414.31v-1.25Zm0,0v1.25H414.31v-1.25Zm0,0v1.25H414.31v-1.25Zm0,0v1.25H414.31v-1.25Zm0,0v1.25H414.31v-1.25Zm0,0v1.25H414.31v-1.25Zm0,0v1.25H414.31v-1.25Zm0,0v1.25H414.31v-1.25Zm-1.25-74V223.6H521.29V148.34Zm211.46,74H309.83V149.59H520Zm-210.21,0v1.25H414.31v-1.25Zm0,0v1.25H414.31v-1.25Zm0,0v1.25H414.31v-1.25Zm0,0v1.25H414.31v-1.25Zm0,0v1.25H414.31v-1.25Zm0,0v1.25H414.31v-1.25Zm0,0v1.25H414.31v-1.25Zm0,0v1.25H414.31v-1.25Zm0,0v1.25H414.31v-1.25Zm0,0v1.25H414.31v-1.25Zm0,0v1.25H414.31v-1.25Zm0,0v1.25H414.31v-1.25Z"/><path class="cls-2" d="M521.29,222.35v1.25H625.77v-1.25Zm-1.25-74V223.6H732.77V148.34Zm211.47,74H521.29V149.59H731.51Z"/><path class="cls-2" d="M732.7,222.35v1.25H832.93v-1.25Zm-1.2-74V223.6H935.57V148.34Zm202.87,74H732.7V149.59H934.37Z"/><path class="cls-2" d="M934.32,0V75.27H1147V0Zm211.47,74H935.57V1.25h210.22Z"/><path class="cls-2" d="M1147,74v1.26h104.48V74Zm0,0v1.26h104.48V74Zm0,0v1.26h104.48V74Zm0,0v1.26h104.48V74Zm0,0v1.26h104.48V74Zm0,0v1.26h104.48V74Zm0,0v1.26h104.48V74Zm0,0v1.26h104.48V74Zm0,0v1.26h104.48V74Zm0,0v1.26h104.48V74Zm0,0v1.26h104.48V74Zm0,0v1.26h104.48V74Zm0,0v1.26h104.48V74Zm-1.25-74V75.27h212.72V0Zm211.47,74H1147V1.25h210.22ZM1147,74v1.26h104.48V74Zm0,0v1.26h104.48V74Zm0,0v1.26h104.48V74Zm0,0v1.26h104.48V74Zm0,0v1.26h104.48V74Zm0,0v1.26h104.48V74Zm0,0v1.26h104.48V74Zm0,0v1.26h104.48V74Zm0,0v1.26h104.48V74Zm0,0v1.26h104.48V74Zm0,0v1.26h104.48V74Zm0,0v1.26h104.48V74Z"/><path class="cls-2" d="M1358.51,74v1.26H1463V74Zm-1.25-74V75.27H1570V0Zm211.47,74H1358.51V1.25h210.22Z"/><path class="cls-2" d="M1568.73,0V74h1.18V1.25h98.67V0Zm0,0V74h1.18V1.25h98.67V0Zm0,0V74h1.18V1.25h98.67V0Zm0,0V74h1.18V1.25h98.67V0Zm0,0V74h1.18V1.25h98.67V0Zm0,0V74h1.18V1.25h98.67V0Zm0,1.25V74h1.18V1.25Zm0-1.25V74h1.18V1.25h98.67V0Zm0,0V74h1.18V1.25h98.67V0Zm0,0V74h1.18V1.25h98.67V0Zm0,0V74h1.18V1.25h98.67V0Zm0,0V74h1.18V1.25h98.67V0Zm0,0V74h1.18V1.25h98.67V0Zm0,0V75.27h107V0Zm106.39,74H1569.91V1.25h105.21ZM1568.73,0V74h1.18V1.25h98.67V0Zm0,0V74h1.18V1.25h98.67V0Zm0,0V74h1.18V1.25h98.67V0Zm0,0V74h1.18V1.25h98.67V0Zm0,0V74h1.18V1.25h98.67V0Zm0,0V74h1.18V1.25h98.67V0Zm0,0V74h1.18V1.25h98.67V0Zm0,0V74h1.18V1.25h98.67V0Zm0,0V74h1.18V1.25h98.67V0Zm0,0V74h1.18V1.25h98.67V0Zm0,0V74h1.18V1.25h98.67V0Zm0,0V74h1.18V1.25h98.67V0Z"/><path class="cls-2" d="M0,0V75.27H98.36V0Zm97.1,74H.63V1.25H97.11Z"/><path class="cls-2" d="M97.11,0V75.27H309.83V0ZM308.58,74H98.36V1.25H308.58Z"/><path class="cls-2" d="M309.83,74v1.26H414.31V74Zm0,0v1.26H414.31V74Zm0,0v1.26H414.31V74Zm0,0v1.26H414.31V74Zm0,0v1.26H414.31V74Zm0,0v1.26H414.31V74Zm0,0v1.26H414.31V74Zm0,0v1.26H414.31V74Zm0,0v1.26H414.31V74Zm0,0v1.26H414.31V74Zm0,0v1.26H414.31V74Zm0,0v1.26H414.31V74Zm0,0v1.26H414.31V74ZM308.58,0V75.27H521.29V0ZM520,74H309.83V1.25H520ZM309.83,74v1.26H414.31V74Zm0,0v1.26H414.31V74Zm0,0v1.26H414.31V74Zm0,0v1.26H414.31V74Zm0,0v1.26H414.31V74Zm0,0v1.26H414.31V74Zm0,0v1.26H414.31V74Zm0,0v1.26H414.31V74Zm0,0v1.26H414.31V74Zm0,0v1.26H414.31V74Zm0,0v1.26H414.31V74Zm0,0v1.26H414.31V74Z"/><path class="cls-2" d="M521.29,74v1.26H625.77V74ZM520,0V75.27H732.77V0ZM731.51,74H521.29V1.25H731.51Z"/><path class="cls-2" d="M732.7,74v1.26H832.93V74ZM731.5,0V75.27H935.57V0ZM934.37,74H732.7V1.25H934.37Z"/><path class="cls-2" d="M1042.32,74.3v75.27H1255V74.3Zm211.47,74H1043.57V75.56h210.22Z"/><path class="cls-2" d="M1255,148.32v1.25h104.48v-1.25Zm0,0v1.25h104.48v-1.25Zm0,0v1.25h104.48v-1.25Zm0,0v1.25h104.48v-1.25Zm0,0v1.25h104.48v-1.25Zm0,0v1.25h104.48v-1.25Zm0,0v1.25h104.48v-1.25Zm0,0v1.25h104.48v-1.25Zm0,0v1.25h104.48v-1.25Zm0,0v1.25h104.48v-1.25Zm0,0v1.25h104.48v-1.25Zm0,0v1.25h104.48v-1.25Zm0,0v1.25h104.48v-1.25Zm-1.25-74v75.27h212.72V74.3Zm211.47,74H1255V75.56h210.22Zm-210.22,0v1.25h104.48v-1.25Zm0,0v1.25h104.48v-1.25Zm0,0v1.25h104.48v-1.25Zm0,0v1.25h104.48v-1.25Zm0,0v1.25h104.48v-1.25Zm0,0v1.25h104.48v-1.25Zm0,0v1.25h104.48v-1.25Zm0,0v1.25h104.48v-1.25Zm0,0v1.25h104.48v-1.25Zm0,0v1.25h104.48v-1.25Zm0,0v1.25h104.48v-1.25Zm0,0v1.25h104.48v-1.25Z"/><path class="cls-2" d="M1466.5,148.32v1.25h103.43v-1.25Zm-1.24-74v75.27h210.59V74.3Zm209.35,74H1466.5V75.56h208.11Z"/><path class="cls-2" d="M203.73,74.3v75.27h214.1V74.3Zm212.84,74H205V75.56H416.57Z"/><path class="cls-2" d="M-.14,74.3v75.27h205V74.3Zm203.8,74H1.06V75.56h202.6Z"/><path class="cls-2" d="M417.83,148.31v1.26H522.31v-1.26Zm0,0v1.26H522.31v-1.26Zm0,0v1.26H522.31v-1.26Zm0,0v1.26H522.31v-1.26Zm0,0v1.26H522.31v-1.26Zm0,0v1.26H522.31v-1.26Zm0,0v1.26H522.31v-1.26Zm0,0v1.26H522.31v-1.26Zm0,0v1.26H522.31v-1.26Zm0,0v1.26H522.31v-1.26Zm0,0v1.26H522.31v-1.26Zm0,0v1.26H522.31v-1.26Zm0,0v1.26H522.31v-1.26ZM416.58,74v75.57H629.29V74ZM628,148.31H417.83v-73H628Zm-210.21,0v1.26H522.31v-1.26Zm0,0v1.26H522.31v-1.26Zm0,0v1.26H522.31v-1.26Zm0,0v1.26H522.31v-1.26Zm0,0v1.26H522.31v-1.26Zm0,0v1.26H522.31v-1.26Zm0,0v1.26H522.31v-1.26Zm0,0v1.26H522.31v-1.26Zm0,0v1.26H522.31v-1.26Zm0,0v1.26H522.31v-1.26Zm0,0v1.26H522.31v-1.26Zm0,0v1.26H522.31v-1.26Z"/><path class="cls-2" d="M629.29,148.32v1.25H733.77v-1.25ZM628,74.3v75.27H840.77V74.3Zm211.47,74H629.29V75.56H839.51Z"/><path class="cls-2" d="M840.7,148.32v1.25H940.93v-1.25Zm-1.2-74v75.27h204.07V74.3Zm202.87,74H840.7V75.56h201.67Z"/><path class="cls-2" d="M202.84,223.6v72.77H98.36v1.25H204.09v-74Zm0,0v72.77H98.36v1.25H204.09v-74Zm0,0v72.77H98.36v1.25H204.09v-74Zm0,0v72.77H98.36v1.25H204.09v-74Zm0,0v72.77H98.36v1.25H204.09v-74Zm0,0v72.77H98.36v1.25H204.09v-74Zm0,0v72.77H98.36v1.25H204.09v-74Zm0,0v72.77H98.36v1.25H204.09v-74Zm0,0v72.77H98.36v1.25H204.09v-74Zm0,0v72.77H98.36v1.25H204.09v-74Zm0,0v72.77H98.36v1.25H204.09v-74Zm0,0v72.77H98.36v1.25H204.09v-74Zm0,0v72.77H98.36v1.25H204.09v-74ZM0,222.35v75.27H204.09V222.35Zm202.83,74H.63V223.6H202.84Zm0-72.77v72.77H98.36v1.25H204.09v-74Zm0,0v72.77H98.36v1.25H204.09v-74Zm0,0v72.77H98.36v1.25H204.09v-74Zm0,0v72.77H98.36v1.25H204.09v-74Zm0,0v72.77H98.36v1.25H204.09v-74Zm0,0v72.77H98.36v1.25H204.09v-74Zm0,0v72.77H98.36v1.25H204.09v-74Zm0,0v72.77H98.36v1.25H204.09v-74Zm0,0v72.77H98.36v1.25H204.09v-74Zm0,0v72.77H98.36v1.25H204.09v-74Zm0,0v72.77H98.36v1.25H204.09v-74Zm0,0v72.77H98.36v1.25H204.09v-74Z"/><path class="cls-2" d="M414.31,223.6v72.77H309.83v1.25H415.56v-74ZM309.83,296.37v1.25H414.31v-1.25Zm0,0v1.25H414.31v-1.25Zm0,0v1.25H414.31v-1.25Zm0,0v1.25H414.31v-1.25Zm0,0v1.25H414.31v-1.25Zm0,0v1.25H414.31v-1.25Zm0,0v1.25H414.31v-1.25Zm0,0v1.25H414.31v-1.25Zm0,0v1.25H414.31v-1.25Zm0,0v1.25H414.31v-1.25Zm0,0v1.25H414.31v-1.25Zm0,0v1.25H414.31v-1.25Zm-107-74v75.27H415.56V222.35Zm211.47,74H204.09V223.6H414.31Zm-104.48,0v1.25H414.31v-1.25Zm0,0v1.25H414.31v-1.25Zm0,0v1.25H414.31v-1.25Zm0,0v1.25H414.31v-1.25Zm0,0v1.25H414.31v-1.25Zm0,0v1.25H414.31v-1.25Zm0,0v1.25H414.31v-1.25Zm0,0v1.25H414.31v-1.25Zm0,0v1.25H414.31v-1.25Zm0,0v1.25H414.31v-1.25Zm0,0v1.25H414.31v-1.25Zm0,0v1.25H414.31v-1.25Z"/><path class="cls-2" d="M415.56,296.37v1.25H520v-1.25Zm0,0v1.25H520v-1.25Zm0,0v1.25H520v-1.25Zm0,0v1.25H520v-1.25Zm0,0v1.25H520v-1.25Zm0,0v1.25H520v-1.25Zm0,0v1.25H520v-1.25Zm0,0v1.25H520v-1.25Zm0,0v1.25H520v-1.25Zm0,0v1.25H520v-1.25Zm0,0v1.25H520v-1.25Zm0,0v1.25H520v-1.25Zm-1.25-74v75.27H627V222.35Zm211.46,74H415.56V223.6H625.77Zm-210.21,0v1.25H520v-1.25Zm0,0v1.25H520v-1.25Zm0,0v1.25H520v-1.25Zm0,0v1.25H520v-1.25Zm0,0v1.25H520v-1.25Zm0,0v1.25H520v-1.25Zm0,0v1.25H520v-1.25Zm0,0v1.25H520v-1.25Zm0,0v1.25H520v-1.25Zm0,0v1.25H520v-1.25Zm0,0v1.25H520v-1.25Zm0,0v1.25H520v-1.25Z"/><path class="cls-2" d="M627,296.37V223.6h-1.26v74H731.51v-1.25Zm0,0V223.6h-1.26v74H731.51v-1.25Zm0,0V223.6h-1.26v74H731.51v-1.25Zm0,0V223.6h-1.26v74H731.51v-1.25Zm0,0V223.6h-1.26v74H731.51v-1.25Zm0,0V223.6h-1.26v74H731.51v-1.25Zm0,0V223.6h-1.26v74H731.51v-1.25Zm0,0V223.6h-1.26v74H731.51v-1.25Zm0,0V223.6h-1.26v74H731.51v-1.25Zm0,0V223.6h-1.26v74H731.51v-1.25Zm0,0V223.6h-1.26v74H731.51v-1.25Zm0,0V223.6h-1.26v74H731.51v-1.25Zm-1.26-74v75.27H838.5V222.35Zm211.47,74H627V223.6H837.24Zm-210.21,0V223.6h-1.26v74H731.51v-1.25Zm0,0V223.6h-1.26v74H731.51v-1.25Zm0,0V223.6h-1.26v74H731.51v-1.25Zm0,0V223.6h-1.26v74H731.51v-1.25Zm0,0V223.6h-1.26v74H731.51v-1.25Zm0,0V223.6h-1.26v74H731.51v-1.25Zm0,0V223.6h-1.26v74H731.51v-1.25Zm0,0V223.6h-1.26v74H731.51v-1.25Zm0,0V223.6h-1.26v74H731.51v-1.25Zm0,0V223.6h-1.26v74H731.51v-1.25Zm0,0V223.6h-1.26v74H731.51v-1.25Zm-1.26-72.77v72.77H627V223.6Z"/><path class="cls-2" d="M0,296.37v75.26H98.36V296.37Zm97.1,74H.63V297.62H97.11Z"/><path class="cls-2" d="M204.09,296.37v1.25H308.58v72.76h1.25v-74Zm0,0v1.25H308.58v72.76h1.25v-74Zm0,0v1.25H308.58v72.76h1.25v-74Zm0,0v1.25H308.58v72.76h1.25v-74Zm0,0v1.25H308.58v72.76h1.25v-74Zm0,0v1.25H308.58v72.76h1.25v-74Zm0,0v1.25H308.58v72.76h1.25v-74Zm0,0v1.25H308.58v72.76h1.25v-74Zm0,0v1.25H308.58v72.76h1.25v-74Zm0,0v1.25H308.58v72.76h1.25v-74Zm0,0v1.25H308.58v72.76h1.25v-74Zm0,0v1.25H308.58v72.76h1.25v-74Zm-107,0v75.26H309.83V296.37Zm211.47,74H98.36V297.62H308.58Zm-104.49-74v1.25H308.58v72.76h1.25v-74Zm0,0v1.25H308.58v72.76h1.25v-74Zm0,0v1.25H308.58v72.76h1.25v-74Zm0,0v1.25H308.58v72.76h1.25v-74Zm0,0v1.25H308.58v72.76h1.25v-74Zm0,0v1.25H308.58v72.76h1.25v-74Zm0,0v1.25H308.58v72.76h1.25v-74Zm0,0v1.25H308.58v72.76h1.25v-74Zm0,0v1.25H308.58v72.76h1.25v-74Zm0,0v1.25H308.58v72.76h1.25v-74Zm0,0v1.25H308.58v72.76h1.25v-74Zm104.49,1.25v72.76h1.25V297.62Z"/><path class="cls-2" d="M308.58,296.37v75.26H521.29V296.37Zm211.46,74H309.83V297.62H520Z"/><path class="cls-2" d="M520,296.37v74h1.25V297.62H625.77v-1.25Zm1.25,0v1.25H625.77v-1.25Zm0,0v1.25H625.77v-1.25Zm0,0v1.25H625.77v-1.25Zm0,0v1.25H625.77v-1.25Zm0,0v1.25H625.77v-1.25Zm0,0v1.25H625.77v-1.25Zm0,0v1.25H625.77v-1.25Zm0,0v1.25H625.77v-1.25Zm0,0v1.25H625.77v-1.25Zm0,0v1.25H625.77v-1.25Zm0,0v1.25H625.77v-1.25Zm0,0v1.25H625.77v-1.25Zm-1.25,0v75.26H732.77V296.37Zm211.47,74H521.29V297.62H731.51Zm-210.22-74v1.25H625.77v-1.25Zm0,0v1.25H625.77v-1.25Zm0,0v1.25H625.77v-1.25Zm0,0v1.25H625.77v-1.25Zm0,0v1.25H625.77v-1.25Zm0,0v1.25H625.77v-1.25Zm0,0v1.25H625.77v-1.25Zm0,0v1.25H625.77v-1.25Zm0,0v1.25H625.77v-1.25Zm0,0v1.25H625.77v-1.25Zm0,0v1.25H625.77v-1.25Zm0,0v1.25H625.77v-1.25Z"/><path class="cls-2" d="M202.84,371.63V444.4H98.36v1.25H204.09v-74Zm0,0V444.4H98.36v1.25H204.09v-74Zm0,0V444.4H98.36v1.25H204.09v-74Zm0,0V444.4H98.36v1.25H204.09v-74Zm0,0V444.4H98.36v1.25H204.09v-74Zm0,0V444.4H98.36v1.25H204.09v-74Zm0,0V444.4H98.36v1.25H204.09v-74Zm0,0V444.4H98.36v1.25H204.09v-74Zm0,0V444.4H98.36v1.25H204.09v-74Zm0,0V444.4H98.36v1.25H204.09v-74Zm0,0V444.4H98.36v1.25H204.09v-74Zm0,0V444.4H98.36v1.25H204.09v-74Zm0,0V444.4H98.36v1.25H204.09v-74ZM0,370.38v75.27H204.09V370.38Zm202.83,74H.63V371.63H202.84Zm0-72.77V444.4H98.36v1.25H204.09v-74Zm0,0V444.4H98.36v1.25H204.09v-74Zm0,0V444.4H98.36v1.25H204.09v-74Zm0,0V444.4H98.36v1.25H204.09v-74Zm0,0V444.4H98.36v1.25H204.09v-74Zm0,0V444.4H98.36v1.25H204.09v-74Zm0,0V444.4H98.36v1.25H204.09v-74Zm0,0V444.4H98.36v1.25H204.09v-74Zm0,0V444.4H98.36v1.25H204.09v-74Zm0,0V444.4H98.36v1.25H204.09v-74Zm0,0V444.4H98.36v1.25H204.09v-74Zm0,0V444.4H98.36v1.25H204.09v-74Z"/><path class="cls-2" d="M414.31,371.63V444.4H309.83v1.25H415.56v-74ZM309.83,444.4v1.25H414.31V444.4Zm0,0v1.25H414.31V444.4Zm0,0v1.25H414.31V444.4Zm0,0v1.25H414.31V444.4Zm0,0v1.25H414.31V444.4Zm0,0v1.25H414.31V444.4Zm0,0v1.25H414.31V444.4Zm0,0v1.25H414.31V444.4Zm0,0v1.25H414.31V444.4Zm0,0v1.25H414.31V444.4Zm0,0v1.25H414.31V444.4Zm0,0v1.25H414.31V444.4Zm-107-74v75.27H415.56V370.38Zm211.47,74H204.09V371.63H414.31Zm-104.48,0v1.25H414.31V444.4Zm0,0v1.25H414.31V444.4Zm0,0v1.25H414.31V444.4Zm0,0v1.25H414.31V444.4Zm0,0v1.25H414.31V444.4Zm0,0v1.25H414.31V444.4Zm0,0v1.25H414.31V444.4Zm0,0v1.25H414.31V444.4Zm0,0v1.25H414.31V444.4Zm0,0v1.25H414.31V444.4Zm0,0v1.25H414.31V444.4Zm0,0v1.25H414.31V444.4Z"/><path class="cls-2" d="M415.56,444.4v1.25H520V444.4Zm0,0v1.25H520V444.4Zm0,0v1.25H520V444.4Zm0,0v1.25H520V444.4Zm0,0v1.25H520V444.4Zm0,0v1.25H520V444.4Zm0,0v1.25H520V444.4Zm0,0v1.25H520V444.4Zm0,0v1.25H520V444.4Zm0,0v1.25H520V444.4Zm-1.25-74v75.27H627V370.38Zm211.46,74H415.56V371.63H625.77Zm-210.21,0v1.25H520V444.4Zm0,0v1.25H520V444.4Zm0,0v1.25H520V444.4Zm0,0v1.25H520V444.4Zm0,0v1.25H520V444.4Zm0,0v1.25H520V444.4Zm0,0v1.25H520V444.4Zm0,0v1.25H520V444.4Zm0,0v1.25H520V444.4Zm0,0v1.25H520V444.4Zm0,0v1.25H520V444.4Z"/><path class="cls-2" d="M627,444.4V371.63h-1.26v74H731.51V444.4Zm0,0V371.63h-1.26v74H731.51V444.4Zm0,0V371.63h-1.26v74H731.51V444.4Zm0,0V371.63h-1.26v74H731.51V444.4Zm0,0V371.63h-1.26v74H731.51V444.4Zm0,0V371.63h-1.26v74H731.51V444.4Zm0,0V371.63h-1.26v74H731.51V444.4Zm0,0V371.63h-1.26v74H731.51V444.4Zm0,0V371.63h-1.26v74H731.51V444.4Zm0,0V371.63h-1.26v74H731.51V444.4Zm0,0V371.63h-1.26v74H731.51V444.4Zm0,0V371.63h-1.26v74H731.51V444.4Zm-1.26-74v75.27H838.5V370.38Zm211.47,74H627V371.63H837.24ZM627,444.4V371.63h-1.26v74H731.51V444.4Zm0,0V371.63h-1.26v74H731.51V444.4Zm0,0V371.63h-1.26v74H731.51V444.4Zm0,0V371.63h-1.26v74H731.51V444.4Zm0,0V371.63h-1.26v74H731.51V444.4Zm0,0V371.63h-1.26v74H731.51V444.4Zm0,0V371.63h-1.26v74H731.51V444.4Zm0,0V371.63h-1.26v74H731.51V444.4Zm0,0V371.63h-1.26v74H731.51V444.4Zm0,0V371.63h-1.26v74H731.51V444.4Zm0,0V371.63h-1.26v74H731.51V444.4Zm-1.26-72.77V444.4H627V371.63Z"/><path class="cls-2" d="M0,444.4v75.27H98.36V444.4Zm97.1,74H.63V445.65H97.11Z"/><path class="cls-2" d="M204.09,444.4v1.25H308.58v72.76h1.25v-74Zm0,0v1.25H308.58v72.76h1.25v-74Zm0,0v1.25H308.58v72.76h1.25v-74Zm0,0v1.25H308.58v72.76h1.25v-74Zm0,0v1.25H308.58v72.76h1.25v-74Zm0,0v1.25H308.58v72.76h1.25v-74Zm0,0v1.25H308.58v72.76h1.25v-74Zm0,0v1.25H308.58v72.76h1.25v-74Zm0,0v1.25H308.58v72.76h1.25v-74Zm0,0v1.25H308.58v72.76h1.25v-74Zm0,0v1.25H308.58v72.76h1.25v-74Zm0,0v1.25H308.58v72.76h1.25v-74Zm-107,0v75.27H309.83V444.4Zm211.47,74H98.36V445.65H308.58Zm-104.49-74v1.25H308.58v72.76h1.25v-74Zm0,0v1.25H308.58v72.76h1.25v-74Zm0,0v1.25H308.58v72.76h1.25v-74Zm0,0v1.25H308.58v72.76h1.25v-74Zm0,0v1.25H308.58v72.76h1.25v-74Zm0,0v1.25H308.58v72.76h1.25v-74Zm0,0v1.25H308.58v72.76h1.25v-74Zm0,0v1.25H308.58v72.76h1.25v-74Zm0,0v1.25H308.58v72.76h1.25v-74Zm0,0v1.25H308.58v72.76h1.25v-74Zm0,0v1.25H308.58v72.76h1.25v-74Zm104.49,1.25v72.76h1.25V445.65Z"/><path class="cls-2" d="M415.56,444.4v1.25H520V444.4Zm0,0v1.25H520V444.4Zm-107,0v75.27H521.29V444.4Zm211.46,74H309.83V445.65H520Zm-104.48-74v1.25H520V444.4Z"/><path class="cls-2" d="M520,444.4v74h1.25V445.65H625.77V444.4Zm1.25,0v1.25H625.77V444.4Zm0,0v1.25H625.77V444.4Zm0,0v1.25H625.77V444.4Zm0,0v1.25H625.77V444.4Zm0,0v1.25H625.77V444.4Zm0,0v1.25H625.77V444.4Zm0,0v1.25H625.77V444.4Zm0,0v1.25H625.77V444.4Zm0,0v1.25H625.77V444.4Zm0,0v1.25H625.77V444.4Zm0,0v1.25H625.77V444.4Zm0,0v1.25H625.77V444.4Zm-1.25,0v75.27H732.77V444.4Zm211.47,74H521.29V445.65H731.51Zm-210.22-74v1.25H625.77V444.4Zm0,0v1.25H625.77V444.4Zm0,0v1.25H625.77V444.4Zm0,0v1.25H625.77V444.4Zm0,0v1.25H625.77V444.4Zm0,0v1.25H625.77V444.4Zm0,0v1.25H625.77V444.4Zm0,0v1.25H625.77V444.4Zm0,0v1.25H625.77V444.4Zm0,0v1.25H625.77V444.4Zm0,0v1.25H625.77V444.4Zm0,0v1.25H625.77V444.4Z"/><path class="cls-2" d="M731.51,444.4v74h2.26V445.65H922V444.4Zm0,0v74h2.26V445.65H922V444.4Zm0,0v74h2.26V445.65H922V444.4Zm0,0v74h2.26V445.65H922V444.4Zm0,1.25v72.76h2.26V445.65Zm0-1.25v74h2.26V445.65H922V444.4Zm0,0v74h2.26V445.65H922V444.4Zm0,0v74h2.26V445.65H922V444.4Zm0,0v74h2.26V445.65H922V444.4Zm0,0v74h2.26V445.65H922V444.4Zm0,0v74h2.26V445.65H922V444.4Zm0,0v74h2.26V445.65H922V444.4Zm0,0v74h2.26V445.65H922V444.4Zm0,0v75.27H935.57V444.4Zm202.94,74H733.77V445.65H934.45Zm-202.94-74v74h2.26V445.65H922V444.4Zm0,0v74h2.26V445.65H922V444.4Zm0,0v74h2.26V445.65H922V444.4Zm0,0v74h2.26V445.65H922V444.4Zm0,0v74h2.26V445.65H922V444.4Zm0,0v74h2.26V445.65H922V444.4Zm0,0v74h2.26V445.65H922V444.4Zm0,0v74h2.26V445.65H922V444.4Zm0,0v74h2.26V445.65H922V444.4Zm0,0v74h2.26V445.65H922V444.4Zm0,0v74h2.26V445.65H922V444.4Zm0,0v74h2.26V445.65H922V444.4Z"/><path class="cls-2" d="M202.84,519.67v72.76H98.36v1.25H204.09v-74Zm0,0v72.76H98.36v1.25H204.09v-74Zm0,0v72.76H98.36v1.25H204.09v-74Zm0,0v72.76H98.36v1.25H204.09v-74Zm0,0v72.76H98.36v1.25H204.09v-74Zm0,0v72.76H98.36v1.25H204.09v-74Zm0,0v72.76H98.36v1.25H204.09v-74Zm0,0v72.76H98.36v1.25H204.09v-74Zm0,0v72.76H98.36v1.25H204.09v-74Zm0,0v72.76H98.36v1.25H204.09v-74Zm0,0v72.76H98.36v1.25H204.09v-74Zm0,0v72.76H98.36v1.25H204.09v-74Zm0,0v72.76H98.36v1.25H204.09v-74ZM0,518.41v75.27H204.09V518.41Zm202.83,74H.63V519.67H202.84Zm0-72.76v72.76H98.36v1.25H204.09v-74Zm0,0v72.76H98.36v1.25H204.09v-74Zm0,0v72.76H98.36v1.25H204.09v-74Zm0,0v72.76H98.36v1.25H204.09v-74Zm0,0v72.76H98.36v1.25H204.09v-74Zm0,0v72.76H98.36v1.25H204.09v-74Zm0,0v72.76H98.36v1.25H204.09v-74Zm0,0v72.76H98.36v1.25H204.09v-74Zm0,0v72.76H98.36v1.25H204.09v-74Zm0,0v72.76H98.36v1.25H204.09v-74Zm0,0v72.76H98.36v1.25H204.09v-74Zm0,0v72.76H98.36v1.25H204.09v-74Z"/><path class="cls-2" d="M414.31,519.67v72.76H309.83v1.25H415.56v-74ZM309.83,592.43v1.25H414.31v-1.25Zm0,0v1.25H414.31v-1.25Zm0,0v1.25H414.31v-1.25Zm0,0v1.25H414.31v-1.25Zm0,0v1.25H414.31v-1.25Zm0,0v1.25H414.31v-1.25Zm-107-74v75.27H415.56V518.41Zm211.47,74H204.09V519.67H414.31Zm-104.48,0v1.25H414.31v-1.25Zm0,0v1.25H414.31v-1.25Zm0,0v1.25H414.31v-1.25Zm0,0v1.25H414.31v-1.25Zm0,0v1.25H414.31v-1.25Zm0,0v1.25H414.31v-1.25Z"/><path class="cls-2" d="M414.31,518.41v75.27H627V518.41Zm211.46,74H415.56V519.67H625.77Z"/><path class="cls-2" d="M627,592.43V519.67h-1.26v74H731.51v-1.25Zm0,0V519.67h-1.26v74H731.51v-1.25Zm0,0V519.67h-1.26v74H731.51v-1.25Zm0,0V519.67h-1.26v74H731.51v-1.25Zm0,0V519.67h-1.26v74H731.51v-1.25Zm0,0V519.67h-1.26v74H731.51v-1.25Zm0,0V519.67h-1.26v74H731.51v-1.25Zm0,0V519.67h-1.26v74H731.51v-1.25Zm0,0V519.67h-1.26v74H731.51v-1.25Zm0,0V519.67h-1.26v74H731.51v-1.25Zm0,0V519.67h-1.26v74H731.51v-1.25Zm0,0V519.67h-1.26v74H731.51v-1.25Zm-1.26-74v75.27H838.5V518.41Zm211.47,74H627V519.67H837.24Zm-210.21,0V519.67h-1.26v74H731.51v-1.25Zm0,0V519.67h-1.26v74H731.51v-1.25Zm0,0V519.67h-1.26v74H731.51v-1.25Zm0,0V519.67h-1.26v74H731.51v-1.25Zm0,0V519.67h-1.26v74H731.51v-1.25Zm0,0V519.67h-1.26v74H731.51v-1.25Zm0,0V519.67h-1.26v74H731.51v-1.25Zm0,0V519.67h-1.26v74H731.51v-1.25Zm0,0V519.67h-1.26v74H731.51v-1.25Zm0,0V519.67h-1.26v74H731.51v-1.25Zm0,0V519.67h-1.26v74H731.51v-1.25Zm-1.26-72.76v72.76H627V519.67Z"/><path class="cls-2" d="M0,592.43V667.7H98.36V592.43Zm97.1,74H.63V593.68H97.11Z"/><path class="cls-2" d="M204.09,592.43v1.25H308.58v72.76h1.25v-74Zm0,0v1.25H308.58v72.76h1.25v-74Zm0,0v1.25H308.58v72.76h1.25v-74Zm0,0v1.25H308.58v72.76h1.25v-74Zm0,0v1.25H308.58v72.76h1.25v-74Zm0,0v1.25H308.58v72.76h1.25v-74Zm0,0v1.25H308.58v72.76h1.25v-74Zm0,0v1.25H308.58v72.76h1.25v-74Zm0,0v1.25H308.58v72.76h1.25v-74Zm0,0v1.25H308.58v72.76h1.25v-74Zm0,0v1.25H308.58v72.76h1.25v-74Zm0,0v1.25H308.58v72.76h1.25v-74Zm-107,0V667.7H309.83V592.43Zm211.47,74H98.36V593.68H308.58Zm-104.49-74v1.25H308.58v72.76h1.25v-74Zm0,0v1.25H308.58v72.76h1.25v-74Zm0,0v1.25H308.58v72.76h1.25v-74Zm0,0v1.25H308.58v72.76h1.25v-74Zm0,0v1.25H308.58v72.76h1.25v-74Zm0,0v1.25H309.83v-1.25Zm0,0v1.25H308.58v72.76h1.25v-74Zm0,0v1.25H308.58v72.76h1.25v-74Zm0,0v1.25H308.58v72.76h1.25v-74Zm0,0v1.25H308.58v72.76h1.25v-74Zm0,0v1.25H308.58v72.76h1.25v-74Zm104.49,1.25v72.76h1.25V593.68Z"/><path class="cls-2" d="M415.56,592.43v1.25H520v-1.25Zm0,0v1.25H520v-1.25Zm0,0v1.25H520v-1.25Zm0,0v1.25H520v-1.25Zm0,0v1.25H520v-1.25Zm0,0v1.25H520v-1.25Zm-105.73,0v1.25H520v-1.25Zm0,0v1.25H520v-1.25Zm0,0v1.25H520v-1.25Zm0,0v1.25H520v-1.25Zm0,0v1.25H520v-1.25Zm0,0v1.25H520v-1.25Zm-1.25,0V667.7H521.29V592.43Zm211.46,74H309.83V593.68H520Zm-210.21-74v1.25H520v-1.25Zm0,0v1.25H520v-1.25Zm0,0v1.25H520v-1.25Zm0,0v1.25H520v-1.25Zm0,0v1.25H520v-1.25Zm0,0v1.25H520v-1.25Zm105.73,0v1.25H520v-1.25Zm0,0v1.25H520v-1.25Zm0,0v1.25H520v-1.25Zm0,0v1.25H520v-1.25Zm0,0v1.25H520v-1.25Zm0,0v1.25H520v-1.25Z"/><path class="cls-2" d="M520,592.43v74h1.25V593.68H625.77v-1.25Zm1.25,0v1.25H625.77v-1.25Zm-1.25,0V667.7H732.77V592.43Zm211.47,74H521.29V593.68H731.51Zm-210.22-74v1.25H625.77v-1.25Z"/><path class="cls-2" d="M202.84,667.7v68.82l1.25-.14V667.7Zm0,0v68.82l1.25-.14V667.7Zm0,0v68.82l1.25-.14V667.7Zm0,0v68.82l1.25-.14V667.7Zm0,0v68.82l1.25-.14V667.7Zm0,0v68.82l1.25-.14V667.7Zm0,0v68.82l1.25-.14V667.7ZM0,666.44v75.28H204.09V666.44Zm202.83,74H.63V667.7H202.84Zm0-72.76v68.82l1.25-.14V667.7Zm0,0v68.82l1.25-.14V667.7Zm0,0v68.82l1.25-.14V667.7Zm0,0v68.82l1.25-.14V667.7Zm0,0v68.82l1.25-.14V667.7Zm0,0v68.82l1.25-.14V667.7Z"/><path class="cls-2" d="M309.83,666.44v1.26H414.31v-1.26Zm0,0v1.26H414.31v-1.26Zm0,0v1.26H414.31v-1.26Zm0,0v1.26H414.31v-1.26Zm0,0v1.26H414.31v-1.26Zm0,0v1.26H414.31v-1.26Zm0,0v1.26H414.31v-1.26Zm-105.74,0v1.26H414.31v-1.26Zm0,0v1.26H414.31v-1.26Zm0,0v1.26H414.31v-1.26Zm0,0v1.26H414.31v-1.26Zm0,0v1.26H414.31v-1.26Zm0,0v1.26H414.31v-1.26Zm-1.25,0v75.28H415.56V666.44Zm211.47,74H204.09V667.7H414.31Zm-210.22-74v1.26H414.31v-1.26Zm0,0v1.26H414.31v-1.26Zm0,0v1.26H414.31v-1.26Zm0,0v1.26H414.31v-1.26Zm0,0v1.26H414.31v-1.26Zm0,0v1.26H414.31v-1.26Zm105.74,0v1.26H414.31v-1.26Zm0,0v1.26H414.31v-1.26Zm0,0v1.26H414.31v-1.26Zm0,0v1.26H414.31v-1.26Zm0,0v1.26H414.31v-1.26Zm0,0v1.26H414.31v-1.26Z"/><path class="cls-2" d="M414.31,666.44v75.28H627V666.44Zm211.46,74H415.56V667.7H625.77Z"/><path class="cls-2" d="M627,666.44v1.26H731.51v-1.26Zm0,0v1.26H731.51v-1.26Zm0,0v1.26H731.51v-1.26Zm0,0v1.26H731.51v-1.26Zm0,0v1.26H731.51v-1.26Zm0,0v1.26H731.51v-1.26Zm0,0v1.26H731.51v-1.26Zm0,0v1.26H731.51v-1.26Zm0,0v1.26H731.51v-1.26Zm0,0v1.26H731.51v-1.26Zm0,0v1.26H731.51v-1.26Zm-1.26,0v75.28H838.5V666.44Zm211.47,74H627V667.7H837.24ZM627,666.44v1.26H731.51v-1.26Zm0,0v1.26H731.51v-1.26Zm0,0v1.26H731.51v-1.26Zm0,0v1.26H731.51v-1.26Zm0,0v1.26H731.51v-1.26Zm0,0v1.26H731.51v-1.26Zm0,0v1.26H731.51v-1.26Zm0,0v1.26H731.51v-1.26Zm0,0v1.26H731.51v-1.26Zm0,0v1.26H731.51v-1.26Zm0,0v1.26H731.51v-1.26Z"/></g></svg>