<svg id="Layer_1" data-name="Layer 1" xmlns="http://www.w3.org/2000/svg" viewBox="0 0 26.77 26.81"><defs><style>.cls-1{fill:none;}.cls-2{fill:#059391;}</style></defs><rect class="cls-1" x="0.54" y="6.62" width="318.47" height="285.2" rx="62.31"/><rect class="cls-1" x="0.54" y="6.62" width="315.37" height="282.15" rx="58.74"/><path class="cls-2" d="M23.84,5.12A12.87,12.87,0,0,0,15.2.18,12.9,12.9,0,0,0,5.11,2.93a13.13,13.13,0,0,0-5,8.64c0,.32-.09.64-.13.95v1.77c.05.38.1.76.16,1.13a13.13,13.13,0,0,0,4.4,8,13.22,13.22,0,0,0,7,3.21l.95.12h1.77l1.13-.16a13.15,13.15,0,0,0,8-4.41,12.83,12.83,0,0,0,3.19-7A13,13,0,0,0,23.84,5.12ZM13.39,24.33A10.92,10.92,0,1,1,24.31,13.42,10.94,10.94,0,0,1,13.39,24.33Z"/><path class="cls-2" d="M19.32,8.33a1.28,1.28,0,0,0-1,.45l-6.55,6.55-.23.28-.19-.27-2.8-2.8a1.87,1.87,0,0,0-.3-.26,1.21,1.21,0,0,0-1.49,1.91L10.53,18a1.25,1.25,0,0,0,2,0L20,10.55a2.7,2.7,0,0,0,.28-.31A1.17,1.17,0,0,0,20.35,9,1.15,1.15,0,0,0,19.32,8.33Z"/></svg>