<svg id="Layer_1" data-name="Layer 1" xmlns="http://www.w3.org/2000/svg" viewBox="0 0 30.52 30.52"><defs><style>.cls-1{fill:none;}.cls-2{fill:#fff;}</style></defs><rect class="cls-1" x="0.56" y="6.62" width="318.47" height="285.2" rx="62.31"/><rect class="cls-1" x="0.56" y="6.62" width="315.37" height="282.15" rx="58.74"/><path class="cls-2" d="M30.46,21.62a1.7,1.7,0,0,0-3.34.5v1.51a3.37,3.37,0,0,1-3.47,3.49H6.86A3.37,3.37,0,0,1,3.4,23.65c0-.54,0-1.09,0-1.63A1.68,1.68,0,0,0,2,20.37,1.68,1.68,0,0,0,.11,21.49L0,21.7v2.68c.08.39.14.78.25,1.16A6.77,6.77,0,0,0,6,30.46a1.52,1.52,0,0,1,.2.06H24.38c.38-.09.77-.15,1.15-.25a6.77,6.77,0,0,0,4.93-5.69,1.17,1.17,0,0,1,.05-.2V21.76A.78.78,0,0,1,30.46,21.62Z"/><path class="cls-2" d="M13.92,23.1a1.72,1.72,0,0,0,2.69,0c.92-.93,1.85-1.86,2.78-2.78q1.88-1.89,3.77-3.77a1.71,1.71,0,0,0,.53-1.65,1.56,1.56,0,0,0-1.18-1.25,1.6,1.6,0,0,0-1.69.45l-3.58,3.58a.87.87,0,0,0-.14.29L17,17.86V2a3.85,3.85,0,0,0,0-.48,1.59,1.59,0,0,0-1-1.4,1.61,1.61,0,0,0-1.75.29,1.78,1.78,0,0,0-.58,1.47v16l-.11.05c-.06-.08-.12-.18-.19-.26L9.71,14.09a1.7,1.7,0,1,0-2.34,2.46Z"/></svg>