<svg id="Layer_1" data-name="Layer 1" xmlns="http://www.w3.org/2000/svg" viewBox="0 0 163.8 163.89"><defs><style>.cls-1{fill:none;}.cls-2{fill:#059391;}.cls-3{fill:#676767;}</style></defs><rect class="cls-1" x="0.44" y="6.58" width="318.47" height="285.2" rx="62.31"/><rect class="cls-1" x="0.44" y="6.58" width="315.37" height="282.15" rx="58.74"/><path class="cls-2" d="M162.38,54.28c-2.62-5.36-7-8.26-12.93-8.37-6.81-.13-13.63-.06-20.45,0a1.7,1.7,0,0,1-1.47-.54,65.69,65.69,0,0,1,2.22,10.15h.13v0c6.71,0,13.25-.06,19.79,0A4.69,4.69,0,0,1,154.12,60c0,.37,0,.74,0,1.12v88.4c-.54-.32-.93-.53-1.29-.79-4-2.87-7.95-5.72-11.88-8.64a7.4,7.4,0,0,0-4.59-1.49c-22.21,0-44.41-.07-66.62.09-5.45,0-7.36-2.69-6.58-7.84a68,68,0,0,1-9.62-.69,35.94,35.94,0,0,0,0,5.49,14.25,14.25,0,0,0,14.55,12.55q26.67,0,53.35,0c4.31,0,8.62,0,12.93,0a4.62,4.62,0,0,1,2.46.81c6,4.29,12,8.66,18,13,.89.65,1.84,1.22,2.76,1.82h2.56a7.24,7.24,0,0,0,3.52-3.51v-102A32.2,32.2,0,0,0,162.38,54.28Z"/><path class="cls-3" d="M65.54,36.93c-2.84,0-4.73,2.21-4.73,5.47q0,11.51,0,23c0,7.72,0,15.43,0,23.15a5,5,0,0,0,1.6,4,4.48,4.48,0,0,0,5.18.82,4.83,4.83,0,0,0,2.82-4.78q0-23.07,0-46.13C70.39,39.1,68.44,36.9,65.54,36.93Z"/><path class="cls-3" d="M27.27,47.2c-2.81,0-4.82,2.22-4.82,5.41q0,12.78,0,25.56c0,3.18,2,5.42,4.85,5.38S32,81.31,32,78.21c0-4.31,0-8.62,0-12.93V52.66C32,49.44,30.08,47.22,27.27,47.2Z"/><path class="cls-3" d="M103.92,47.2c-2.76,0-4.75,2.23-4.76,5.31,0,4.26,0,8.52,0,12.78s0,8.62,0,12.94c0,3.08,2,5.29,4.75,5.32s4.83-2.18,4.83-5.23q0-12.94,0-25.88C108.74,49.39,106.67,47.17,103.92,47.2Z"/><path class="cls-3" d="M51.2,59.73a4.78,4.78,0,1,0-9.56,0q-.06,5.6,0,11.18a4.79,4.79,0,1,0,9.57,0c0-1.81,0-3.62,0-5.43S51.25,61.64,51.2,59.73Z"/><path class="cls-3" d="M89.56,59.73a4.78,4.78,0,1,0-9.56,0q-.07,5.6,0,11.18a4.79,4.79,0,1,0,9.57,0c0-1.81,0-3.62,0-5.43S89.6,61.64,89.56,59.73Z"/><path class="cls-3" d="M129.88,55.51h-.13a65.69,65.69,0,0,0-2.22-10.15,2.84,2.84,0,0,1-.44-.82C118.39,21,101.79,6.38,77.2,1.29,49.86-4.36,20.62,10,7.66,34.92A64.81,64.81,0,0,0,.33,60a4.19,4.19,0,0,1-.26.9v9.27c.52,3.13.94,6.29,1.58,9.4A63.58,63.58,0,0,0,9.54,99.32a2.84,2.84,0,0,1,.35,2.14c-.27.74-.54,1.47-.8,2.2-2.86,7.86-5.78,15.7-8.68,23.54a2.33,2.33,0,0,1-.34.5v2.56c2.17,3.66,3.77,4.2,7.91,2.68Q20.5,128.31,33,123.72l.38-.14a3.14,3.14,0,0,1,2.22,0,67.71,67.71,0,0,0,17,5.83,7.63,7.63,0,0,1,.93.35c0,.12,0,.24,0,.36a68,68,0,0,0,9.62.69s0-.08,0-.12c2,0,4,0,5.89-.16l1.33-.09A63.32,63.32,0,0,0,114,108.65C127.48,93.54,132.39,75.66,129.88,55.51ZM72.47,120.6a54.63,54.63,0,0,1-34.06-6.5,6.47,6.47,0,0,0-5.92-.47q-4.89,1.88-9.83,3.68l-7.81,2.87c-.48.18-1,.34-1.84.63,1.13-3.06,2.18-6,3.25-9s2-5.53,3.15-8.24a8,8,0,0,0-.87-8.16c-19-29.27-6.17-69,26.41-81.8a55.71,55.71,0,0,1,74.91,40.62C126.34,85.8,104.36,116.6,72.47,120.6Z"/></svg>