<svg id="Layer_1" data-name="Layer 1" xmlns="http://www.w3.org/2000/svg" viewBox="0 0 170.68 151.96"><defs><style>.cls-1{fill:none;}.cls-2{fill:#059391;}.cls-3{fill:#676767;}</style></defs><rect class="cls-1" x="0.5" y="6.58" width="318.47" height="285.2" rx="62.31"/><rect class="cls-1" x="0.5" y="6.58" width="315.37" height="282.15" rx="58.74"/><path class="cls-2" d="M154.54,59.35H92.89v10h61.74c4.11,0,6,1.88,6,6v60.58c0,4.12-1.88,6-6,6H73.22c-3.92,0-5.86-1.92-5.86-5.79V92.65h-10v1.94q0,20.73,0,41.46c0,9.51,6.36,15.88,15.86,15.88h81.42c9.61,0,15.94-6.33,15.94-16q0-30.3,0-60.6C170.59,65.63,164.29,59.35,154.54,59.35Z"/><path class="cls-2" d="M111.26,116.25q12.28-7.14,24.54-14.34c4.25-2.5,4.26-6.93,0-9.43Q123.41,85.19,111,78c-4.07-2.36-8-.08-8,4.65s0,9.76,0,14.64v14.15C103,116.59,106.81,118.84,111.26,116.25Zm1.82-25.49,11,6.43-11,6.43Z"/><path class="cls-2" d="M78.84,132.28c2.5,0,5,0,7.5,0a1.62,1.62,0,0,1,1.87,1.12,4.49,4.49,0,0,0,4.49,2.84,4.43,4.43,0,0,0,4.38-2.76,1.75,1.75,0,0,1,2-1.21c8.33,0,16.65,0,25,0s16.65,0,25,0c3.28,0,5.38-2,5.34-5.06s-2.12-4.91-5.49-4.91q-24.81,0-49.62,0c-1.09,0-1.76-.16-2.25-1.35a4.37,4.37,0,0,0-4.45-2.62,4.47,4.47,0,0,0-4.34,2.83,1.62,1.62,0,0,1-1.86,1.14c-2.5,0-5,0-7.49,0-3.1,0-5.31,2.12-5.32,5A5,5,0,0,0,78.84,132.28Z"/><path class="cls-3" d="M67.36,92.65H86.67a9.39,9.39,0,0,0,2-.12,5,5,0,0,0,4-5.2c0-5.33,0-10.65,0-16v-2h.22v-10h-.22V6.44C92.67,1.77,91,.07,86.22.07,59.69.07,33.16.11,6.63,0,3.58,0,1.39.94.09,3.74V89a6,6,0,0,0,5.47,3.66H18.22c12.34,0,24.69,0,37,0H67.36ZM10.21,10.15H82.6V52l-5.51-7.62c-.62-.86-1.23-1.72-1.86-2.56-2.41-3.25-6.23-3.25-8.61,0-3,4.08-5.91,8.19-8.86,12.28-.38.53-.78,1-1.25,1.69L48,44.07c-2.92-4-5.82-8.11-8.76-12.14-2.52-3.45-6.3-3.43-8.81,0Q20.92,45.19,11.38,58.42c-.32.44-.66.87-1.17,1.55ZM38,81.47a2.72,2.72,0,0,1-1.78,1.14c-8.49.07-17,0-25.46,0a4,4,0,0,1-.65-.13c0-1.55,0-3,0-4.43a2.6,2.6,0,0,1,.42-1.37C18.58,65.51,26.66,54.32,34.82,43a11.39,11.39,0,0,1,.86,1c4.58,6.33,9.13,12.7,13.76,19a1.89,1.89,0,0,1,0,2.7C45.55,70.94,41.81,76.24,38,81.47Zm11.54,1.12c7.2-10,14.25-19.74,21.4-29.66.8,1.09,1.52,2.06,2.23,3C76,60,79,64,81.78,68a5.24,5.24,0,0,1,.86,2.72c.09,3.92,0,7.85,0,11.87Z"/></svg>