<svg id="Layer_1" data-name="Layer 1" xmlns="http://www.w3.org/2000/svg" viewBox="0 0 125.35 168.08"><defs><style>.cls-1{fill:none;}.cls-2{fill:#059391;}.cls-3{fill:#676767;}</style></defs><rect class="cls-1" x="0.52" y="6.61" width="318.47" height="285.2" rx="62.31"/><rect class="cls-1" x="0.52" y="6.61" width="315.37" height="282.15" rx="58.74"/><path class="cls-2" d="M125.25,145.69c0-11.92,0-23.84,0-35.76,0-8.86-6.28-15.47-14.81-15.46-2.34,0-4.67.74-7.16,1.17A14.82,14.82,0,0,0,94.76,89a15,15,0,0,0-11.12.94C79.26,83.23,73.24,81,65.51,83c0-1.88,0-3.63,0-5.37a2.07,2.07,0,0,1,0-.57V63.41l-.09.09c0-.72.08-1.42.09-2.11v-.11c0-.16,0-.32,0-.48l-.1-1.9a14.78,14.78,0,0,0-4.78-10.14,14.34,14.34,0,0,0-10-3.89,14.53,14.53,0,0,0-11.8,5.75,14.81,14.81,0,0,0-3.11,8.78v3.34c0,.24,0,.48,0,.72a.08.08,0,0,1,0,0V80.79h0c0,3.74,0,7.48,0,11.22a9.53,9.53,0,0,1-.16,1.15H31.22c-9.25,0-15.51,6.3-15.53,15.57,0,7.22,0,14.43,0,21.65a9.62,9.62,0,0,0,.92,3.91c4.81,9.8,9.73,19.55,14.56,29.34a8.77,8.77,0,0,0,3.89,4.4h86.3c2.91-1.09,4-3.25,3.89-6.28C125.17,156.4,125.25,151,125.25,145.69Zm-9.85,11.65c0,.21-.05.42-.1.86h-1.76q-36.18,0-72.35,0a2.32,2.32,0,0,1-2.46-1.54c-4.15-8.43-8.37-16.82-12.52-25.24a6.23,6.23,0,0,1-.65-2.64c-.06-6.72,0-13.45,0-20.18,0-3.7,1.95-5.6,5.69-5.62,1.42,0,2.84,0,4.51,0v14.12c0,3.79,1.85,6,5,6s4.88-2.22,4.88-5.92V60.26c0-2.83,1.45-4.86,3.82-5.41a5,5,0,0,1,6.23,4.8c.1,1.53,0,3.06,0,4.6q0,21.24,0,42.49c0,2.34.68,4.21,2.89,5.24,3.25,1.52,6.76-.73,6.94-4.49.11-2.4,0-4.81,0-7.22,0-1.09,0-2.19,0-3.28a5,5,0,0,1,4.94-4.9,4.93,4.93,0,0,1,5,5c.06,5.42,0,10.83,0,16.25,0,3.85,3.54,6.28,6.86,4.81a4.73,4.73,0,0,0,3-4.68c0-3.34,0-6.68,0-10,.08-3.89,3.66-6.35,7-4.83a5,5,0,0,1,3.06,5c0,6.29,0,12.58,0,18.87,0,3.76,3.39,6.16,6.71,4.86a5,5,0,0,0,3.12-4.77c0-4.26,0-8.53,0-12.79,0-3.23,2.11-5.49,5-5.49a5,5,0,0,1,5,5.35Q115.44,133.47,115.4,157.34Z"/><path d="M65.53,61.28v0Z"/><path d="M65.52,60.8c0-.64,0-1.28-.1-1.9Z"/><path class="cls-3" d="M100.78,45.61C98.33,19.86,76.42,0,48.83,0A47.63,47.63,0,0,0,22.72,8.5C8.15,18.51.66,32.47.07,50.13a4.92,4.92,0,0,0,4.75,5.39c2.92.09,4.92-2,5.09-5.2.11-2,.23-3.93.52-5.87C13,26.94,26.62,13.33,44.5,10.32c16.62-2.81,34.07,6.05,42.05,21.37a40.91,40.91,0,0,1,4.67,18.74,4.91,4.91,0,1,0,9.82-.07C101,48.77,100.93,47.19,100.78,45.61Z"/><path class="cls-3" d="M44.54,21.58c-12.62,2.9-20.43,11-23.1,23.61C18.94,57,24.31,68.91,34.7,75.79a2.54,2.54,0,0,1,1,1.78c0,1.07,0,2.15,0,3.22h0V63.42c-5.08-4.63-7.92-16.67-.27-25.63a19.7,19.7,0,0,1,28.76-1.53c8.69,8.32,7.21,20.85,1.3,27.15V77a2.1,2.1,0,0,1,1-1.39A29.16,29.16,0,0,0,80.16,52.32C81.54,33.09,63.32,17.26,44.54,21.58Z"/><path d="M35.74,62.74V59.4A31,31,0,0,0,35.74,62.74Z"/></svg>