<svg id="Layer_1" data-name="Layer 1" xmlns="http://www.w3.org/2000/svg" viewBox="0 0 217.99 250.31"><defs><style>.cls-1,.cls-3,.cls-8{fill:none;}.cls-2{fill:#dadaee;}.cls-3{stroke:#090709;}.cls-3,.cls-8{stroke-linecap:round;stroke-linejoin:round;}.cls-4{fill:#090709;}.cls-5{fill:#6d5fa9;}.cls-6{fill:#fff;}.cls-7{fill:#9894c8;}.cls-8{stroke:#fff;}.cls-9{fill:#f598a8;}.cls-10{fill:#c25150;}.cls-11{fill:#f69320;}.cls-12{fill:#fed090;}</style></defs><rect class="cls-1" x="0.31" y="3.49" width="318.47" height="285.2" rx="62.31"/><rect class="cls-1" x="0.31" y="3.49" width="315.37" height="282.15" rx="58.74"/><path class="cls-2" d="M116.44,31.2c8.8-1.67,17.71-3.05,26.67-2.9s18,1.9,25.89,6.17c9.06,4.91,16.31,12.83,22.54,21a68,68,0,0,1,13.54,45.92c-1.41,18.18-10.21,35.16-21.77,49.25S157.45,178,143.1,189.27a37.29,37.29,0,0,1-30.39,7c-10.5-2.25-22.29-8.6-24.23-19.16a39.57,39.57,0,0,0-18.37-26.45c-7.36-4.39-17-6-24.83-9.63-14.29-6.6-23.39-21.91-25-37.56S23.55,72,31.5,58.44c8.14-13.92,20.35-25.31,35.77-30S102,24.06,116.44,31.2Z"/><polygon class="cls-3" points="184.12 65.82 180.94 71.33 187.3 71.33 184.12 65.82"/><polygon class="cls-4" points="25.4 118.22 19.89 115.04 19.89 121.4 25.4 118.22"/><polygon class="cls-5" points="197.83 163.51 201.01 158 194.65 158 197.83 163.51"/><path class="cls-4" d="M192.81,84.54a.89.89,0,1,0-.89.88A.88.88,0,0,0,192.81,84.54Z"/><path class="cls-3" d="M182,164.78a.89.89,0,1,0-.89.89A.88.88,0,0,0,182,164.78Z"/><path class="cls-5" d="M83.6,127a.88.88,0,1,0-.88.88A.88.88,0,0,0,83.6,127Z"/><path class="cls-5" d="M51.47,155.2a.89.89,0,1,0-.88.88A.89.89,0,0,0,51.47,155.2Z"/><path class="cls-5" d="M172.57,179.47a.89.89,0,1,0-.88.89A.89.89,0,0,0,172.57,179.47Z"/><path class="cls-5" d="M206.65,68.86a.88.88,0,1,0-.88.88A.88.88,0,0,0,206.65,68.86Z"/><path class="cls-4" d="M173.45,135.58a.88.88,0,1,0-.88.89A.87.87,0,0,0,173.45,135.58Z"/><path class="cls-3" d="M74.14,98.78a.88.88,0,1,0-.88.89A.87.87,0,0,0,74.14,98.78Z"/><path class="cls-3" d="M2.31,90.07a.89.89,0,1,0-.89.88A.88.88,0,0,0,2.31,90.07Z"/><path class="cls-4" d="M75.62,133.47a.89.89,0,1,0-.89.89A.89.89,0,0,0,75.62,133.47Z"/><path class="cls-5" d="M58.39,160.76a.89.89,0,1,0-.88.88A.89.89,0,0,0,58.39,160.76Z"/><rect class="cls-6" x="20.08" y="0.01" width="118.87" height="78.01"/><rect class="cls-7" x="20.08" y="0.01" width="118.87" height="10.97"/><circle class="cls-5" cx="26.12" cy="5.5" r="1.64"/><circle class="cls-5" cx="33.03" cy="5.5" r="1.64"/><path class="cls-5" d="M41.58,5.5a1.64,1.64,0,1,0-1.64,1.63A1.63,1.63,0,0,0,41.58,5.5Z"/><line class="cls-3" x1="135.88" y1="4.08" x2="45.26" y2="4.08"/><line class="cls-3" x1="135.88" y1="6.92" x2="45.26" y2="6.92"/><path class="cls-7" d="M55.28,101.11l-16.71,9.3-16.71-9.3A26.7,26.7,0,0,1,8.15,77.78V38.2L38.57,26.72,69,38.2V77.78A26.7,26.7,0,0,1,55.28,101.11Z"/><path class="cls-5" d="M52.49,95.68l-13.92,7.75L24.65,95.68A22.25,22.25,0,0,1,13.23,76.24V42.09l25.34-9.56,25.34,9.56V76.24A22.25,22.25,0,0,1,52.49,95.68Z"/><path class="cls-3" d="M55.27,98.54A21,21,0,0,0,67,80"/><path class="cls-8" d="M10.67,39.25,33.8,30.13"/><line class="cls-3" x1="38.57" y1="26.72" x2="38.57" y2="110.41"/><circle class="cls-6" cx="38.57" cy="69.99" r="20.53" transform="translate(-15.26 10.92) rotate(-13.48)"/><polygon class="cls-9" points="38.01 85.31 21.89 66.25 27.5 61.51 37.22 73.01 51.83 50.39 58 54.37 38.01 85.31"/><polygon class="cls-5" points="178.4 22.91 114.17 22.91 114.17 37.19 165.2 37.19 167.79 41.67 170.37 37.19 178.4 37.19 178.4 22.91"/><polygon class="cls-6" points="122.53 33.66 118.97 29.45 120.21 28.4 122.35 30.94 125.58 25.95 126.94 26.83 122.53 33.66"/><line class="cls-3" x1="174.44" y1="27.21" x2="130.92" y2="27.21"/><line class="cls-3" x1="174.44" y1="30.05" x2="130.92" y2="30.05"/><line class="cls-3" x1="174.44" y1="32.89" x2="130.92" y2="32.89"/><polygon class="cls-6" points="147.53 46.75 211.76 46.75 211.76 61.03 160.73 61.03 158.15 65.51 155.56 61.03 147.53 61.03 147.53 46.75"/><polygon class="cls-5" points="202.02 57.5 198.46 53.29 199.7 52.24 201.85 54.78 205.07 49.79 206.43 50.67 202.02 57.5"/><line class="cls-3" x1="194.33" y1="51.04" x2="150.81" y2="51.04"/><line class="cls-3" x1="194.33" y1="53.88" x2="150.81" y2="53.88"/><line class="cls-3" x1="194.33" y1="56.72" x2="150.81" y2="56.72"/><ellipse class="cls-7" cx="116.75" cy="246.16" rx="64.76" ry="4.14"/><path class="cls-4" d="M160.12,242.05c-3.33-3.47-3.33-9-1.26-13.32-9.37.22-18.14.88-27.51,1.1l.48,15.39,32.48.94C164.31,243.94,161.31,243.28,160.12,242.05Z"/><path class="cls-8" d="M147.1,234.18l7.06-.2"/><path class="cls-8" d="M147.51,236.13l7.62,0"/><path class="cls-8" d="M148.2,238.37l7.34.08"/><path class="cls-4" d="M93.76,241.61c-2.75-1.74-4-5.29-4.66-8.46a12.49,12.49,0,0,1,1-8.15c-9-2.25-17.82-4.25-26.85-6.5q-1.29,9-2.57,17.92c4.67,2.9,9.35,6,14,8.86l22.89.08C98,243,95.29,242.58,93.76,241.61Z"/><path class="cls-8" d="M78.12,230.66l7.06-.15"/><path class="cls-8" d="M77.7,232.77l8.18.19"/><path class="cls-8" d="M78.53,235l8.73.24"/><path class="cls-5" d="M157.16,113.83l-56.08,4.28L86.53,166.72C77.8,181,66.44,200.45,61.27,219.58c10.41,3.25,20.8,6.23,31.21,9.48,6.78-14.27,13.84-28.51,20.62-42.77,4.79-10.08,9.57-19.85,14.28-30,1.2,8.46,1.83,17,3,25.48-.43,17.52-.93,32.86-1.51,49.41,10.66.17,21.67-.41,32.33-.24.07-17.24.08-34.46.15-51.7C161.47,157.49,158.51,135.57,157.16,113.83Z"/><path class="cls-3" d="M127.3,156.66l3.3-9.24"/><path class="cls-3" d="M103.39,125.85q-5.92,20.37-11.84,40.75c.64-.1.68.77.71,1.42a2.09,2.09,0,0,1-.89,1.63,3.37,3.37,0,0,1-2.47.66,227.22,227.22,0,0,0-22.24,43.56"/><path class="cls-3" d="M63.65,213.26,94.7,223.58"/><path class="cls-3" d="M129.92,225l30.6-1"/><path class="cls-3" d="M129.18,151.64,134,179.56c-.76,1.34-.93,3.36.19,4.41-.55,13.58-1.22,27-1.77,40.6"/><path class="cls-10" d="M174.72,81.87c5.2,3.5,10.12,14,8,20.73s-7.55,9.3-12.47,10.48-16.69-3.62-16.69-3.62l-4-14.39,13.14-12.39Z"/><path class="cls-6" d="M166.35,87.67c-2.89-3.08-4.82-6.88-7.91-9.76-5.72-5.32-13.64-7.48-21.46-7.58-3.85,0-7.64-.23-11.5-.28a2.86,2.86,0,0,1-1.68,2.17,3.31,3.31,0,0,1-2.77-.07,4,4,0,0,1-1.88-2.1L109,74c-7.78,3-14.73,8.35-18.77,15.66,4.46,1.78,8.69,3.87,13.16,5.64-.82,7.76-1.71,15.56-2.53,23.32l55.73,1.66a126.69,126.69,0,0,0-4-24.64C157.13,93,161.75,90.36,166.35,87.67Z"/><path class="cls-3" d="M114.73,72.2a8.92,8.92,0,0,0,16.18-1.62"/><path class="cls-3" d="M106.71,75.49a4.87,4.87,0,0,1,5.45.61,7.63,7.63,0,0,1,2.52,5.12,19.24,19.24,0,0,1-.45,5.8,80.77,80.77,0,0,1-2.37,9.21"/><path class="cls-3" d="M141.52,70.89A88.49,88.49,0,0,0,147.79,85l5.31,10.24"/><path class="cls-10" d="M122.29,138.71s9.12,4.63,16.18,6l10.19-4.22L151,136.9l-21-7.68-10.92,4.25Z"/><path class="cls-3" d="M139.31,141.52l9.27-3"/><path class="cls-11" d="M167.38,101.57l-6-.5a15.36,15.36,0,0,0-.17-4,15.17,15.17,0,1,0-28.61,9.2l-5.47,2.59a20.9,20.9,0,0,1-1.72-5.28A21.22,21.22,0,1,1,167.13,96,20.92,20.92,0,0,1,167.38,101.57Z"/><path class="cls-8" d="M128,92.1a17.73,17.73,0,0,1,12.31-11.24"/><path class="cls-12" d="M122.38,106.78a66.06,66.06,0,0,0,1,10.67,25.64,25.64,0,1,0,50.45-9.17,65.91,65.91,0,0,0-2.79-10.35Z"/><path class="cls-4" d="M153.75,112.4a5.12,5.12,0,1,0-5.67,6l.06,11,6.76-1.23-3.82-10.33A5.1,5.1,0,0,0,153.75,112.4Z"/><path class="cls-3" d="M142.57,113.42a5.83,5.83,0,0,1,4.31-6.11"/><path class="cls-3" d="M161.48,132.79a24.42,24.42,0,0,0,10.71-19.44"/><path class="cls-3" d="M116.42,57.61l1,.23"/><path class="cls-4" d="M122.72,55.1a6.72,6.72,0,0,0-6.07,9.72l10.91-2.71c.3-1.24.55-2.49.85-3.73A6.88,6.88,0,0,0,122.72,55.1Z"/><path class="cls-10" d="M129,70.83c-.87,0-1.78.06-2.65.06,0-.68,0-1.42,0-2.11a4.45,4.45,0,0,0,2.8-2.12,4.17,4.17,0,0,0,.38-3.44c-.53-1.44-1-3-1.56-4.45A3.39,3.39,0,0,1,125,59.9a4.76,4.76,0,0,1-5.24.82c0,.85,0,1.51,0,2.37a2.63,2.63,0,1,0-.93,5c-.15,1-.42,2-.57,3l-2.15.81a7.48,7.48,0,0,0,6.62,3.31A7.87,7.87,0,0,0,129,70.83Z"/><circle class="cls-4" cx="123.28" cy="63.55" r="0.55"/><circle class="cls-4" cx="127.86" cy="62.02" r="0.55"/><path class="cls-3" d="M126,62.32c.25.56.5,1.13.76,1.69-.2,0-.49.1-.69.12"/><path class="cls-3" d="M125.22,65.07a.68.68,0,0,0,.47.46.66.66,0,0,0,.63-.19"/><path class="cls-3" d="M122.1,62a1.52,1.52,0,0,1,2-.82"/><path class="cls-3" d="M126.75,60.35l.92-.26"/><path class="cls-3" d="M117.85,64.78l1.41,0"/><path class="cls-3" d="M122.52,68.81a7.61,7.61,0,0,0,4.23,0"/><path class="cls-3" d="M118.7,68.16l1-.38"/><path class="cls-10" d="M174.72,81.87c-2.95-1.76-5.78-4-9.19-4.38a129.13,129.13,0,0,0-15-.77.63.63,0,0,0-.18.78c-.49,0-1,.09-1.51.1a1.15,1.15,0,0,0,.33,1.24,3.49,3.49,0,0,0,1.24.68l5.51,2.17c-1.36.23-2.71.26-4.06.49a.88.88,0,0,0,.45.88,2.65,2.65,0,0,0,1,.38l8.64,2,4.12,4.39c1.45,1.55,3.38,2.76,5.48,2.47a5.69,5.69,0,0,0,4.57-3.93C176.75,86.27,176.62,83,174.72,81.87Z"/><path class="cls-3" d="M155.54,81.54l6.44,0"/><path class="cls-3" d="M150.23,77.3,165.31,79"/><path class="cls-3" d="M164.89,88.48a8.58,8.58,0,0,0,8.62,3.75"/><path class="cls-10" d="M129.74,125c-1.9,0-3.34-.25-5.25-.3-6-5.85-12-11.75-18.06-17.59q1.92-5.65,3.82-11.3L92.13,90.07c-1.45,4.44-3.3,9.05-4.53,13.56a18.34,18.34,0,0,0,7.49,20.1c8.87,6.36,17.77,10.62,27.2,15l1.2-2.83c5.75-1.54,11.32-4.29,17.27-4.51a2.26,2.26,0,0,0,2.16-2.2C138.5,127.8,134.37,125.14,129.74,125Z"/><path class="cls-3" d="M132.76,133l-2.42.44"/><path class="cls-3" d="M106.51,107l-2.42.48"/><path class="cls-3" d="M50.23,134.36h0a1.85,1.85,0,0,1-3.51,0h0a1.84,1.84,0,0,0-3.51,0h0a1.84,1.84,0,0,1-3.5,0h0a1.84,1.84,0,0,0-3.51,0h0a1.85,1.85,0,0,1-3.51,0h0a1.84,1.84,0,0,0-3.5,0h0a1.85,1.85,0,0,1-3.51,0h0a1.84,1.84,0,0,0-3.51,0h0a1.84,1.84,0,0,1-3.5,0h0a1.84,1.84,0,0,0-3.51,0"/><path class="cls-3" d="M217.45,121.71h0a1.84,1.84,0,0,1-3.51,0h0a1.84,1.84,0,0,0-3.5,0h0a1.84,1.84,0,0,1-3.51,0h0a1.84,1.84,0,0,0-3.5,0h0a1.84,1.84,0,0,1-3.51,0h0a1.85,1.85,0,0,0-3.51,0h0a1.84,1.84,0,0,1-3.5,0h0a1.85,1.85,0,0,0-3.51,0h0a1.84,1.84,0,0,1-3.51,0h0a1.84,1.84,0,0,0-3.5,0"/><path class="cls-3" d="M116.75,45.65h0a1.84,1.84,0,0,1-3.5,0h0a1.85,1.85,0,0,0-3.51,0h0a1.84,1.84,0,0,1-3.51,0h0a1.84,1.84,0,0,0-3.5,0h0a1.84,1.84,0,0,1-3.51,0h0a1.85,1.85,0,0,0-3.51,0h0a1.84,1.84,0,0,1-3.5,0h0a1.85,1.85,0,0,0-3.51,0h0a1.84,1.84,0,0,1-3.51,0h0a1.84,1.84,0,0,0-3.5,0"/></svg>