<svg xmlns="http://www.w3.org/2000/svg" viewBox="0 0 382.33 226.12"><defs><style>.cls-1{isolation:isolate;}.cls-2{fill:none;}.cls-3{fill:#ebebeb;}.cls-4{fill:#303030;}.cls-5{fill:#fff;}.cls-6{fill:#4cbb81;}.cls-7{mix-blend-mode:color-dodge;opacity:0.3;}</style></defs><g class="cls-1"><g id="Layer_1" data-name="Layer 1"><rect class="cls-2" x="0.31" y="3.51" width="318.47" height="285.2" rx="62.31"/><rect class="cls-2" x="0.31" y="3.51" width="315.37" height="282.15" rx="58.74"/><path class="cls-3" d="M381.84,24.73H320.53a4.52,4.52,0,0,1,0-.52,7.91,7.91,0,0,1,4.7-6.73,8.2,8.2,0,0,1,1.72-.54,3.85,3.85,0,0,1,.49-.08,8.43,8.43,0,0,1,1-.06h0A7.82,7.82,0,0,1,332.67,18a8,8,0,0,1,4.71-7.21,7.76,7.76,0,0,1,1.73-.55l.26-.05a9.44,9.44,0,0,1,1.08-.09h.16a7.91,7.91,0,0,1,3.9,1A12.08,12.08,0,0,1,355.45.61,12.65,12.65,0,0,1,364,9.69a8,8,0,0,1,1.28-.1,8.4,8.4,0,0,1,3.06.57.79.79,0,0,1,0,.13l.21,0a8.5,8.5,0,0,1,5.17,7.8c0,.12,0,.23,0,.35a6.62,6.62,0,0,1,1.6-.2,6.54,6.54,0,0,1,2.62.55c0,.13,0,.26,0,.39l.49-.17A6.53,6.53,0,0,1,381.84,24.73Z"/><path class="cls-4" d="M378.38,19l-.45-.22a6.54,6.54,0,0,0-2.62-.55,6.62,6.62,0,0,0-1.6.2c0-.12,0-.23,0-.35a8.5,8.5,0,0,0-5.17-7.8l-.24-.09a8.4,8.4,0,0,0-3.06-.57,8,8,0,0,0-1.28.1,12.59,12.59,0,0,0-24.6.51l0,.15-.23-.1a8.46,8.46,0,0,0-11.65,6.61c0,.1,0,.2,0,.29l-.45-.21a8.44,8.44,0,0,0-11.74,7.79v.52h66.61v-.52A6.53,6.53,0,0,0,378.38,19Zm-54.69-1.65a7.24,7.24,0,0,1,3.93,1.13l.79.5V18a8,8,0,0,1,.1-1.21,7.45,7.45,0,0,1,7.32-6.17,7.61,7.61,0,0,1,3.64,1l.68.39.1-.77a10.11,10.11,0,0,1,.19-1.1,11.56,11.56,0,0,1,11.27-9,9.94,9.94,0,0,1,1.09,0,11.59,11.59,0,0,1,10.25,9.25l.1.52.52-.1a7,7,0,0,1,1.57-.18,7.43,7.43,0,0,1,7.43,7.42,8,8,0,0,1-.08,1l-.12.88.83-.33a5.49,5.49,0,0,1,7.47,4.59H316.29A7.43,7.43,0,0,1,323.69,17.32Z"/><polygon class="cls-5" points="231.46 115.29 228.12 115 229.54 118.03 230.96 121.06 232.88 118.31 234.79 115.57 231.46 115.29"/><path class="cls-4" d="M231,121.58h0a.53.53,0,0,1-.43-.3l-2.84-6.06a.52.52,0,0,1,0-.51.53.53,0,0,1,.48-.23l3.33.29h0l3.33.28a.53.53,0,0,1,.43.3.53.53,0,0,1,0,.52l-3.83,5.49A.53.53,0,0,1,231,121.58Zm-2-6,2.07,4.42,2.8-4Z"/><polygon class="cls-5" points="357.81 122.49 354.47 122.2 355.89 125.23 357.31 128.26 359.23 125.52 361.14 122.77 357.81 122.49"/><path class="cls-4" d="M357.31,128.78h0a.53.53,0,0,1-.43-.3L354,122.42a.52.52,0,0,1,0-.51.54.54,0,0,1,.48-.23l3.33.29h0l3.33.28a.53.53,0,0,1,.43.3.53.53,0,0,1,0,.52l-3.83,5.49A.53.53,0,0,1,357.31,128.78Zm-2-6,2.07,4.42,2.8-4Z"/><polygon class="cls-5" points="1.22 88.08 0.85 84.75 3.92 86.09 6.98 87.43 4.29 89.42 1.6 91.4 1.22 88.08"/><path class="cls-4" d="M1.6,91.92a.49.49,0,0,1-.21,0,.54.54,0,0,1-.31-.42L.71,88.13h0L.33,84.81a.53.53,0,0,1,.21-.48.51.51,0,0,1,.52,0L7.19,87a.54.54,0,0,1,.31.42.52.52,0,0,1-.21.48l-5.38,4A.52.52,0,0,1,1.6,91.92ZM1.74,88,2,90.45,6,87.55l-4.48-2Z"/><polygon class="cls-5" points="108.09 13.25 107.72 9.93 110.79 11.27 113.85 12.61 111.16 14.59 108.47 16.58 108.09 13.25"/><path class="cls-4" d="M108.47,17.1a.49.49,0,0,1-.21,0,.54.54,0,0,1-.31-.42l-.37-3.33h0L107.2,10a.52.52,0,0,1,.21-.48.54.54,0,0,1,.52-.06l6.13,2.68a.54.54,0,0,1,.31.42.52.52,0,0,1-.21.48l-5.38,4A.6.6,0,0,1,108.47,17.1Zm.14-3.9.27,2.42,3.94-2.9-4.48-2Z"/><path class="cls-5" d="M294.6,76.27a2.35,2.35,0,1,1-2.35-2.34A2.35,2.35,0,0,1,294.6,76.27Z"/><path class="cls-4" d="M292.25,79.13a2.86,2.86,0,1,1,2.87-2.86A2.86,2.86,0,0,1,292.25,79.13Zm0-4.68a1.82,1.82,0,1,0,1.83,1.82A1.82,1.82,0,0,0,292.25,74.45Z"/><path class="cls-5" d="M19.9,120.77a2,2,0,1,1,2,2A2,2,0,0,1,19.9,120.77Z"/><path class="cls-4" d="M21.87,123.26a2.49,2.49,0,1,1,2.48-2.49A2.5,2.5,0,0,1,21.87,123.26Zm0-3.93a1.45,1.45,0,1,0,1.44,1.44A1.45,1.45,0,0,0,21.87,119.33Z"/><path class="cls-5" d="M19.9,126.47a2,2,0,1,1,2,2A2,2,0,0,1,19.9,126.47Z"/><path class="cls-4" d="M21.87,129a2.48,2.48,0,1,1,2.48-2.48A2.49,2.49,0,0,1,21.87,129Zm0-3.92a1.44,1.44,0,1,0,1.44,1.44A1.44,1.44,0,0,0,21.87,125Z"/><path class="cls-5" d="M19.9,132.17a2,2,0,1,1,2,2A2,2,0,0,1,19.9,132.17Z"/><path class="cls-4" d="M21.87,134.65a2.49,2.49,0,1,1,2.48-2.48A2.49,2.49,0,0,1,21.87,134.65Zm0-3.93a1.45,1.45,0,1,0,1.44,1.45A1.45,1.45,0,0,0,21.87,130.72Z"/><circle class="cls-5" cx="21.87" cy="137.86" r="1.96" transform="translate(-116.15 158.7) rotate(-89.57)"/><path class="cls-4" d="M21.87,140.35a2.49,2.49,0,1,1,2.48-2.49A2.5,2.5,0,0,1,21.87,140.35Zm0-3.93a1.44,1.44,0,1,0,1.44,1.44A1.45,1.45,0,0,0,21.87,136.42Z"/><path class="cls-5" d="M19.9,143.56a2,2,0,1,1,2,2A2,2,0,0,1,19.9,143.56Z"/><path class="cls-4" d="M21.87,146a2.49,2.49,0,1,1,2.48-2.48A2.49,2.49,0,0,1,21.87,146Zm0-3.93a1.45,1.45,0,1,0,1.44,1.45A1.45,1.45,0,0,0,21.87,142.11Z"/><path class="cls-5" d="M200.82,188a2,2,0,1,1,2,2A2,2,0,0,1,200.82,188Z"/><path class="cls-4" d="M202.78,190.53a2.49,2.49,0,1,1,2.48-2.49A2.5,2.5,0,0,1,202.78,190.53Zm0-3.93a1.44,1.44,0,1,0,1.44,1.44A1.43,1.43,0,0,0,202.78,186.6Z"/><path class="cls-5" d="M200.82,193.74a2,2,0,1,1,2,2A2,2,0,0,1,200.82,193.74Z"/><path class="cls-4" d="M202.78,196.22a2.49,2.49,0,1,1,2.48-2.48A2.49,2.49,0,0,1,202.78,196.22Zm0-3.93a1.45,1.45,0,1,0,1.44,1.45A1.44,1.44,0,0,0,202.78,192.29Z"/><path class="cls-5" d="M200.82,199.43a2,2,0,1,1,2,2A2,2,0,0,1,200.82,199.43Z"/><path class="cls-4" d="M202.78,201.92a2.49,2.49,0,1,1,2.48-2.49A2.5,2.5,0,0,1,202.78,201.92Zm0-3.93a1.45,1.45,0,1,0,1.44,1.44A1.44,1.44,0,0,0,202.78,198Z"/><circle class="cls-5" cx="202.78" cy="205.13" r="1.96"/><path class="cls-4" d="M202.78,207.61a2.49,2.49,0,1,1,2.48-2.48A2.49,2.49,0,0,1,202.78,207.61Zm0-3.93a1.45,1.45,0,1,0,1.44,1.45A1.44,1.44,0,0,0,202.78,203.68Z"/><path class="cls-5" d="M200.82,210.82a2,2,0,1,1,2,2A2,2,0,0,1,200.82,210.82Z"/><path class="cls-4" d="M202.78,213.31a2.49,2.49,0,1,1,2.48-2.49A2.5,2.5,0,0,1,202.78,213.31Zm0-3.93a1.45,1.45,0,1,0,1.44,1.44A1.44,1.44,0,0,0,202.78,209.38Z"/><path class="cls-5" d="M368.12,151.15a2,2,0,1,1,2,2A2,2,0,0,1,368.12,151.15Z"/><path class="cls-4" d="M370.08,153.64a2.49,2.49,0,1,1,2.49-2.49A2.49,2.49,0,0,1,370.08,153.64Zm0-3.93a1.44,1.44,0,1,0,1.44,1.44A1.43,1.43,0,0,0,370.08,149.71Z"/><path class="cls-5" d="M368.12,156.85a2,2,0,1,1,2,2A2,2,0,0,1,368.12,156.85Z"/><path class="cls-4" d="M370.08,159.33a2.49,2.49,0,1,1,2.49-2.48A2.48,2.48,0,0,1,370.08,159.33Zm0-3.93a1.45,1.45,0,1,0,1.44,1.45A1.44,1.44,0,0,0,370.08,155.4Z"/><path class="cls-5" d="M368.12,162.54a2,2,0,1,1,2,2A2,2,0,0,1,368.12,162.54Z"/><path class="cls-4" d="M370.08,165a2.49,2.49,0,1,1,2.49-2.49A2.49,2.49,0,0,1,370.08,165Zm0-3.93a1.45,1.45,0,1,0,1.44,1.44A1.44,1.44,0,0,0,370.08,161.1Z"/><circle class="cls-5" cx="370.08" cy="168.24" r="1.96" transform="translate(199.7 537.34) rotate(-89.67)"/><path class="cls-4" d="M370.08,170.72a2.49,2.49,0,1,1,2.49-2.48A2.48,2.48,0,0,1,370.08,170.72Zm0-3.93a1.45,1.45,0,1,0,1.44,1.45A1.44,1.44,0,0,0,370.08,166.79Z"/><path class="cls-5" d="M368.12,173.93a2,2,0,1,1,2,2A2,2,0,0,1,368.12,173.93Z"/><path class="cls-4" d="M370.08,176.42a2.49,2.49,0,1,1,2.49-2.49A2.49,2.49,0,0,1,370.08,176.42Zm0-3.93a1.45,1.45,0,1,0,1.44,1.44A1.44,1.44,0,0,0,370.08,172.49Z"/><polygon class="cls-5" points="77.57 27.34 80.73 28.45 78.18 30.63 75.64 32.8 75.03 29.51 74.42 26.23 77.57 27.34"/><path class="cls-4" d="M75.64,33.32a.51.51,0,0,1-.17,0,.5.5,0,0,1-.34-.39L73.9,26.32a.54.54,0,0,1,.18-.49.53.53,0,0,1,.51-.1L80.9,28a.54.54,0,0,1,.34.4.51.51,0,0,1-.18.49L76,33.2A.54.54,0,0,1,75.64,33.32ZM75.09,27l.9,4.8,3.71-3.18-2.3-.81h0Z"/><path class="cls-3" d="M49,27.24H4A4.52,4.52,0,0,1,6.15,23.5,4.68,4.68,0,0,1,7.37,23a4.4,4.4,0,0,1,1-.12,4.46,4.46,0,0,1,1.6.3,5.16,5.16,0,0,1-.06-.79,5.76,5.76,0,0,1,3.27-5.2,6,6,0,0,1,1.12-.4,5.53,5.53,0,0,1,1.37-.16,5.43,5.43,0,0,1,1.22.13A8.79,8.79,0,0,1,25.46,9.7a9.33,9.33,0,0,1,6,6.9,6.28,6.28,0,0,1,2.43-.49h0c.1.33,1.86.61,2.53.55a6.29,6.29,0,0,1,3.66,4.86A6.11,6.11,0,0,1,42.62,21c.09.33,2,.61,2.68.55A6.29,6.29,0,0,1,49,27.24Z"/><path class="cls-4" d="M45.3,21.51A6.11,6.11,0,0,0,42.73,21h-.11a6.11,6.11,0,0,0-2.48.56,6.29,6.29,0,0,0-3.66-4.86A6.11,6.11,0,0,0,34,16.11h0a6.28,6.28,0,0,0-2.43.49,9.33,9.33,0,0,0-6-6.9,9.51,9.51,0,0,0-3.07-.52,9.3,9.3,0,0,0-9,7,7.7,7.7,0,0,0-.83-.05,6.28,6.28,0,0,0-6.28,6.28v.07A4.9,4.9,0,0,0,.4,27.24a.52.52,0,0,0,.52.52H48.49a.52.52,0,0,0,.52-.52A6.29,6.29,0,0,0,45.3,21.51Zm-40,1.89a3.57,3.57,0,0,1,.87.1,4.64,4.64,0,0,1,.53.16.51.51,0,0,0,.71-.55l0-.11c0-.23,0-.43,0-.61a5.25,5.25,0,0,1,5.24-5.24,4.58,4.58,0,0,1,.64,0,4,4,0,0,1,.48.08.54.54,0,0,0,.62-.41s0-.05,0-.07a8.25,8.25,0,0,1,8.06-6.57h.14a8.24,8.24,0,0,1,8,7.21.52.52,0,0,0,.77.39,5.21,5.21,0,0,1,2.58-.68h.26l.39,0a5.26,5.26,0,0,1,4.59,5.17.52.52,0,0,0,.79.44,5.19,5.19,0,0,1,2.78-.8h.06a4,4,0,0,1,.6,0,5.24,5.24,0,0,1,4.55,4.68H1.47A3.86,3.86,0,0,1,5.28,23.4Z"/><path class="cls-5" d="M249.16,17.28a2,2,0,1,1,2-2A2,2,0,0,1,249.16,17.28Z"/><path class="cls-4" d="M249.16,17.8a2.49,2.49,0,1,1,2.48-2.48A2.49,2.49,0,0,1,249.16,17.8Zm0-3.92a1.44,1.44,0,1,0,1.44,1.44A1.43,1.43,0,0,0,249.16,13.88Z"/><path class="cls-5" d="M254.85,17.28a2,2,0,1,1,2-2A2,2,0,0,1,254.85,17.28Z"/><path class="cls-4" d="M254.85,17.8a2.49,2.49,0,1,1,2.49-2.48A2.48,2.48,0,0,1,254.85,17.8Zm0-3.92a1.44,1.44,0,1,0,1.45,1.44A1.44,1.44,0,0,0,254.85,13.88Z"/><path class="cls-5" d="M260.55,17.28a2,2,0,1,1,2-2A2,2,0,0,1,260.55,17.28Z"/><path class="cls-4" d="M260.55,17.8A2.49,2.49,0,1,1,263,15.32,2.49,2.49,0,0,1,260.55,17.8Zm0-3.92A1.44,1.44,0,1,0,262,15.32,1.43,1.43,0,0,0,260.55,13.88Z"/><path class="cls-5" d="M266.25,17.28a2,2,0,1,1,2-2A2,2,0,0,1,266.25,17.28Z"/><path class="cls-4" d="M266.25,17.8a2.49,2.49,0,1,1,2.48-2.48A2.49,2.49,0,0,1,266.25,17.8Zm0-3.92a1.44,1.44,0,1,0,1.44,1.44A1.44,1.44,0,0,0,266.25,13.88Z"/><path class="cls-5" d="M271.94,17.28a2,2,0,1,1,2-2A2,2,0,0,1,271.94,17.28Z"/><path class="cls-4" d="M271.94,17.8a2.49,2.49,0,1,1,2.49-2.48A2.48,2.48,0,0,1,271.94,17.8Zm0-3.92a1.44,1.44,0,1,0,1.44,1.44A1.44,1.44,0,0,0,271.94,13.88Z"/><path class="cls-6" d="M350.43,216.71a4.34,4.34,0,0,1,0,3.16,13.06,13.06,0,0,1-1.63,3.48,11.14,11.14,0,0,1-1.92,2.21h-2.32c-.3-.16-.59-.33-.88-.52a10.16,10.16,0,0,1-4.26-9.23,2.91,2.91,0,0,1,.92-2.06,1.27,1.27,0,0,1,1.55.07,13.61,13.61,0,0,1,0-12.48c.1-.18.2-.36.31-.54a2.42,2.42,0,0,1,1-1,1.25,1.25,0,0,1,.57-.1,1.93,1.93,0,0,1,1.29.64,5.34,5.34,0,0,1,1,1.88,8.79,8.79,0,0,1,3-6.49c.13-.12.28-.23.42-.34a3.07,3.07,0,0,1,.42-.28,4.2,4.2,0,0,1,.53,1.78,18.14,18.14,0,0,1-.87,8,1.12,1.12,0,0,1,.31.1,2.32,2.32,0,0,1,1,1.43,9.73,9.73,0,0,1-1.8,9.17A2.36,2.36,0,0,1,350.43,216.71Z"/><path class="cls-4" d="M349.1,215.54a9.73,9.73,0,0,0,1.8-9.17,2.35,2.35,0,0,0-1-1.43,1.6,1.6,0,0,0-.31-.1,18,18,0,0,0,.87-8,4.07,4.07,0,0,0-.53-1.79,1.94,1.94,0,0,0-.53-.58c-.89-.66-2.16-.49-3.41.44a9.23,9.23,0,0,0-3.39,5.37,3.07,3.07,0,0,0-.28-.35,2.22,2.22,0,0,0-2.46-.66,2.82,2.82,0,0,0-1.21,1.23,14,14,0,0,0-.86,12.47,1.66,1.66,0,0,0-.89.32,3.28,3.28,0,0,0-1.13,2.43A10.56,10.56,0,0,0,341.15,226a.48.48,0,0,0,.24.06h4.69a.51.51,0,0,0,.31-.11c.18-.13.35-.26.52-.41a11.51,11.51,0,0,0,1.93-2.21,13,13,0,0,0,1.62-3.48,4.24,4.24,0,0,0,0-3.16A2.39,2.39,0,0,0,349.1,215.54Zm.36,4a11,11,0,0,1-3.55,5.47h-4.4a9.51,9.51,0,0,1-4.74-9.17,2.28,2.28,0,0,1,.71-1.7.77.77,0,0,1,.88,0,.51.51,0,0,0,.67,0,.52.52,0,0,0,.14-.66,13.08,13.08,0,0,1,.33-12.5,1.9,1.9,0,0,1,.74-.81,1.23,1.23,0,0,1,1.27.41,3,3,0,0,1,.44.67,10.19,10.19,0,0,1,.43,1,.51.51,0,0,0,.57.34.54.54,0,0,0,.44-.51,8,8,0,0,1,.42-2.52,8.09,8.09,0,0,1,2.77-3.89c.66-.5,1.57-.88,2.16-.45a1,1,0,0,1,.31.37,3.52,3.52,0,0,1,.34,1.29,17,17,0,0,1-1.16,8.39.54.54,0,0,0,.21.64.52.52,0,0,0,.67-.1.25.25,0,0,1,.28-.05,1.46,1.46,0,0,1,.52.83,8.54,8.54,0,0,1-2.53,9.06l0,0a.52.52,0,0,0-.07.73.53.53,0,0,0,.73.08l0,0a.68.68,0,0,1,.58-.11,1.38,1.38,0,0,1,.89.69,2.32,2.32,0,0,1,.2,1A5.07,5.07,0,0,1,349.46,219.57Z"/><path class="cls-5" d="M349.5,217.17a2.32,2.32,0,0,1,.2,1,5.07,5.07,0,0,1-.24,1.42,11,11,0,0,1-3.55,5.47h-4.4a9.51,9.51,0,0,1-4.74-9.17,2.28,2.28,0,0,1,.71-1.7.77.77,0,0,1,.88,0,.51.51,0,0,0,.67,0,.52.52,0,0,0,.14-.66,13.08,13.08,0,0,1,.33-12.5,1.9,1.9,0,0,1,.74-.81,1.23,1.23,0,0,1,1.27.41,1.15,1.15,0,0,1,.14.17,2.88,2.88,0,0,1,.3.5,10.19,10.19,0,0,1,.43,1,.51.51,0,0,0,.57.34.54.54,0,0,0,.44-.51,7.48,7.48,0,0,1,.15-1.5,9.6,9.6,0,0,1,.27-1,8.09,8.09,0,0,1,2.77-3.89c.66-.5,1.57-.88,2.16-.45a1,1,0,0,1,.2.21l.11.16a3.52,3.52,0,0,1,.34,1.29,17,17,0,0,1-1.16,8.39.54.54,0,0,0,.21.64.52.52,0,0,0,.67-.1.25.25,0,0,1,.28-.05,1.46,1.46,0,0,1,.52.83,8.54,8.54,0,0,1-2.53,9.06l0,0a.52.52,0,0,0-.07.73.53.53,0,0,0,.73.08l0,0a.68.68,0,0,1,.58-.11A1.38,1.38,0,0,1,349.5,217.17Z"/><path class="cls-6" d="M349.5,217.17a2.32,2.32,0,0,1,.2,1,5.07,5.07,0,0,1-.24,1.42,11,11,0,0,1-3.55,5.47h-2.39a9.52,9.52,0,0,1-4.75-9.17,2.31,2.31,0,0,1,.71-1.7.77.77,0,0,1,.88,0,.52.52,0,0,0,.67,0,.52.52,0,0,0,.14-.66,13.14,13.14,0,0,1,.33-12.5l.15-.23a2.88,2.88,0,0,1,.3.5,10.19,10.19,0,0,1,.43,1,.51.51,0,0,0,.57.34.54.54,0,0,0,.44-.51,7.48,7.48,0,0,1,.15-1.5,3.08,3.08,0,0,1,.42.64,10.11,10.11,0,0,1,.42,1,.53.53,0,0,0,.58.34.53.53,0,0,0,.43-.51,8.24,8.24,0,0,1,3.2-6.41,2.38,2.38,0,0,1,.35-.24l.11.16a3.52,3.52,0,0,1,.34,1.29,17,17,0,0,1-1.16,8.39.54.54,0,0,0,.21.64.52.52,0,0,0,.67-.1.25.25,0,0,1,.28-.05,1.46,1.46,0,0,1,.52.83,8.54,8.54,0,0,1-2.53,9.06l0,0a.52.52,0,0,0-.07.73.53.53,0,0,0,.73.08l0,0a.68.68,0,0,1,.58-.11A1.38,1.38,0,0,1,349.5,217.17Z"/><path class="cls-5" d="M373.33,204.53c2.92.64,4.68,7.59-9.11,10.16,2.26-.21,3.17,3.35.42,5-2.09,1.23-4.61.51-6.93.88,1.42.82,1.75,4.65-3.39,5h-9.78c-.5-3.81.14-11,3-12.38a2.39,2.39,0,0,1,2.81.55,1.66,1.66,0,0,1,.31.64c0-.31,0-.62,0-.92a15.21,15.21,0,0,1,4.93-10.28c2.33-2.16,4.15-2,5.16-1.19a2.29,2.29,0,0,1,.81,2.37,23.56,23.56,0,0,1,1.36-2.92c3.29-6.05,7.35-6.7,9.45-5.26a3.2,3.2,0,0,1,1.43,2.83c1.27-1.73,3.21-3.74,5.1-2.34C381.58,198.64,378.34,203.87,373.33,204.53Z"/><path class="cls-6" d="M373.33,204.53c2.92.64,4.68,7.59-9.11,10.16,2.26-.21,3.17,3.35.42,5-2.09,1.23-4.61.51-6.93.88,1.42.82,1.75,4.65-3.39,5H348.1c-.45-3.45,0-9.65,2.26-11.83a3,3,0,0,1,.75-.55,2.23,2.23,0,0,1,3.12,1.19,15,15,0,0,1,4.95-11.2,8.4,8.4,0,0,1,1.59-1.19,2.29,2.29,0,0,1,.81,2.37,23.56,23.56,0,0,1,1.36-2.92,2.4,2.4,0,0,1,2.2,2.92c1.84-4.62,4.53-7,7.25-8.18a3.2,3.2,0,0,1,1.43,2.83c1.27-1.73,3.21-3.74,5.1-2.34C381.58,198.64,378.34,203.87,373.33,204.53Z"/><path class="cls-4" d="M344.54,226.08a.52.52,0,0,1-.51-.46c-.48-3.58,0-11.3,3.29-12.91a3,3,0,0,1,2.55,0l.32.17a15.8,15.8,0,0,1,5.07-10.09c3.07-2.85,5.14-1.73,5.71-1.32a3,3,0,0,1,.85,1c2.94-6.23,6.7-7.93,9.38-7.35a3.91,3.91,0,0,1,3,2.61,5.26,5.26,0,0,1,3-2,2.65,2.65,0,0,1,2,.54,3,3,0,0,1,1,3.37,8.07,8.07,0,0,1-5.46,5.14,3.63,3.63,0,0,1,1.09,2.68c0,1.25-.81,5.28-9.84,7.4a2.76,2.76,0,0,1,.67,1.11,3.6,3.6,0,0,1-1.81,4.17,8.61,8.61,0,0,1-4.66.83c-.5,0-1,0-1.46,0a3.12,3.12,0,0,1,.27,2.12c-.19.81-1,2.74-4.71,3ZM345,225h9.31c2.06-.14,3.43-.95,3.72-2.2a1.75,1.75,0,0,0-.59-1.84.53.53,0,0,1-.25-.55.53.53,0,0,1,.43-.42,15.49,15.49,0,0,1,2.63-.12,7.73,7.73,0,0,0,4.12-.69,2.56,2.56,0,0,0,1.34-3,1.38,1.38,0,0,0-1.45-1.06.52.52,0,0,1-.14-1c9.88-1.84,10.7-5.63,10.72-6.75a2.31,2.31,0,0,0-1.63-2.37.53.53,0,0,1-.41-.53.52.52,0,0,1,.45-.5c3.1-.41,5.48-2.7,6-4.67a2,2,0,0,0-.64-2.27,1.64,1.64,0,0,0-1.27-.35c-.9.13-1.94,1-3.1,2.58a.52.52,0,0,1-.59.18.52.52,0,0,1-.35-.51,2.8,2.8,0,0,0-2.32-2.86c-2.39-.5-6.13,1.4-8.91,8.38a1.17,1.17,0,0,1-.09.24.53.53,0,0,1-.68.25.53.53,0,0,1-.28-.67,1.11,1.11,0,0,0,.07-.16,1.83,1.83,0,0,0-.74-1.85c-1.08-.79-2.68-.34-4.38,1.24a14.47,14.47,0,0,0-4.78,10.8.52.52,0,0,1-1,.14,1.31,1.31,0,0,0-.74-.84,2,2,0,0,0-1.65,0C345.42,214.81,344.59,221,345,225Z"/><path class="cls-5" d="M89.5,56.49a2,2,0,1,1,2,2A2,2,0,0,1,89.5,56.49Z"/><path class="cls-4" d="M91.46,59A2.49,2.49,0,1,1,94,56.49,2.49,2.49,0,0,1,91.46,59Zm0-3.93a1.45,1.45,0,1,0,1.44,1.44A1.45,1.45,0,0,0,91.46,55.05Z"/><path class="cls-5" d="M89.5,62.19a2,2,0,1,1,2,2A2,2,0,0,1,89.5,62.19Z"/><path class="cls-4" d="M91.46,64.67A2.49,2.49,0,1,1,94,62.19,2.48,2.48,0,0,1,91.46,64.67Zm0-3.92a1.44,1.44,0,1,0,1.44,1.44A1.44,1.44,0,0,0,91.46,60.75Z"/><path class="cls-5" d="M89.5,67.88a2,2,0,1,1,2,2A2,2,0,0,1,89.5,67.88Z"/><path class="cls-4" d="M91.46,70.37A2.49,2.49,0,1,1,94,67.88,2.49,2.49,0,0,1,91.46,70.37Zm0-3.93a1.45,1.45,0,1,0,1.44,1.44A1.45,1.45,0,0,0,91.46,66.44Z"/><path class="cls-5" d="M89.5,73.58a2,2,0,1,1,2,2A2,2,0,0,1,89.5,73.58Z"/><path class="cls-4" d="M91.46,76.06A2.49,2.49,0,1,1,94,73.58,2.48,2.48,0,0,1,91.46,76.06Zm0-3.92a1.44,1.44,0,1,0,1.44,1.44A1.44,1.44,0,0,0,91.46,72.14Z"/><path class="cls-5" d="M89.5,79.28a2,2,0,1,1,2,2A2,2,0,0,1,89.5,79.28Z"/><path class="cls-4" d="M91.46,81.76A2.49,2.49,0,1,1,94,79.28,2.48,2.48,0,0,1,91.46,81.76Zm0-3.93a1.45,1.45,0,1,0,1.44,1.45A1.45,1.45,0,0,0,91.46,77.83Z"/><polygon class="cls-5" points="187.57 121.14 190.76 120.12 190.05 123.39 189.34 126.66 186.86 124.41 184.38 122.16 187.57 121.14"/><path class="cls-4" d="M189.34,127.18A.52.52,0,0,1,189,127l-5-4.49a.53.53,0,0,1,.19-.89l6.37-2a.55.55,0,0,1,.51.11.58.58,0,0,1,.16.5l-1.42,6.54a.5.5,0,0,1-.35.38A.45.45,0,0,1,189.34,127.18Zm-3.94-4.8,3.62,3.29,1-4.78Z"/><path class="cls-6" d="M176.78,47.94V82.78a10,10,0,0,1-6.49,9.34,10.7,10.7,0,0,1-1.39.1H134.07a9.23,9.23,0,0,1-3.35-.62,9.41,9.41,0,0,1-6.09-8.82V47.94a9.43,9.43,0,0,1,9.44-9.43H168.9a9.19,9.19,0,0,1,1.39.1A10,10,0,0,1,176.78,47.94Z"/><path class="cls-4" d="M170.29,38.61a10,10,0,0,0-3.47-.62H132a10,10,0,0,0-10,9.95V82.78a10,10,0,0,0,10,10h34.84a9.95,9.95,0,0,0,10-10V47.94A10,10,0,0,0,170.29,38.61Zm5.45,44.17a8.93,8.93,0,0,1-8.92,8.92H132a7.48,7.48,0,0,1-1.26-.1,8.91,8.91,0,0,1-7.65-8.82V47.94a8.92,8.92,0,0,1,7.65-8.82A8.69,8.69,0,0,1,132,39h34.84a8.93,8.93,0,0,1,8.92,8.91Z"/><path class="cls-5" d="M134.81,67v-2.2l10.61-4.3v2.72l-6.79,2.68,6.79,2.62v2.72Z"/><path class="cls-5" d="M148.65,76.32H146l6.71-21h2.67Z"/><path class="cls-5" d="M155.88,71.21l.32-2.72,6.53-2.62-6.53-2.68-.32-2.72,10.67,4.3V67Z"/><path class="cls-3" d="M270.47,44.29V85.05a11.59,11.59,0,0,1-8,11l-.74,0H220.93a11,11,0,0,1-11-11V44.29A11,11,0,0,1,217.5,33.8a10.81,10.81,0,0,1,3.43-.54h40.76l.74,0A11.6,11.6,0,0,1,270.47,44.29Z"/><path class="cls-4" d="M262.43,33.28a11.68,11.68,0,0,0-3.52-.55H218.15a11.57,11.57,0,0,0-11.56,11.56V85.05a11.57,11.57,0,0,0,11.56,11.56h40.76a11.53,11.53,0,0,0,11.56-11.56V44.29A11.6,11.6,0,0,0,262.43,33.28Zm7,51.77a10.53,10.53,0,0,1-10.52,10.52H218.15c-.22,0-.43,0-.65,0a10.54,10.54,0,0,1-9.87-10.5V44.29A10.53,10.53,0,0,1,217.5,33.8c.22,0,.43,0,.65,0h40.76a10.52,10.52,0,0,1,10.52,10.51Z"/><path class="cls-4" d="M229.79,66.14a3.51,3.51,0,0,1-1.11,2.33,3.65,3.65,0,0,1-2.49.82,3.35,3.35,0,0,1-2.7-1.21,4.82,4.82,0,0,1-1-3.23v-.91a5.36,5.36,0,0,1,.47-2.33,3.49,3.49,0,0,1,1.34-1.54,3.73,3.73,0,0,1,2-.54,3.45,3.45,0,0,1,2.43.84,3.56,3.56,0,0,1,1.06,2.34h-1.26a2.7,2.7,0,0,0-.71-1.65,2.13,2.13,0,0,0-1.52-.51,2.24,2.24,0,0,0-1.88.89,4.05,4.05,0,0,0-.69,2.53v.92a4.19,4.19,0,0,0,.65,2.46,2.09,2.09,0,0,0,1.81.92,2.39,2.39,0,0,0,1.6-.48,2.6,2.6,0,0,0,.74-1.65Z"/><path class="cls-4" d="M238.81,64.72a5.88,5.88,0,0,1-.47,2.43A3.57,3.57,0,0,1,237,68.74a3.65,3.65,0,0,1-2,.55,3.59,3.59,0,0,1-2-.55,3.65,3.65,0,0,1-1.35-1.57,5.66,5.66,0,0,1-.49-2.37v-.68a5.9,5.9,0,0,1,.47-2.42A3.6,3.6,0,0,1,233,60.09a3.56,3.56,0,0,1,2-.56,3.69,3.69,0,0,1,2,.55,3.6,3.6,0,0,1,1.34,1.6,6,6,0,0,1,.47,2.44Zm-1.25-.62a4.27,4.27,0,0,0-.68-2.59,2.42,2.42,0,0,0-3.77,0,4.25,4.25,0,0,0-.7,2.51v.7a4.24,4.24,0,0,0,.69,2.57,2.41,2.41,0,0,0,3.78,0,4.23,4.23,0,0,0,.68-2.53Z"/><path class="cls-4" d="M240.69,69.16v-9.5h2.68a4.27,4.27,0,0,1,2.19.55A3.58,3.58,0,0,1,247,61.77a5.08,5.08,0,0,1,.53,2.32v.61a5.15,5.15,0,0,1-.52,2.35,3.63,3.63,0,0,1-1.48,1.55,4.51,4.51,0,0,1-2.24.56Zm1.25-8.48v7.45h1.32a2.87,2.87,0,0,0,2.25-.9,3.69,3.69,0,0,0,.81-2.56v-.56a3.83,3.83,0,0,0-.76-2.52,2.75,2.75,0,0,0-2.16-.91Z"/><path class="cls-4" d="M254.82,64.77H250.7v3.36h4.79v1h-6v-9.5h6v1H250.7v3.06h4.12Z"/><path class="cls-3" d="M30.49,226.08h8.87c8.37-33-13-47.58-13-47.58S8.41,205.76,30.49,226.08Z"/><path class="cls-4" d="M29.74,226.08h1.53c-9.22-8.25-12.83-18.64-10.72-30.88a49.05,49.05,0,0,1,5.9-15.94,36.68,36.68,0,0,1,9.2,11.16c3.84,7,7.46,18.9,3.18,35.66H39.9c4.27-17,.56-29-3.36-36.2a35.78,35.78,0,0,0-9.94-11.81.52.52,0,0,0-.73.15A49.59,49.59,0,0,0,19.53,195C18.06,203.5,18.71,215.65,29.74,226.08Z"/><path class="cls-3" d="M30.49,226.08h4.75L26.31,178.5S8.41,205.76,30.49,226.08Z"/><path class="cls-4" d="M29.74,226.08h1.53c-9.22-8.25-12.83-18.64-10.72-30.88A49.18,49.18,0,0,1,26.05,180l8.66,46.13h1.06l-9-47.67a.54.54,0,0,0-.41-.42.53.53,0,0,0-.54.23A49.59,49.59,0,0,0,19.53,195C18.06,203.5,18.71,215.65,29.74,226.08Z"/><path class="cls-6" d="M20.74,226.08h11c1.88-23.34-24.65-31-24.65-31S5.88,216.29,20.74,226.08Z"/><path class="cls-4" d="M21.73,226.08C8.11,217.71,7.56,199.55,7.6,195.81c4,1.37,25.31,9.62,23.62,30.27h1.05c.95-12.12-5.72-20-11.58-24.48a44.82,44.82,0,0,0-13.45-7,.49.49,0,0,0-.44.07.53.53,0,0,0-.22.4c0,.22-1,21,13.24,31Z"/><path class="cls-6" d="M31.75,226.08c1.88-23.34-24.65-31-24.65-31s18.27,22,20.13,31Z"/><path class="cls-4" d="M27.75,226.08c-1.52-7.77-15-24.81-19.08-29.89,5.78,2.18,24.13,10.66,22.55,29.89h1.05c.95-12.12-5.72-20-11.58-24.48a44.82,44.82,0,0,0-13.45-7,.51.51,0,0,0-.58.21.53.53,0,0,0,0,.62c.19.23,18.09,21.85,20,30.65Z"/><ellipse class="cls-5" cx="77.46" cy="152.43" rx="13.74" ry="30.38" transform="translate(-27.84 17.72) rotate(-11.08)"/><path class="cls-4" d="M82.05,182.89a8.79,8.79,0,0,1-4.42-1.33c-5.87-3.44-11.32-13.24-13.88-25-3.62-16.61-.44-32,7.09-34.3a7.86,7.86,0,0,1,6.45,1c5.87,3.44,11.32,13.24,13.88,25,3.62,16.61.44,32-7.09,34.3A7,7,0,0,1,82.05,182.89ZM72.86,123a5.85,5.85,0,0,0-1.71.25c-7,2.15-9.89,17-6.38,33.09,2.5,11.46,7.75,21,13.38,24.3a6.94,6.94,0,0,0,5.62.93c7-2.15,9.89-17,6.38-33.09h0c-2.5-11.47-7.75-21-13.38-24.3A7.75,7.75,0,0,0,72.86,123Z"/><path class="cls-5" d="M107.94,225.3a1.6,1.6,0,0,1-.63-.14l-19.29-9a1.5,1.5,0,1,1,1.26-2.72l19.3,9a1.5,1.5,0,0,1-.64,2.86Z"/><path class="cls-4" d="M107.94,225.82a2,2,0,0,1-.85-.19l-19.29-9a2,2,0,0,1-1-2.68A2,2,0,0,1,88,212.92a2,2,0,0,1,1.54.07l19.3,9a2,2,0,0,1-.86,3.85Zm-19.29-12a1,1,0,0,0-.41,1.86l19.29,9a1,1,0,0,0,1.3-.48,1,1,0,0,0-.47-1.29l-19.3-9A1,1,0,0,0,88.65,213.84Z"/><path class="cls-5" d="M69.36,225.3a1.5,1.5,0,0,1-.63-2.86l19.29-9a1.5,1.5,0,0,1,1.26,2.72l-19.29,9A1.56,1.56,0,0,1,69.36,225.3Z"/><path class="cls-4" d="M69.36,225.82a2,2,0,0,1-1.83-1.17,2,2,0,0,1-.07-1.54A2,2,0,0,1,68.51,222l19.29-9a2,2,0,0,1,1.7,3.66l-19.29,9A1.92,1.92,0,0,1,69.36,225.82Zm19.29-12a1,1,0,0,0-.41.09l-19.29,9a1,1,0,0,0-.51.55.91.91,0,0,0,0,.74,1,1,0,0,0,1.29.48l19.29-9a1,1,0,0,0-.41-1.86Z"/><path class="cls-6" d="M100.57,187.2H76.73a4.36,4.36,0,0,1-4.36-4.36h0a4.36,4.36,0,0,1,4.36-4.36h23.84a4.36,4.36,0,0,1,4.36,4.36h0A4.36,4.36,0,0,1,100.57,187.2Z"/><path class="cls-4" d="M100.57,187.72H76.73a4.88,4.88,0,0,1,0-9.76h23.84a4.88,4.88,0,1,1,0,9.76ZM76.73,179a3.84,3.84,0,1,0,0,7.67h23.84a3.84,3.84,0,1,0,0-7.67Z"/><path class="cls-6" d="M88.65,217.09h0a2.59,2.59,0,0,1-2.59-2.58V196.6h5.18v17.91A2.59,2.59,0,0,1,88.65,217.09Z"/><path class="cls-4" d="M88.65,217.61a3.11,3.11,0,0,1-3.11-3.1V196.6a.53.53,0,0,1,.52-.52h5.18a.52.52,0,0,1,.52.52v17.91A3.1,3.1,0,0,1,88.65,217.61Zm-2.06-20.48v17.38a2.07,2.07,0,0,0,4.13,0V197.13Z"/><path class="cls-5" d="M88.65,225.3a1.5,1.5,0,0,1-1.5-1.5v-9a1.5,1.5,0,0,1,3,0v9A1.5,1.5,0,0,1,88.65,225.3Z"/><path class="cls-4" d="M88.65,225.82a2,2,0,0,1-2-2v-9a2,2,0,0,1,4,0v9A2,2,0,0,1,88.65,225.82Zm0-12a1,1,0,0,0-1,1v9a1,1,0,1,0,1.95,0v-9A1,1,0,0,0,88.65,213.84Z"/><path class="cls-6" d="M88.65,198.39h0a4.58,4.58,0,0,1-4.58-4.58v-4.58h9.16v4.58A4.58,4.58,0,0,1,88.65,198.39Z"/><path class="cls-4" d="M88.65,198.91a5.11,5.11,0,0,1-5.1-5.1v-4.58a.52.52,0,0,1,.52-.52h9.16a.52.52,0,0,1,.52.52v4.58A5.11,5.11,0,0,1,88.65,198.91Zm-4.06-9.16v4.06a4.06,4.06,0,0,0,8.12,0v-4.06Z"/><path class="cls-5" d="M100.46,189.23H76.84a1.08,1.08,0,0,1-1.08-1.08h0a1.08,1.08,0,0,1,1.08-1.08h23.62a1.08,1.08,0,0,1,1.08,1.08h0A1.08,1.08,0,0,1,100.46,189.23Z"/><path class="cls-4" d="M100.46,189.75H76.84a1.6,1.6,0,0,1,0-3.2h23.62a1.6,1.6,0,1,1,0,3.2Zm-23.62-2.16a.56.56,0,0,0,0,1.12h23.62a.56.56,0,1,0,0-1.12Z"/><path class="cls-4" d="M99.89,112.14c-.25-6.21-2.88-8.77-6-9.53-6.55-4.71-18.74-4.45-20.73,6.32-1.44,7.77,1.8,12.2-6.94,18.11-13.18,8.9-14.05,27.25,7.57,32.75,15.63,4,20.72-21.94,22.34-37.92C98.05,120.29,100,114.15,99.89,112.14Z"/><path class="cls-4" d="M76.85,160.72a12.78,12.78,0,0,1-3.24-.43c-9.8-2.49-15.88-7.78-17.12-14.91-1.18-6.75,2.5-14.12,9.38-18.77,6.09-4.12,6.15-7.37,6.24-11.88a35.23,35.23,0,0,1,.49-5.89,11,11,0,0,1,6.8-8.72c4.45-1.79,10.47-1,14.66,2,4,1,6.12,4.36,6.35,10h0c.09,2.06-1.77,8.11-3.83,10-1.38,13.44-4.8,30.6-13.26,36.51A11.1,11.1,0,0,1,76.85,160.72Zm7.72-60.5a12.81,12.81,0,0,0-4.78.87A10,10,0,0,0,73.62,109a33.2,33.2,0,0,0-.46,5.73c-.1,4.63-.17,8.29-6.7,12.71S56.4,138.85,57.51,145.2c1.17,6.7,7,11.7,16.36,14.08a10.36,10.36,0,0,0,8.85-1.49c8.61-6,11.74-25.13,12.84-36a.55.55,0,0,1,.2-.35c1.84-1.47,3.69-7.45,3.61-9.3h0c-.21-5.15-2.11-8.19-5.65-9a.42.42,0,0,1-.18-.08A15.7,15.7,0,0,0,84.57,100.22Z"/><path class="cls-6" d="M99,128.23c4.25.65,9.57,20.46,10.23,20.24,1.3-.43,17.7,1.8,17.7,1.8l.39,2.42-22-.1s-8-13.15-7.76-17.14A27.54,27.54,0,0,1,99,128.23Z"/><path class="cls-4" d="M127.29,153.21h0l-22-.1a.52.52,0,0,1-.44-.25c-.33-.54-8-13.34-7.83-17.44a28.26,28.26,0,0,1,1.43-7.37.52.52,0,0,1,.57-.33c3,.46,6.08,8.36,8.94,16.41.57,1.59,1.15,3.23,1.43,3.79,2.61-.17,15,1.48,17.55,1.83a.51.51,0,0,1,.44.44l.39,2.42a.5.5,0,0,1-.11.42A.52.52,0,0,1,127.29,153.21Zm-21.67-1.14,21.06.1-.23-1.44c-6.27-.84-16.13-2-17.09-1.76-.67.22-.83-.22-2.35-4.49-1.68-4.72-5.08-14.3-7.71-15.6a28.16,28.16,0,0,0-1.21,6.6C97.92,138.55,103.33,148.26,105.62,152.07ZM109,148Zm0,0h0Z"/><path class="cls-5" d="M96.82,104.08c-.54-1.79-1.59-2-2.67-2.41s-6-.84-7.1,2.56-.85,9.15-.85,9.15l1.83-.72s-.29-6.71.65-8.27C90.67,101.08,96.82,104.08,96.82,104.08Z"/><path class="cls-4" d="M92.13,101.41a6.62,6.62,0,0,1,2,.26c1.08.4,2.13.62,2.67,2.41a13.21,13.21,0,0,0-4.9-1.25,3.51,3.51,0,0,0-3.24,1.56c-.94,1.56-.65,8.27-.65,8.27l-1.83.72s-.26-5.75.85-9.15c.74-2.27,3.21-2.82,5.08-2.82m0-1v0c-3.13,0-5.34,1.29-6.07,3.54-1.15,3.53-.91,9.27-.9,9.51a1.06,1.06,0,0,0,.48.83,1,1,0,0,0,.56.17,1.09,1.09,0,0,0,.39-.08l1.82-.71a1.06,1.06,0,0,0,.66-1c-.13-3.07,0-6.89.5-7.68.16-.26.64-1.05,2.35-1.05A12.18,12.18,0,0,1,96.36,105a1.08,1.08,0,0,0,1.13-.14,1.05,1.05,0,0,0,.33-1.09,4.12,4.12,0,0,0-3-3l-.26-.09a7.68,7.68,0,0,0-2.38-.32Z"/><path class="cls-4" d="M144,195.79c3.18,1.74,7.77-.91,10.09-.34,3,.71.83,2.78-2,3.8-3.05,1.11-6.77,3.82-8.76,3.49-1.63-.28-2.43-5.33-2.43-5.33Z"/><path class="cls-4" d="M143.68,203.28a3.15,3.15,0,0,1-.44,0c-1.9-.32-2.72-4.86-2.87-5.76a.55.55,0,0,1,.27-.55l3.09-1.61a.53.53,0,0,1,.49,0c1.74.95,4.06.44,6.1,0a9.4,9.4,0,0,1,3.87-.38c1.45.35,1.79,1,1.82,1.54.07,1.28-1.84,2.56-3.75,3.26a31.26,31.26,0,0,0-3.46,1.62C146.88,202.35,145.06,203.28,143.68,203.28Zm-2.22-5.59c.4,2.16,1.24,4.41,1.95,4.53,1.08.18,3-.82,4.91-1.79a33.51,33.51,0,0,1,3.58-1.67c2-.73,3.09-1.78,3.07-2.22,0-.16-.29-.41-1-.59a9.24,9.24,0,0,0-3.4.38c-2.13.48-4.53,1-6.56,0Z"/><path class="cls-4" d="M112,217.33c-2.48,4,1.8,3.67,3.12,7.17.24.65,6.7.55,6.7,0,0-2.26-5.17-4.77-5.51-8C115.86,212.58,112.53,216.39,112,217.33Z"/><path class="cls-4" d="M118,225.47c-1.59,0-3.2-.16-3.43-.78a6.07,6.07,0,0,0-2.14-2.6c-1.32-1.08-2.69-2.19-.93-5h0c.31-.5,2.35-3.14,3.95-2.78.74.17,1.19.89,1.32,2.14.16,1.55,1.66,3,3,4.33s2.53,2.49,2.53,3.76c0,.59-.71.72-1.05.78A26.8,26.8,0,0,1,118,225.47Zm-2.5-1.27a18.69,18.69,0,0,0,5.7,0,7.92,7.92,0,0,0-2.18-2.75c-1.45-1.42-3.09-3-3.29-5-.07-.72-.27-1.18-.52-1.23-.69-.17-2.29,1.45-2.83,2.31h0c-1.27,2.07-.61,2.61.7,3.68A7.15,7.15,0,0,1,115.51,224.2Zm0,.12Zm-3.61-7h0Z"/><path class="cls-3" d="M98.05,162.71c7.22,2.58,17,9.3,18.17,12.1s.12,39.48,0,41.66c-.06,1.83-3.45,1.75-3.88.56s-6.7-31.05-6.21-33.53l.49-2.48s-12.92-1.29-16.9-3-.76-15.3-.76-15.3Z"/><path class="cls-4" d="M114.24,218.41a2.41,2.41,0,0,1-2.35-1.2c-.08-.23-6.79-31-6.23-33.81l.38-1.92c-2.58-.27-12.91-1.45-16.49-3-4.26-1.84-1.39-14.46-1-15.89a.5.5,0,0,1,.5-.4h9a.57.57,0,0,1,.18,0c7.14,2.56,17.16,9.27,18.47,12.39s.09,41.49.08,41.87a2,2,0,0,1-2,1.88A3.68,3.68,0,0,1,114.24,218.41ZM89.42,163.23c-.89,3.92-2.29,13.07.55,14.3,3.86,1.67,16.61,3,16.74,3a.54.54,0,0,1,.37.21.55.55,0,0,1,.09.41l-.49,2.48c-.44,2.22,5.59,31.59,6.19,33.25.12.33,1,.62,1.79.49.39-.07,1.06-.27,1.08-.89.28-7.79,1-39.07,0-41.44-1.08-2.56-10.61-9.19-17.78-11.78Z"/><path class="cls-3" d="M144.54,195.6c-.6-1-20.43-25.63-21-26.53a8.58,8.58,0,0,0-6.09-4.17h0c-5.34-1.06-23.6-.39-23.6-.39l-14.54-.75c-5,9.18-4.09,17.26,4.63,17.26,9.38,0,26.09-5.05,31-7,.94,1.38,2,3,2.86,4.23,1.62,2.4,21.06,18.53,22.63,19.82S145.15,196.6,144.54,195.6Z"/><path class="cls-4" d="M141.41,198.94a2,2,0,0,1-1.31-.46c-.21-.17-21-17.34-22.73-19.93l-2.63-3.89c-5.47,2.09-21.59,6.88-30.8,6.88-3.33,0-5.78-1.16-7.09-3.35-2-3.31-1.25-8.66,2-14.68a.52.52,0,0,1,.48-.27l14.54.75c.7,0,18.27-.66,23.65.39h0a9.08,9.08,0,0,1,6.44,4.4c.26.41,4.86,6.17,9.31,11.75,6.87,8.6,11.39,14.28,11.71,14.8.47.78-.21,1.8-1,2.5A4.21,4.21,0,0,1,141.41,198.94Zm-26.47-25.43a.54.54,0,0,1,.43.22l2.87,4.24c1.43,2.13,18.89,16.74,22.52,19.71.57.46,1.5.11,2.18-.36.86-.6,1.21-1.3,1.16-1.45-.33-.54-6.6-8.39-11.63-14.69-5.66-7.09-9.11-11.42-9.37-11.83a8.15,8.15,0,0,0-5.69-3.93h-.06c-5.22-1-23.3-.39-23.48-.38l-14.26-.73c-2.89,5.49-3.59,10.46-1.87,13.35,1.13,1.89,3.22,2.85,6.2,2.85,9.3,0,25.8-5,30.8-7A.69.69,0,0,1,114.94,173.51Z"/><path class="cls-5" d="M90.22,114.48c-.28,5.14-2.77,11.89-3.46,12.07s-5.44-.15-6.91,1.15-11.49,19.15-12.18,22.41,1.19,3.1,3.56,2.15,9.84-13.9,10.23-13.4,4.76,10.78,1.7,17.54-4.29,7.17-3.85,8.09,19.42.85,18.74-1.78c-1.07-4.23-.42-16.66-.42-16.66s4.57-.91,4.53-3.43c0-2.87-1.52-14-3.19-14.39s-4.59-.71-5.12-1.21.84-8.69.84-8.69Z"/><path class="cls-4" d="M85,165.55c-5.74,0-6-.62-6.13-.84-.34-.71,0-1.22.63-2.34a52.53,52.53,0,0,0,3.22-6.18c2.61-5.78-.37-14.23-1.38-16.48-.54.71-1.52,2.19-2.42,3.54-3.33,5-6,8.9-7.47,9.49-1.28.52-2.86,1-3.77.24-.64-.53-.79-1.5-.49-3,.68-3.23,10.78-21.33,12.34-22.7,1.13-1,3.58-1.14,6-1.21.42,0,.88,0,1.08,0,.66-.75,2.88-6.8,3.14-11.61a.52.52,0,0,1,.86-.36L95,117.93a.56.56,0,0,1,.17.49c-.59,3.51-1.09,7.48-.93,8.26a15.71,15.71,0,0,0,3,.7c.66.12,1.28.23,1.8.35,2.44.54,3.58,13.91,3.6,14.88,0,2.47-3.36,3.55-4.55,3.86-.1,2.14-.51,12.43.43,16.11.19.73-.33,1.33-1.54,1.76-2.73,1-8.61,1.16-10.35,1.19Zm-5.22-1.4c1.63.59,13.92.57,17.24-.92.5-.22.56-.39.56-.39-1.09-4.25-.47-16.3-.44-16.81a.53.53,0,0,1,.42-.49c1.15-.23,4.13-1.2,4.11-2.91-.06-3.5-1.64-13.37-2.8-13.89-.48-.11-1.1-.22-1.74-.33-1.94-.35-3.15-.58-3.61-1-.2-.18-.72-.68.63-8.86l-3.46-3c-.5,4.62-2.6,11.21-3.77,11.51a7.79,7.79,0,0,1-1.38.09c-1.53,0-4.38.12-5.32,1-1.19,1-11.31,18.8-12,22.13-.21,1-.16,1.71.14,2s.92.31,2.72-.4c1.28-.52,4.85-5.9,7-9.11,2.69-4,2.93-4.32,3.38-4.34a.59.59,0,0,1,.46.21c.42.53,5,11,1.77,18.07a57.86,57.86,0,0,1-3.27,6.3C79.88,163.72,79.74,164,79.75,164.15Z"/><path class="cls-5" d="M91,110.36a13.81,13.81,0,0,0,.58-3.2c2.24-.6,5.22.28,6.56,3.87,1.76,4.74,2.36,10.17,1.18,12-1.07,1.69-4.36.7-7.84-4.85-.46-.73-.86-1.4-1.22-2C88.59,113.29,90,112.48,91,110.36Z"/><path class="cls-4" d="M97.86,124.35h0c-2,0-4.56-2.19-6.85-5.85-.5-.79-.9-1.46-1.23-2-1.41-2.5-.73-3.69.06-5.07a11.71,11.71,0,0,0,.65-1.23,12.43,12.43,0,0,0,.54-3,.52.52,0,0,1,.39-.46c2.54-.69,5.74.34,7.18,4.19,1.65,4.42,2.52,10.3,1.13,12.5A2.14,2.14,0,0,1,97.86,124.35ZM92,107.59a12,12,0,0,1-.6,3h0a12.47,12.47,0,0,1-.69,1.33c-.74,1.28-1.18,2-.07,4,.33.57.72,1.23,1.21,2,2.47,3.94,4.71,5.35,6,5.35h0a1.09,1.09,0,0,0,1-.5c1-1.67.49-7-1.23-11.58C96.47,108.16,94.05,107.2,92,107.59ZM91,110.36Z"/><path class="cls-5" d="M81.72,114.6c.09,3.06,2.25,5.48,4.83,5.41s4.61-2.61,4.52-5.67-2.25-5.48-4.83-5.4S81.64,111.55,81.72,114.6Z"/><path class="cls-4" d="M86.44,120.53c-2.81,0-5.14-2.62-5.24-5.91a6.59,6.59,0,0,1,1.37-4.29,4.71,4.71,0,0,1,7.41-.21,6.81,6.81,0,0,1,.24,8.5,4.84,4.84,0,0,1-3.65,1.91Zm-.09-11.07h-.1A3.78,3.78,0,0,0,83.39,111a5.54,5.54,0,0,0-1.15,3.61c.08,2.77,2,5,4.3,4.9A3.78,3.78,0,0,0,89.4,118a5.75,5.75,0,0,0-.2-7.16A3.79,3.79,0,0,0,86.35,109.46Z"/><g class="cls-7"><path class="cls-5" d="M89.08,115.66c-.08-3.06-2.25-5.48-4.83-5.4a4,4,0,0,0-1.09.19,4.24,4.24,0,0,1,3.08-1.51c2.58-.08,4.74,2.34,4.83,5.4a5.45,5.45,0,0,1-3.42,5.48A6,6,0,0,0,89.08,115.66Z"/><path class="cls-4" d="M87.65,120.34a.52.52,0,0,1-.44-.24.51.51,0,0,1,.05-.63,5.51,5.51,0,0,0,1.3-3.8h0a5.55,5.55,0,0,0-1.35-3.54,3.76,3.76,0,0,0-2.94-1.35,3.21,3.21,0,0,0-1,.16.53.53,0,0,1-.6-.21.54.54,0,0,1,0-.63,4.69,4.69,0,0,1,7.21,0,6.6,6.6,0,0,1,1.61,4.2,5.93,5.93,0,0,1-3.79,6A.4.4,0,0,1,87.65,120.34Zm1.95-4.7a6.81,6.81,0,0,1-.42,2.59,5.47,5.47,0,0,0,1.37-3.88,5.55,5.55,0,0,0-1.35-3.54,3.78,3.78,0,0,0-3-1.35,3.41,3.41,0,0,0-1.33.31A4.92,4.92,0,0,1,88,111.44a6.54,6.54,0,0,1,1.61,4.2Z"/></g><path class="cls-5" d="M95.15,120.55a1.29,1.29,0,0,0-1.25,1,8.26,8.26,0,0,1-6.78-3.62.43.43,0,1,0-.72.47,9.14,9.14,0,0,0,7.52,4h0a1.3,1.3,0,0,0,1.19.78,1.31,1.31,0,1,0,0-2.61Z"/><path class="cls-4" d="M86.76,117.7a.42.42,0,0,1,.36.2,8.26,8.26,0,0,0,6.78,3.62,1.29,1.29,0,0,1,1.25-1A1.31,1.31,0,1,1,94,122.38h0a9.14,9.14,0,0,1-7.52-4,.43.43,0,0,1,.12-.6.42.42,0,0,1,.24-.07m0-1h0a1.45,1.45,0,0,0-.81.24,1.47,1.47,0,0,0-.43,2,10.21,10.21,0,0,0,7.88,4.48,2.35,2.35,0,1,0-.12-3A7.2,7.2,0,0,1,88,117.33a1.46,1.46,0,0,0-1.23-.67Z"/><path class="cls-6" d="M67.67,150.11c-.68,3.26,1.19,3.1,3.56,2.15s9.84-13.9,10.23-13.4,4.76,10.78,1.7,17.54-4.29,7.17-3.85,8.09,19.42.85,18.74-1.78c-1.07-4.23-.42-16.66-.42-16.66s4.57-.91,4.53-3.43c0-2.87-1.52-14-3.19-14.39s-4.59-.71-5.12-1.21c0,0,3.34,5.31,3,7s-4.48-.32-10.06-7.5c-.7.18-5.44-.15-6.91,1.15S68.36,146.85,67.67,150.11Z"/><path class="cls-4" d="M85,165.55c-5.74,0-6-.62-6.13-.84-.34-.71,0-1.22.63-2.34a52.53,52.53,0,0,0,3.22-6.18c2.61-5.78-.37-14.23-1.38-16.48-.54.71-1.52,2.19-2.42,3.54-3.33,5-6,8.9-7.47,9.49-1.28.52-2.86,1-3.77.24-.64-.53-.79-1.5-.49-3,.68-3.23,10.78-21.33,12.34-22.7,1.13-1,3.58-1.14,6-1.21a8.71,8.71,0,0,0,1.15-.06.52.52,0,0,1,.54.19c5,6.36,8.2,8,9,7.87.06,0,.1,0,.13-.16.24-1.1-1.65-4.66-2.9-6.65a.51.51,0,0,1,.79-.65,13.41,13.41,0,0,0,3.08.74c.66.12,1.28.23,1.8.35,2.44.54,3.58,13.91,3.6,14.88,0,2.47-3.36,3.55-4.55,3.86-.1,2.14-.51,12.43.43,16.11.19.73-.33,1.33-1.54,1.76-2.72,1-8.61,1.16-10.35,1.19Zm-5.22-1.4c1.63.59,13.92.57,17.24-.92.5-.22.56-.39.56-.39-1.09-4.25-.47-16.3-.44-16.81a.53.53,0,0,1,.42-.49c1.15-.23,4.13-1.2,4.11-2.91-.06-3.5-1.64-13.37-2.8-13.89-.48-.11-1.1-.22-1.74-.33-.81-.15-1.49-.27-2-.4,1,1.79,2.58,4.77,2.28,6.15a1.2,1.2,0,0,1-.92,1c-1.86.42-5.72-2.71-9.88-8-.23,0-.56,0-1,0-1.53,0-4.38.12-5.32,1-1.19,1-11.31,18.8-12,22.13h0c-.21,1-.16,1.71.14,2s.92.31,2.72-.4c1.28-.52,4.85-5.9,7-9.11,2.69-4,2.93-4.32,3.38-4.34a.59.59,0,0,1,.46.21c.42.53,5,11,1.77,18.07a57.86,57.86,0,0,1-3.27,6.3C79.88,163.72,79.74,164,79.75,164.15Zm-12.08-14h0Z"/><path class="cls-5" d="M87.78,150.22c4.69-.73,5.33-1.36,6.81-.74,1.88.79,4.74,2.24,2.8,2.44s-8,1.06-10.14.46S87.78,150.22,87.78,150.22Z"/><path class="cls-4" d="M89.46,153.11a9.5,9.5,0,0,1-2.35-.22c-.74-.21-1.14-.56-1.21-1.06-.12-1,1.21-1.82,1.61-2.06a.6.6,0,0,1,.19-.06c1.61-.25,2.76-.5,3.6-.67,1.63-.35,2.38-.51,3.49,0,3.92,1.64,3.81,2.36,3.76,2.7s-.43.67-1.11.74l-1.17.13A64.85,64.85,0,0,1,89.46,153.11Zm-2.52-1.42a1.29,1.29,0,0,0,.44.19c1.71.48,6.3-.06,8.77-.35l1.07-.12A16.26,16.26,0,0,0,94.39,150c-.82-.34-1.29-.24-2.88.1-.83.17-2,.41-3.55.66-.52.32-1,.79-1,1Z"/><path class="cls-6" d="M69.83,149.22c4-2,16.14.66,18,1,.72.13,2.78,2.45,1.18,2.45s-19.62,1.32-20.85,0C66.17,150.59,69.83,149.22,69.83,149.22Z"/><path class="cls-4" d="M73.67,153.77c-3.69,0-5.47-.24-5.94-.74a2.13,2.13,0,0,1-.66-2c.33-1.4,2.22-2.18,2.55-2.31,3.8-1.91,14.17.16,17.59.84l.66.13c.78.14,2.29,1.68,2.2,2.64,0,.41-.35.84-1.11.84-.31,0-1.29.05-2.64.13C80.71,153.62,76.59,153.77,73.67,153.77Zm.71-4.79a10,10,0,0,0-4.31.7l-.06,0c-.44.17-1.75.82-1.93,1.59,0,.11-.11.47.41,1,1.12.87,13.65.19,17.77,0l2.75-.13a3.4,3.4,0,0,0-1.33-1.42L87,150.6A69.08,69.08,0,0,0,74.38,149Zm-4.55.24Z"/><circle class="cls-6" cx="150.28" cy="146.86" r="6.58" transform="translate(-14.04 277.82) rotate(-82.89)"/><path class="cls-4" d="M150.28,154a7.11,7.11,0,1,1,7.11-7.1A7.11,7.11,0,0,1,150.28,154Zm0-13.16a6.06,6.06,0,1,0,6.06,6.06A6.06,6.06,0,0,0,150.28,140.8Z"/><path class="cls-3" d="M150.83,143,160,111.76a.79.79,0,0,0-.76-1H113.63a2.69,2.69,0,0,0-2.58,1.94l-9.14,31.25a.79.79,0,0,0,.76,1h45.58A2.68,2.68,0,0,0,150.83,143Z"/><path class="cls-4" d="M148.25,145.47H102.67a1.32,1.32,0,0,1-1.26-1.69l9.14-31.25a3.23,3.23,0,0,1,3.08-2.31h45.58a1.28,1.28,0,0,1,1,.53,1.27,1.27,0,0,1,.21,1.16l-9.13,31.25h0A3.24,3.24,0,0,1,148.25,145.47Zm-34.62-34.21a2.18,2.18,0,0,0-2.08,1.56l-9.14,31.25a.28.28,0,0,0,0,.24.25.25,0,0,0,.22.11h45.58a2.19,2.19,0,0,0,2.09-1.56l9.13-31.24a.27.27,0,0,0,0-.25.27.27,0,0,0-.22-.11ZM150.84,143Z"/><path class="cls-5" d="M126.71,150.91h8.88L133.19,134a3.39,3.39,0,0,0-3.36-2.93h-2a3.4,3.4,0,0,0-3.36,3.87Z"/><path class="cls-4" d="M135.59,151.43h-8.88a.52.52,0,0,1-.51-.45l-2.27-15.92a3.94,3.94,0,0,1,.93-3.12,3.89,3.89,0,0,1,3-1.35h2a3.94,3.94,0,0,1,3.88,3.38l2.4,16.87a.51.51,0,0,1-.13.41A.5.5,0,0,1,135.59,151.43Zm-8.42-1H135l-2.31-16.28a2.9,2.9,0,0,0-2.85-2.48h-2a2.88,2.88,0,0,0-2.85,3.28Z"/><path class="cls-5" d="M120.9,152.72H141a.9.9,0,0,0,.91-.9h0a.91.91,0,0,0-.91-.91H120.9a.91.91,0,0,0-.91.91h0A.9.9,0,0,0,120.9,152.72Z"/><path class="cls-4" d="M141,153.24H120.9a1.43,1.43,0,1,1,0-2.85H141a1.43,1.43,0,1,1,0,2.85Zm-20.08-1.81a.39.39,0,1,0,0,.77H141a.39.39,0,1,0,0-.77Z"/><path class="cls-5" d="M84.39,225.56a.87.87,0,0,1-.81-.56L57.3,156.13a.86.86,0,0,1,.5-1.11.87.87,0,0,1,1.12.5L85.2,224.38a.86.86,0,0,1-.5,1.12A.81.81,0,0,1,84.39,225.56Z"/><path class="cls-4" d="M84.39,226.08a1.39,1.39,0,0,1-1.29-.89L56.81,156.32a1.39,1.39,0,0,1,1.86-1.76,1.35,1.35,0,0,1,.73.77L85.69,224.2a1.39,1.39,0,0,1-.8,1.79A1.43,1.43,0,0,1,84.39,226.08Zm-26.28-70.6-.13,0a.36.36,0,0,0-.2.45l26.29,68.87a.36.36,0,0,0,.44.2.37.37,0,0,0,.2-.19.33.33,0,0,0,0-.26L58.43,155.7a.37.37,0,0,0-.18-.19Z"/><path class="cls-5" d="M52.54,225.56a.85.85,0,0,1-.31-.06.87.87,0,0,1-.5-1.12L78,155.52a.87.87,0,0,1,1.62.61L53.35,225A.86.86,0,0,1,52.54,225.56Z"/><path class="cls-4" d="M52.54,226.08a1.33,1.33,0,0,1-.49-.09,1.35,1.35,0,0,1-.77-.73,1.31,1.31,0,0,1,0-1.06l26.28-68.87a1.35,1.35,0,0,1,.73-.77,1.39,1.39,0,0,1,1.06,0,1.38,1.38,0,0,1,.8,1.79L53.84,225.19A1.41,1.41,0,0,1,52.54,226.08Zm26.29-70.6a.32.32,0,0,0-.14,0,.39.39,0,0,0-.19.19L52.22,224.57a.33.33,0,0,0,0,.26.32.32,0,0,0,.19.19.35.35,0,0,0,.44-.2L79.15,156a.35.35,0,0,0-.2-.45Z"/><path class="cls-5" d="M170.94,225.56a.86.86,0,0,1-.81-.56l-26.28-68.87a.86.86,0,0,1,1.61-.61l26.29,68.86a.86.86,0,0,1-.5,1.12A.85.85,0,0,1,170.94,225.56Z"/><path class="cls-4" d="M170.94,226.08a1.39,1.39,0,0,1-1.29-.89l-26.29-68.87a1.39,1.39,0,0,1,1.86-1.76,1.35,1.35,0,0,1,.73.77l26.29,68.87a1.39,1.39,0,0,1-.8,1.79A1.43,1.43,0,0,1,170.94,226.08Zm-26.28-70.6-.13,0a.36.36,0,0,0-.2.45l26.29,68.87a.35.35,0,0,0,.44.2.37.37,0,0,0,.2-.19.33.33,0,0,0,0-.26L145,155.7a.37.37,0,0,0-.18-.19Z"/><path class="cls-5" d="M139.09,225.56a.85.85,0,0,1-.31-.06.86.86,0,0,1-.5-1.12l26.29-68.86a.87.87,0,0,1,1.62.61L139.9,225A.86.86,0,0,1,139.09,225.56Z"/><path class="cls-4" d="M139.09,226.08a1.33,1.33,0,0,1-.49-.09,1.38,1.38,0,0,1-.81-1.79l26.29-68.87a1.35,1.35,0,0,1,.73-.77,1.39,1.39,0,0,1,1.06,0,1.35,1.35,0,0,1,.77.73,1.39,1.39,0,0,1,0,1.06l-26.28,68.87A1.41,1.41,0,0,1,139.09,226.08Zm26.29-70.6a.32.32,0,0,0-.14,0,.39.39,0,0,0-.19.19l-26.28,68.87a.3.3,0,0,0,0,.26.32.32,0,0,0,.19.19.35.35,0,0,0,.44-.2L165.7,156a.36.36,0,0,0,0-.27.37.37,0,0,0-.19-.18Z"/><path class="cls-5" d="M176.83,156.11H46.66a1.72,1.72,0,0,1-1.72-1.72h0a1.72,1.72,0,0,1,1.72-1.72H176.83a1.72,1.72,0,0,1,1.72,1.72h0A1.72,1.72,0,0,1,176.83,156.11Z"/><path class="cls-4" d="M176.83,156.63H46.66a2.24,2.24,0,0,1,0-4.48H176.83a2.24,2.24,0,1,1,0,4.48ZM46.66,153.19a1.2,1.2,0,0,0,0,2.4H176.83a1.2,1.2,0,0,0,0-2.4Z"/><path class="cls-6" d="M161.25,151.11a.53.53,0,0,1-.52-.44l-2.95-18.75a.53.53,0,0,1,.43-.6.53.53,0,0,1,.6.44l3,18.75a.52.52,0,0,1-.44.59Z"/><path class="cls-6" d="M162.73,151.11a.52.52,0,0,1-.52-.49l-1.48-22.35a.52.52,0,1,1,1-.07l1.48,22.35a.53.53,0,0,1-.48.56Z"/><path class="cls-6" d="M163.86,151.11h-.05a.53.53,0,0,1-.47-.58l2-18.22a.52.52,0,1,1,1,.11l-2,18.22A.52.52,0,0,1,163.86,151.11Z"/><path class="cls-6" d="M162.73,151.11l-.14,0a.52.52,0,0,1-.36-.65l4.44-15.61a.52.52,0,0,1,.64-.36.52.52,0,0,1,.36.65l-4.44,15.61A.51.51,0,0,1,162.73,151.11Z"/><path class="cls-6" d="M163.86,151.11a.53.53,0,0,1-.48-.32L155.79,133a.52.52,0,1,1,1-.41l7.59,17.83a.53.53,0,0,1-.27.69A.52.52,0,0,1,163.86,151.11Z"/><path class="cls-5" d="M165.54,152.67h-5.62a.22.22,0,0,1-.2-.21l-1.43-11.83c0-.15.08-.29.2-.29H167a.24.24,0,0,1,.2.29l-1.43,11.83A.22.22,0,0,1,165.54,152.67Z"/><path class="cls-4" d="M165.54,153.19h-5.62a.73.73,0,0,1-.71-.67l-1.43-11.83a.8.8,0,0,1,.19-.63.69.69,0,0,1,.52-.24H167a.69.69,0,0,1,.52.24.8.8,0,0,1,.19.63l-1.43,11.83A.73.73,0,0,1,165.54,153.19Zm-5.33-1h5l1.36-11.29h-7.76Z"/><path class="cls-5" d="M44.23,84.76A16.63,16.63,0,1,1,60.85,68.14,16.65,16.65,0,0,1,44.23,84.76Z"/><path class="cls-4" d="M44.23,85.28A17.15,17.15,0,1,1,61.37,68.14,17.17,17.17,0,0,1,44.23,85.28Zm0-33.24a16.1,16.1,0,1,0,16.1,16.1A16.12,16.12,0,0,0,44.23,52Z"/><path class="cls-6" d="M49.2,71.55a3,3,0,0,0-2.23,1l-8.17-4.3a3.8,3.8,0,0,0,.05-.46,2.09,2.09,0,0,0,0-.35l8.11-3.15a3,3,0,1,0-.58-1.78c0,.12,0,.23,0,.34L38.26,66a3,3,0,1,0-.09,3.67l8.08,4.22a3.1,3.1,0,0,0-.08.69,3,3,0,1,0,3-3Z"/><circle class="cls-5" cx="211.78" cy="149.71" r="3.13"/><path class="cls-4" d="M211.78,153.36a3.65,3.65,0,1,1,3.65-3.65A3.66,3.66,0,0,1,211.78,153.36Zm0-6.25a2.61,2.61,0,1,0,2.6,2.6A2.6,2.6,0,0,0,211.78,147.11Z"/><circle class="cls-5" cx="46.55" cy="105.03" r="3.13"/><path class="cls-4" d="M46.55,108.68A3.65,3.65,0,1,1,50.19,105,3.65,3.65,0,0,1,46.55,108.68Zm0-6.25a2.6,2.6,0,1,0,2.6,2.6A2.6,2.6,0,0,0,46.55,102.43Z"/><path class="cls-3" d="M196.78,26.3H157.49a4.43,4.43,0,0,1,0-.52,7.25,7.25,0,0,1,3.65-6.09,5.4,5.4,0,0,1,2.51-.63h.15a5.42,5.42,0,0,1,2.56.73,12.28,12.28,0,0,1,7-6.61,10.12,10.12,0,0,1,3-.53,12.08,12.08,0,0,1,5.72,4.09,8.57,8.57,0,0,1,1.87-1c.28.26,5.29,0,6.1-.06C194,17.1,196.78,21.32,196.78,26.3Z"/><path class="cls-4" d="M190.1,15.66a8.22,8.22,0,0,0-3-.54,8.43,8.43,0,0,0-3.14.6,8.57,8.57,0,0,0-1.87,1,12.08,12.08,0,0,0-5.72-4.09,10.33,10.33,0,0,0-3.28-.52c-4.33,0-8.31,2.65-10.5,7a5.7,5.7,0,0,0-2.46-.55c-3.71,0-6.72,3.48-6.72,7.76a.52.52,0,0,0,.53.52h42.28a.52.52,0,0,0,.52-.52C196.78,21.32,194,17.1,190.1,15.66Zm-29.93,3.92a4.77,4.77,0,0,1,1,.11,5.37,5.37,0,0,1,1.45.56.53.53,0,0,0,.73-.23c.15-.33.31-.64.48-.95a10.85,10.85,0,0,1,9.31-5.89h.27a10.55,10.55,0,0,1,8.2,4.59A.52.52,0,0,0,182,18a.51.51,0,0,0,.39-.11,7.9,7.9,0,0,1,2.44-1.34,7.51,7.51,0,0,1,2.35-.38l.63,0c4.31.37,7.74,4.49,8,9.6H154.51C154.74,22.32,157.19,19.58,160.17,19.58Z"/><path class="cls-4" d="M381.8,226.08H.53a.52.52,0,1,1,0-1H381.8a.52.52,0,0,1,0,1Z"/><polygon class="cls-5" points="338.64 183.4 285.8 213.91 285.8 200.66 338.64 170.15 338.64 183.4"/><path class="cls-4" d="M285.8,214.43a.48.48,0,0,1-.26-.07.49.49,0,0,1-.26-.45V200.66a.52.52,0,0,1,.26-.46l52.84-30.51a.52.52,0,0,1,.78.45V183.4a.51.51,0,0,1-.26.45l-52.84,30.51A.48.48,0,0,1,285.8,214.43Zm.52-13.47v12l51.8-29.91v-12Zm52.32-17.56h0Z"/><polygon class="cls-5" points="232.95 183.4 285.8 213.91 285.8 200.66 232.95 170.15 232.95 183.4"/><path class="cls-4" d="M285.8,214.43a.48.48,0,0,1-.26-.07l-52.85-30.51a.51.51,0,0,1-.26-.45V170.14a.52.52,0,0,1,.78-.45l52.85,30.51a.54.54,0,0,1,.26.46v13.25a.51.51,0,0,1-.26.45A.48.48,0,0,1,285.8,214.43ZM233.47,183.1,285.28,213V201l-51.81-29.91Z"/><polygon class="cls-6" points="285.8 200.66 338.64 170.15 285.8 139.61 232.95 170.15 285.8 200.66"/><path class="cls-4" d="M285.8,201.18a.59.59,0,0,1-.26-.07L232.69,170.6a.53.53,0,0,1,0-.91l52.85-30.53a.53.53,0,0,1,.52,0l52.84,30.53a.53.53,0,0,1,0,.91l-52.84,30.51A.59.59,0,0,1,285.8,201.18Zm-51.81-31,51.81,29.91,51.8-29.91-51.8-29.93Z"/><path class="cls-3" d="M299.1,146l3,5-12.48-7.21a8.56,8.56,0,0,0-7.7,0l-9.52,5.49-15.31-9.5-12.35-1.48V166.5h0a2.7,2.7,0,0,0,1.59,2.22L282,189.27a8.56,8.56,0,0,0,7.7,0l35.59-20.55a2.71,2.71,0,0,0,1.58-2.22V138.24Z"/><path class="cls-4" d="M285.8,190.7a8.44,8.44,0,0,1-4.11-1L246.1,169.17a3.18,3.18,0,0,1-1.85-2.67V138.24a.52.52,0,0,1,.17-.39.55.55,0,0,1,.41-.13l12.35,1.48a.52.52,0,0,1,.21.07l15.05,9.34,9.25-5.33a9.09,9.09,0,0,1,8.22,0l10.71,6.18-2-3.21a.5.5,0,0,1,0-.46.52.52,0,0,1,.34-.31l27.72-7.74a.51.51,0,0,1,.66.5V166.5a3.19,3.19,0,0,1-1.84,2.67l-35.59,20.55A8.49,8.49,0,0,1,285.8,190.7Zm-40.51-51.87V166.5a2.2,2.2,0,0,0,1.33,1.77l35.59,20.55a8.07,8.07,0,0,0,7.17,0L325,168.27a2.21,2.21,0,0,0,1.32-1.77V138.93l-26.39,7.37,2.67,4.36a.53.53,0,0,1-.08.64.51.51,0,0,1-.63.09l-12.49-7.21a8.07,8.07,0,0,0-7.17,0l-9.51,5.49a.52.52,0,0,1-.54,0l-15.22-9.44Z"/><path class="cls-6" d="M325.24,140.46,289.65,161a8.56,8.56,0,0,1-7.7,0l-35.59-20.55c-2.12-1.22-2.12-3.22,0-4.44L282,115.47a8.56,8.56,0,0,1,7.7,0L325.24,136C327.35,137.24,327.35,139.24,325.24,140.46Z"/><path class="cls-4" d="M285.8,162.44a8.44,8.44,0,0,1-4.11-1L246.1,140.91a2.85,2.85,0,0,1,0-5.34L281.69,115a9.09,9.09,0,0,1,8.22,0l35.59,20.55a2.86,2.86,0,0,1,0,5.34l-35.59,20.55A8.49,8.49,0,0,1,285.8,162.44Zm0-47.36a7.38,7.38,0,0,0-3.59.84l-35.59,20.55a1.84,1.84,0,0,0,0,3.54l35.59,20.55a8.07,8.07,0,0,0,7.17,0L325,140a1.85,1.85,0,0,0,0-3.54l-35.6-20.55A7.37,7.37,0,0,0,285.8,115.08Zm39.44,25.38Z"/><path class="cls-5" d="M277.81,130.84l-11.63,6.72c-2.42,1.4-2.42,3.66,0,5.06l11.63,6.72a9.7,9.7,0,0,0,8.78,0l11.62-6.72c2.29-1.31,2.42-3.4.4-4.81l1-.57c3.44-2,3.44-5.21,0-7.2a13.81,13.81,0,0,0-12.46,0l-1,.57A9.84,9.84,0,0,0,277.81,130.84Zm-.27,9.59,2.9-.73.44-.11c-.23-.56,0-1.17.78-1.6a4.64,4.64,0,0,1,4.17,0,1.27,1.27,0,0,1,0,2.41,4.55,4.55,0,0,1-2.76.45l-.19.25-1.27,1.68a1.5,1.5,0,0,1-1.7.19l-1.35-.78-1.35-.78C276.69,141.11,276.86,140.6,277.54,140.43Zm11.62-9.22a9.32,9.32,0,0,1,8.42,0c2.33,1.34,2.33,3.52,0,4.86l-1,.56-8.42-4.86Z"/><path class="cls-4" d="M293.37,128.55A12.76,12.76,0,0,1,299.6,130c3.44,2,3.44,5.21,0,7.2l-1,.57c2,1.41,1.89,3.5-.4,4.81l-11.62,6.72a9.7,9.7,0,0,1-8.78,0l-11.63-6.72c-2.42-1.4-2.42-3.66,0-5.06l11.63-6.72a9,9,0,0,1,4.39-1.05,9.46,9.46,0,0,1,3.95.82l1-.57a12.76,12.76,0,0,1,6.23-1.49m3.24,8.08,1-.56c2.33-1.34,2.33-3.52,0-4.86a9.28,9.28,0,0,0-8.42,0l-1,.56,8.42,4.86m-16,6.51a1.19,1.19,0,0,0,1-.36l1.27-1.68.19-.25a5.06,5.06,0,0,0,.68.05,4.27,4.27,0,0,0,2.08-.5,1.27,1.27,0,0,0,0-2.41,4.6,4.6,0,0,0-4.17,0c-.75.43-1,1-.78,1.6l-.44.11-2.9.73c-.68.17-.85.68-.33,1l1.35.78,1.35.78a1.52,1.52,0,0,0,.74.17m12.72-15.63a13.67,13.67,0,0,0-6.75,1.63l-.54.31a10.79,10.79,0,0,0-3.88-.7,9.94,9.94,0,0,0-4.91,1.19l-11.63,6.71a3.7,3.7,0,0,0,0,6.88l11.63,6.71a10.72,10.72,0,0,0,9.82,0l11.63-6.71a4.12,4.12,0,0,0,2.33-3.31,3.42,3.42,0,0,0-.73-2.21,5.24,5.24,0,0,0,2.88-4.37c0-1.75-1.1-3.35-3.1-4.5a13.67,13.67,0,0,0-6.75-1.63Zm-3.05,4.29a8.16,8.16,0,0,1,3.05-.56,7.62,7.62,0,0,1,3.69.87c.78.45,1.22,1,1.22,1.53s-.44,1.08-1.22,1.53l-.45.26-6.29-3.63Zm-11.45,9.37,1.82-.46.44-.11a1.08,1.08,0,0,0,.68-.54,1.06,1.06,0,0,0,0-.87.92.92,0,0,1,.34-.3,3.37,3.37,0,0,1,1.57-.36,3.3,3.3,0,0,1,1.56.36.8.8,0,0,1,.35.31.9.9,0,0,1-.35.3,3.18,3.18,0,0,1-1.56.36,4.73,4.73,0,0,1-.54,0h-.14a1,1,0,0,0-.83.42l-.19.25-1.21,1.6-.19,0a1.08,1.08,0,0,1-.22,0l-1.35-.78-.21-.12Z"/><path class="cls-4" d="M327.15,48.41h-.87V42.77l-1.41,0v-.68l2.28-.23Z"/><path class="cls-4" d="M333.72,46.14a2.55,2.55,0,0,1-.56,1.73,1.9,1.9,0,0,1-1.49.64,1.92,1.92,0,0,1-1.5-.64,2.55,2.55,0,0,1-.56-1.73v-1.9a2.52,2.52,0,0,1,.56-1.72,1.85,1.85,0,0,1,1.49-.64,1.9,1.9,0,0,1,1.5.64,2.52,2.52,0,0,1,.56,1.72Zm-.88-2.08a1.75,1.75,0,0,0-.31-1.1,1.15,1.15,0,0,0-1.74,0,1.82,1.82,0,0,0-.31,1.1v2.25a1.77,1.77,0,0,0,.32,1.11,1.15,1.15,0,0,0,1.74,0,1.83,1.83,0,0,0,.3-1.11Z"/><path class="cls-4" d="M337.36,48.41h-.88V42.77l-1.4,0v-.68l2.28-.23Z"/><path class="cls-4" d="M342.46,48.41h-.87V42.77l-1.41,0v-.68l2.28-.23Z"/><path class="cls-4" d="M349,46.14a2.55,2.55,0,0,1-.56,1.73,2.07,2.07,0,0,1-3,0,2.55,2.55,0,0,1-.56-1.73v-1.9a2.52,2.52,0,0,1,.56-1.72,2.05,2.05,0,0,1,3,0,2.48,2.48,0,0,1,.57,1.72Zm-.88-2.08a1.75,1.75,0,0,0-.31-1.1,1.15,1.15,0,0,0-1.74,0,1.82,1.82,0,0,0-.31,1.1v2.25a1.77,1.77,0,0,0,.32,1.11,1,1,0,0,0,.87.4,1,1,0,0,0,.87-.4,1.83,1.83,0,0,0,.3-1.11Z"/><path class="cls-4" d="M352.67,48.41h-.88V42.77l-1.4,0v-.68l2.28-.23Z"/><path class="cls-4" d="M359.23,46.14a2.55,2.55,0,0,1-.55,1.73,1.92,1.92,0,0,1-1.5.64,1.9,1.9,0,0,1-1.49-.64,2.5,2.5,0,0,1-.56-1.73v-1.9a2.52,2.52,0,0,1,.55-1.72,2.07,2.07,0,0,1,3,0,2.52,2.52,0,0,1,.56,1.72Zm-.87-2.08a1.75,1.75,0,0,0-.31-1.1,1.16,1.16,0,0,0-1.75,0,1.82,1.82,0,0,0-.3,1.1v2.25a1.76,1.76,0,0,0,.31,1.11,1,1,0,0,0,.87.4,1,1,0,0,0,.87-.4,1.76,1.76,0,0,0,.31-1.11Z"/><path class="cls-4" d="M364.33,46.14a2.55,2.55,0,0,1-.55,1.73,2.07,2.07,0,0,1-3,0,2.55,2.55,0,0,1-.56-1.73v-1.9a2.52,2.52,0,0,1,.56-1.72,2.05,2.05,0,0,1,3,0,2.48,2.48,0,0,1,.56,1.72Zm-.87-2.08a1.75,1.75,0,0,0-.31-1.1,1.05,1.05,0,0,0-.87-.4,1,1,0,0,0-.87.4,1.75,1.75,0,0,0-.31,1.1v2.25a1.83,1.83,0,0,0,.31,1.11,1.16,1.16,0,0,0,1.75,0,1.83,1.83,0,0,0,.3-1.11Z"/><path class="cls-4" d="M368,48.41h-.88V42.77l-1.4,0v-.68l2.28-.23Z"/><path class="cls-4" d="M374.54,46.14a2.5,2.5,0,0,1-.56,1.73,2.05,2.05,0,0,1-3,0,2.5,2.5,0,0,1-.56-1.73v-1.9a2.52,2.52,0,0,1,.55-1.72,2.07,2.07,0,0,1,3,0,2.52,2.52,0,0,1,.56,1.72Zm-.87-2.08a1.75,1.75,0,0,0-.31-1.1,1.16,1.16,0,0,0-1.75,0,1.82,1.82,0,0,0-.3,1.1v2.25a1.76,1.76,0,0,0,.31,1.11,1,1,0,0,0,.87.4,1,1,0,0,0,.87-.4,1.76,1.76,0,0,0,.31-1.11Z"/><path class="cls-4" d="M328.61,57a2.58,2.58,0,0,1-.55,1.74,2.09,2.09,0,0,1-3,0,2.58,2.58,0,0,1-.56-1.74V55.12a2.57,2.57,0,0,1,.56-1.73,1.88,1.88,0,0,1,1.48-.64,1.91,1.91,0,0,1,1.5.64,2.52,2.52,0,0,1,.56,1.73Zm-.87-2.07a1.75,1.75,0,0,0-.31-1.1,1,1,0,0,0-.88-.4,1,1,0,0,0-.86.4,1.75,1.75,0,0,0-.31,1.1v2.25a1.8,1.8,0,0,0,.31,1.1,1,1,0,0,0,.87.41,1,1,0,0,0,.88-.4,1.83,1.83,0,0,0,.3-1.11Z"/><path class="cls-4" d="M333.72,57a2.58,2.58,0,0,1-.56,1.74,1.89,1.89,0,0,1-1.49.63,1.91,1.91,0,0,1-1.5-.63,2.58,2.58,0,0,1-.56-1.74V55.12a2.57,2.57,0,0,1,.56-1.73,1.88,1.88,0,0,1,1.49-.64,1.93,1.93,0,0,1,1.5.64,2.57,2.57,0,0,1,.56,1.73Zm-.88-2.07a1.75,1.75,0,0,0-.31-1.1,1.15,1.15,0,0,0-1.74,0,1.82,1.82,0,0,0-.31,1.1v2.25a1.73,1.73,0,0,0,.32,1.1,1,1,0,0,0,.87.41,1,1,0,0,0,.87-.4,1.83,1.83,0,0,0,.3-1.11Z"/><path class="cls-4" d="M337.36,59.29h-.88V53.65h-1.4V53l2.28-.24Z"/><path class="cls-4" d="M343.92,57a2.58,2.58,0,0,1-.55,1.74,2.09,2.09,0,0,1-3,0,2.58,2.58,0,0,1-.56-1.74V55.12a2.52,2.52,0,0,1,.56-1.73,1.88,1.88,0,0,1,1.48-.64,1.91,1.91,0,0,1,1.5.64,2.52,2.52,0,0,1,.56,1.73Zm-.87-2.07a1.75,1.75,0,0,0-.31-1.1,1,1,0,0,0-.88-.4,1,1,0,0,0-.86.4,1.75,1.75,0,0,0-.31,1.1v2.25a1.8,1.8,0,0,0,.31,1.1,1,1,0,0,0,.87.41,1,1,0,0,0,.88-.4,1.83,1.83,0,0,0,.3-1.11Z"/><path class="cls-4" d="M349,57a2.58,2.58,0,0,1-.56,1.74,2.09,2.09,0,0,1-3,0,2.58,2.58,0,0,1-.56-1.74V55.12a2.57,2.57,0,0,1,.56-1.73,2.05,2.05,0,0,1,3,0,2.52,2.52,0,0,1,.57,1.73Zm-.88-2.07a1.75,1.75,0,0,0-.31-1.1,1.15,1.15,0,0,0-1.74,0,1.82,1.82,0,0,0-.31,1.1v2.25a1.73,1.73,0,0,0,.32,1.1,1,1,0,0,0,.87.41,1,1,0,0,0,.87-.4,1.83,1.83,0,0,0,.3-1.11Z"/><path class="cls-4" d="M352.67,59.29h-.88V53.65h-1.4V53l2.28-.24Z"/><path class="cls-4" d="M357.77,59.29h-.88V53.65h-1.4V53l2.28-.24Z"/><path class="cls-4" d="M364.33,57a2.58,2.58,0,0,1-.55,1.74,2.09,2.09,0,0,1-3,0,2.58,2.58,0,0,1-.56-1.74V55.12a2.57,2.57,0,0,1,.56-1.73,2.05,2.05,0,0,1,3,0,2.52,2.52,0,0,1,.56,1.73Zm-.87-2.07a1.75,1.75,0,0,0-.31-1.1,1,1,0,0,0-.87-.4,1,1,0,0,0-.87.4,1.75,1.75,0,0,0-.31,1.1v2.25a1.8,1.8,0,0,0,.31,1.1,1,1,0,0,0,.87.41,1,1,0,0,0,.88-.4,1.83,1.83,0,0,0,.3-1.11Z"/><path class="cls-4" d="M368,59.29h-.88V53.65h-1.4V53l2.28-.24Z"/><path class="cls-4" d="M373.08,59.29h-.88V53.65h-1.4V53l2.28-.24Z"/><path class="cls-4" d="M327.15,70.17h-.87V64.53h-1.41v-.67l2.28-.24Z"/><path class="cls-4" d="M332.26,70.17h-.88V64.53H330v-.67l2.28-.24Z"/><path class="cls-4" d="M338.82,67.89a2.53,2.53,0,0,1-.56,1.73,2.05,2.05,0,0,1-3,0,2.49,2.49,0,0,1-.56-1.73V66a2.55,2.55,0,0,1,.55-1.73,2.07,2.07,0,0,1,3,0,2.55,2.55,0,0,1,.56,1.73ZM338,65.82a1.8,1.8,0,0,0-.31-1.1,1.16,1.16,0,0,0-1.75,0,1.8,1.8,0,0,0-.3,1.1v2.25a1.75,1.75,0,0,0,.31,1.1,1,1,0,0,0,.87.41,1,1,0,0,0,.87-.41,1.82,1.82,0,0,0,.31-1.1Z"/><path class="cls-4" d="M342.46,70.17h-.87V64.53h-1.41v-.67l2.28-.24Z"/><path class="cls-4" d="M349,67.89a2.53,2.53,0,0,1-.56,1.73,2.07,2.07,0,0,1-3,0,2.53,2.53,0,0,1-.56-1.73V66a2.55,2.55,0,0,1,.56-1.73,2.05,2.05,0,0,1,3,0A2.51,2.51,0,0,1,349,66Zm-.88-2.07a1.73,1.73,0,0,0-.31-1.1,1.15,1.15,0,0,0-1.74,0,1.8,1.8,0,0,0-.31,1.1v2.25a1.75,1.75,0,0,0,.32,1.1,1,1,0,0,0,.87.41,1,1,0,0,0,.87-.41,1.82,1.82,0,0,0,.3-1.1Z"/><path class="cls-4" d="M352.67,70.17h-.88V64.53h-1.4v-.67l2.28-.24Z"/><path class="cls-4" d="M357.77,70.17h-.88V64.53h-1.4v-.67l2.28-.24Z"/><path class="cls-4" d="M364.33,67.89a2.53,2.53,0,0,1-.55,1.73,2.07,2.07,0,0,1-3,0,2.53,2.53,0,0,1-.56-1.73V66a2.55,2.55,0,0,1,.56-1.73,2.05,2.05,0,0,1,3,0,2.5,2.5,0,0,1,.56,1.73Zm-.87-2.07a1.73,1.73,0,0,0-.31-1.1,1,1,0,0,0-.87-.4,1,1,0,0,0-.87.4,1.73,1.73,0,0,0-.31,1.1v2.25a1.82,1.82,0,0,0,.31,1.1,1.14,1.14,0,0,0,1.75,0,1.82,1.82,0,0,0,.3-1.1Z"/><path class="cls-4" d="M368,70.17h-.88V64.53h-1.4v-.67l2.28-.24Z"/><path class="cls-4" d="M374.54,67.89a2.49,2.49,0,0,1-.56,1.73,2.05,2.05,0,0,1-3,0,2.49,2.49,0,0,1-.56-1.73V66a2.55,2.55,0,0,1,.55-1.73,2.07,2.07,0,0,1,3,0,2.55,2.55,0,0,1,.56,1.73Zm-.87-2.07a1.73,1.73,0,0,0-.31-1.1,1.16,1.16,0,0,0-1.75,0,1.8,1.8,0,0,0-.3,1.1v2.25a1.75,1.75,0,0,0,.31,1.1,1,1,0,0,0,.87.41,1,1,0,0,0,.87-.41,1.75,1.75,0,0,0,.31-1.1Z"/><path class="cls-4" d="M327.15,81h-.87V75.41h-1.41v-.67l2.28-.24Z"/><path class="cls-4" d="M333.72,78.77a2.55,2.55,0,0,1-.56,1.73,1.9,1.9,0,0,1-1.49.64,1.92,1.92,0,0,1-1.5-.64,2.55,2.55,0,0,1-.56-1.73v-1.9a2.54,2.54,0,0,1,.56-1.72,1.85,1.85,0,0,1,1.49-.64,1.9,1.9,0,0,1,1.5.64,2.54,2.54,0,0,1,.56,1.72Zm-.88-2.08a1.7,1.7,0,0,0-.31-1.09,1.13,1.13,0,0,0-1.74,0,1.77,1.77,0,0,0-.31,1.09V79a1.75,1.75,0,0,0,.32,1.1,1.13,1.13,0,0,0,1.74,0,1.82,1.82,0,0,0,.3-1.1Z"/><path class="cls-4" d="M338.82,78.77a2.55,2.55,0,0,1-.56,1.73,2.05,2.05,0,0,1-3,0,2.5,2.5,0,0,1-.56-1.73v-1.9a2.54,2.54,0,0,1,.55-1.72,2.07,2.07,0,0,1,3,0,2.54,2.54,0,0,1,.56,1.72ZM338,76.69a1.77,1.77,0,0,0-.31-1.09,1.14,1.14,0,0,0-1.75,0,1.76,1.76,0,0,0-.3,1.09V79a1.75,1.75,0,0,0,.31,1.1,1,1,0,0,0,.87.41,1,1,0,0,0,.87-.41A1.82,1.82,0,0,0,338,79Z"/><path class="cls-4" d="M342.46,81h-.87V75.41h-1.41v-.67l2.28-.24Z"/><path class="cls-4" d="M347.57,81h-.88V75.41h-1.4v-.67l2.28-.24Z"/><path class="cls-4" d="M354.13,78.77a2.55,2.55,0,0,1-.56,1.73,2.05,2.05,0,0,1-3,0,2.51,2.51,0,0,1-.57-1.73v-1.9a2.54,2.54,0,0,1,.56-1.72,2.07,2.07,0,0,1,3,0,2.54,2.54,0,0,1,.56,1.72Zm-.87-2.08A1.77,1.77,0,0,0,353,75.6a1.14,1.14,0,0,0-1.75,0,1.76,1.76,0,0,0-.3,1.09V79a1.75,1.75,0,0,0,.31,1.1,1,1,0,0,0,.87.41,1,1,0,0,0,.87-.41,1.82,1.82,0,0,0,.31-1.1Z"/><path class="cls-4" d="M357.77,81h-.88V75.41h-1.4v-.67l2.28-.24Z"/><path class="cls-4" d="M364.33,78.77a2.55,2.55,0,0,1-.55,1.73,2.07,2.07,0,0,1-3,0,2.55,2.55,0,0,1-.56-1.73v-1.9a2.54,2.54,0,0,1,.56-1.72,2.05,2.05,0,0,1,3,0,2.49,2.49,0,0,1,.56,1.72Zm-.87-2.08a1.7,1.7,0,0,0-.31-1.09,1,1,0,0,0-.87-.41,1,1,0,0,0-.87.41,1.7,1.7,0,0,0-.31,1.09V79a1.82,1.82,0,0,0,.31,1.1,1.14,1.14,0,0,0,1.75,0,1.82,1.82,0,0,0,.3-1.1Z"/><path class="cls-4" d="M369.44,78.77a2.55,2.55,0,0,1-.56,1.73,1.9,1.9,0,0,1-1.49.64,1.92,1.92,0,0,1-1.5-.64,2.55,2.55,0,0,1-.56-1.73v-1.9a2.54,2.54,0,0,1,.56-1.72,1.87,1.87,0,0,1,1.49-.64,1.9,1.9,0,0,1,1.5.64,2.54,2.54,0,0,1,.56,1.72Zm-.88-2.08a1.76,1.76,0,0,0-.3-1.09,1.05,1.05,0,0,0-.88-.41,1,1,0,0,0-.87.41,1.76,1.76,0,0,0-.3,1.09V79a1.75,1.75,0,0,0,.31,1.1,1,1,0,0,0,.87.41,1,1,0,0,0,.87-.41,1.82,1.82,0,0,0,.3-1.1Z"/><path class="cls-4" d="M373.08,81h-.88V75.41h-1.4v-.67l2.28-.24Z"/><path class="cls-4" d="M328.61,89.65a2.55,2.55,0,0,1-.55,1.73,2.09,2.09,0,0,1-3,0,2.55,2.55,0,0,1-.56-1.73v-1.9a2.52,2.52,0,0,1,.56-1.72,1.85,1.85,0,0,1,1.48-.65,1.88,1.88,0,0,1,1.5.65,2.48,2.48,0,0,1,.56,1.72Zm-.87-2.08a1.75,1.75,0,0,0-.31-1.1,1,1,0,0,0-.88-.4,1,1,0,0,0-.86.4,1.75,1.75,0,0,0-.31,1.1v2.25a1.85,1.85,0,0,0,.31,1.11,1.16,1.16,0,0,0,1.75,0,1.83,1.83,0,0,0,.3-1.11Z"/><path class="cls-4" d="M332.26,91.92h-.88V86.28l-1.4,0v-.68l2.28-.24Z"/><path class="cls-4" d="M337.36,91.92h-.88V86.28l-1.4,0v-.68l2.28-.24Z"/><path class="cls-4" d="M343.92,89.65a2.55,2.55,0,0,1-.55,1.73,2.09,2.09,0,0,1-3,0,2.55,2.55,0,0,1-.56-1.73v-1.9a2.48,2.48,0,0,1,.56-1.72,1.85,1.85,0,0,1,1.48-.65,1.88,1.88,0,0,1,1.5.65,2.48,2.48,0,0,1,.56,1.72Zm-.87-2.08a1.75,1.75,0,0,0-.31-1.1,1,1,0,0,0-.88-.4,1,1,0,0,0-.86.4,1.75,1.75,0,0,0-.31,1.1v2.25a1.85,1.85,0,0,0,.31,1.11,1.16,1.16,0,0,0,1.75,0,1.83,1.83,0,0,0,.3-1.11Z"/><path class="cls-4" d="M347.57,91.92h-.88V86.28l-1.4,0v-.68l2.28-.24Z"/><path class="cls-4" d="M354.13,89.65a2.55,2.55,0,0,1-.56,1.73,2.08,2.08,0,0,1-3,0,2.51,2.51,0,0,1-.57-1.73v-1.9a2.52,2.52,0,0,1,.56-1.72,2,2,0,0,1,3,0,2.52,2.52,0,0,1,.56,1.72Zm-.87-2.08a1.82,1.82,0,0,0-.31-1.1,1.16,1.16,0,0,0-1.75,0,1.82,1.82,0,0,0-.3,1.1v2.25a1.78,1.78,0,0,0,.31,1.11,1,1,0,0,0,.87.4,1,1,0,0,0,.87-.4,1.83,1.83,0,0,0,.31-1.11Z"/><path class="cls-4" d="M359.23,89.65a2.55,2.55,0,0,1-.55,1.73,1.91,1.91,0,0,1-1.5.63,1.89,1.89,0,0,1-1.49-.63,2.5,2.5,0,0,1-.56-1.73v-1.9a2.52,2.52,0,0,1,.55-1.72,2,2,0,0,1,3,0,2.52,2.52,0,0,1,.56,1.72Zm-.87-2.08a1.75,1.75,0,0,0-.31-1.1,1.16,1.16,0,0,0-1.75,0,1.82,1.82,0,0,0-.3,1.1v2.25a1.78,1.78,0,0,0,.31,1.11,1,1,0,0,0,.87.4,1,1,0,0,0,.87-.4,1.76,1.76,0,0,0,.31-1.11Z"/><path class="cls-4" d="M364.33,89.65a2.55,2.55,0,0,1-.55,1.73,2.09,2.09,0,0,1-3,0,2.55,2.55,0,0,1-.56-1.73v-1.9a2.52,2.52,0,0,1,.56-1.72,2,2,0,0,1,3,0,2.48,2.48,0,0,1,.56,1.72Zm-.87-2.08a1.75,1.75,0,0,0-.31-1.1,1,1,0,0,0-.87-.4,1,1,0,0,0-.87.4,1.75,1.75,0,0,0-.31,1.1v2.25a1.85,1.85,0,0,0,.31,1.11,1.16,1.16,0,0,0,1.75,0,1.83,1.83,0,0,0,.3-1.11Z"/><path class="cls-4" d="M368,91.92h-.88V86.28l-1.4,0v-.68l2.28-.24Z"/><path class="cls-4" d="M374.54,89.65a2.5,2.5,0,0,1-.56,1.73,2.08,2.08,0,0,1-3,0,2.5,2.5,0,0,1-.56-1.73v-1.9A2.52,2.52,0,0,1,371,86a2,2,0,0,1,3,0,2.52,2.52,0,0,1,.56,1.72Zm-.87-2.08a1.75,1.75,0,0,0-.31-1.1,1.16,1.16,0,0,0-1.75,0,1.82,1.82,0,0,0-.3,1.1v2.25a1.78,1.78,0,0,0,.31,1.11,1,1,0,0,0,.87.4,1,1,0,0,0,.87-.4,1.76,1.76,0,0,0,.31-1.11Z"/><path class="cls-4" d="M327.15,102.8h-.87V97.16h-1.41V96.5l2.28-.24Z"/><path class="cls-4" d="M333.72,100.52a2.53,2.53,0,0,1-.56,1.73,1.87,1.87,0,0,1-1.49.64,1.89,1.89,0,0,1-1.5-.64,2.53,2.53,0,0,1-.56-1.73V98.63a2.57,2.57,0,0,1,.56-1.73,1.88,1.88,0,0,1,1.49-.64,1.93,1.93,0,0,1,1.5.64,2.57,2.57,0,0,1,.56,1.73Zm-.88-2.07a1.73,1.73,0,0,0-.31-1.1,1.15,1.15,0,0,0-1.74,0,1.8,1.8,0,0,0-.31,1.1v2.25a1.75,1.75,0,0,0,.32,1.1,1.13,1.13,0,0,0,1.74,0,1.8,1.8,0,0,0,.3-1.1Z"/><path class="cls-4" d="M338.82,100.52a2.53,2.53,0,0,1-.56,1.73,2.05,2.05,0,0,1-3,0,2.49,2.49,0,0,1-.56-1.73V98.63a2.57,2.57,0,0,1,.55-1.73,2.07,2.07,0,0,1,3,0,2.57,2.57,0,0,1,.56,1.73ZM338,98.45a1.8,1.8,0,0,0-.31-1.1,1.16,1.16,0,0,0-1.75,0,1.8,1.8,0,0,0-.3,1.1v2.25a1.75,1.75,0,0,0,.31,1.1,1,1,0,0,0,.87.41,1,1,0,0,0,.87-.41,1.8,1.8,0,0,0,.31-1.1Z"/><path class="cls-4" d="M343.92,100.52a2.53,2.53,0,0,1-.55,1.73,2.07,2.07,0,0,1-3,0,2.53,2.53,0,0,1-.56-1.73V98.63a2.52,2.52,0,0,1,.56-1.73,1.88,1.88,0,0,1,1.48-.64,1.91,1.91,0,0,1,1.5.64,2.52,2.52,0,0,1,.56,1.73Zm-.87-2.07a1.73,1.73,0,0,0-.31-1.1,1,1,0,0,0-.88-.4,1,1,0,0,0-.86.4,1.73,1.73,0,0,0-.31,1.1v2.25a1.82,1.82,0,0,0,.31,1.1,1.14,1.14,0,0,0,1.75,0,1.8,1.8,0,0,0,.3-1.1Z"/><path class="cls-4" d="M347.57,102.8h-.88V97.16h-1.4V96.5l2.28-.24Z"/><path class="cls-4" d="M352.67,102.8h-.88V97.16h-1.4V96.5l2.28-.24Z"/><path class="cls-4" d="M359.23,100.52a2.53,2.53,0,0,1-.55,1.73,1.89,1.89,0,0,1-1.5.64,1.87,1.87,0,0,1-1.49-.64,2.49,2.49,0,0,1-.56-1.73V98.63a2.57,2.57,0,0,1,.55-1.73,2.07,2.07,0,0,1,3,0,2.57,2.57,0,0,1,.56,1.73Zm-.87-2.07a1.73,1.73,0,0,0-.31-1.1,1.16,1.16,0,0,0-1.75,0,1.8,1.8,0,0,0-.3,1.1v2.25a1.75,1.75,0,0,0,.31,1.1,1,1,0,0,0,.87.41,1,1,0,0,0,.87-.41,1.73,1.73,0,0,0,.31-1.1Z"/><path class="cls-4" d="M362.87,102.8H362V97.16h-1.41V96.5l2.28-.24Z"/><path class="cls-4" d="M369.44,100.52a2.53,2.53,0,0,1-.56,1.73,1.87,1.87,0,0,1-1.49.64,1.89,1.89,0,0,1-1.5-.64,2.53,2.53,0,0,1-.56-1.73V98.63a2.57,2.57,0,0,1,.56-1.73,1.9,1.9,0,0,1,1.49-.64,1.93,1.93,0,0,1,1.5.64,2.57,2.57,0,0,1,.56,1.73Zm-.88-2.07a1.8,1.8,0,0,0-.3-1.1,1,1,0,0,0-.88-.4,1,1,0,0,0-.87.4,1.8,1.8,0,0,0-.3,1.1v2.25a1.75,1.75,0,0,0,.31,1.1,1,1,0,0,0,.87.41,1,1,0,0,0,.87-.41,1.8,1.8,0,0,0,.3-1.1Z"/><path class="cls-4" d="M373.08,102.8h-.88V97.16h-1.4V96.5l2.28-.24Z"/></g></g></svg>