<svg id="Layer_1" data-name="Layer 1" xmlns="http://www.w3.org/2000/svg" viewBox="0 0 347.12 231.8"><defs><style>.cls-1{fill:none;}.cls-2,.cls-7{fill:#fff;}.cls-3{fill:#010101;}.cls-4{fill:#e4e9f6;}.cls-5{fill:#9ab6df;}.cls-6{fill:#5b73b7;}.cls-7{stroke:#010101;stroke-miterlimit:10;stroke-width:0.5px;}</style></defs><rect class="cls-1" x="0.34" y="6.51" width="318.47" height="285.2" rx="62.31"/><rect class="cls-1" x="0.34" y="6.51" width="315.37" height="282.15" rx="58.74"/><path class="cls-2" d="M322.61,136.1a7.09,7.09,0,0,1-7.08,7.11H107.24a7.09,7.09,0,0,1-7.08-7.11v-2.6l5.24-2.74H320.89l1.72,2.74Z"/><path class="cls-3" d="M315.53,143.49H107.24a7.38,7.38,0,0,1-7.36-7.39.28.28,0,0,1,.56,0,6.82,6.82,0,0,0,6.8,6.83H315.53a6.82,6.82,0,0,0,6.8-6.83.27.27,0,0,1,.28-.27.28.28,0,0,1,.28.27A7.38,7.38,0,0,1,315.53,143.49Z"/><path class="cls-2" d="M175.87,143.21h71A5.09,5.09,0,0,1,252,148.3v16.49a0,0,0,0,1,0,0H170.78a0,0,0,0,1,0,0V148.3A5.09,5.09,0,0,1,175.87,143.21Z" transform="translate(422.77 308) rotate(180)"/><path class="cls-3" d="M246.73,165.06H176a5.54,5.54,0,0,1-5.54-5.53V143.21a.29.29,0,0,1,.28-.28H252a.29.29,0,0,1,.28.28v16.32A5.54,5.54,0,0,1,246.73,165.06Zm-75.67-21.57v16a5,5,0,0,0,5,5h70.69a5,5,0,0,0,5-5v-16Z"/><path class="cls-3" d="M249,148.56H173.81a.28.28,0,0,1-.28-.28.27.27,0,0,1,.28-.28H249a.27.27,0,0,1,.28.28A.28.28,0,0,1,249,148.56Z"/><path class="cls-2" d="M100.16.33H322.61a0,0,0,0,1,0,0V127.54a6,6,0,0,1-6,6H106.12a6,6,0,0,1-6-6V.33a0,0,0,0,1,0,0Z" transform="translate(422.77 133.82) rotate(180)"/><path class="cls-3" d="M322.61,133.78H100.16a.29.29,0,0,1-.28-.28V6.53A6.49,6.49,0,0,1,106.37.05h210a6.49,6.49,0,0,1,6.49,6.48v127A.29.29,0,0,1,322.61,133.78Zm-222.17-.56H322.33V6.53A5.94,5.94,0,0,0,316.4.6h-210a5.94,5.94,0,0,0-5.93,5.93Z"/><rect class="cls-2" x="225.98" y="154.59" width="120.8" height="76.89" rx="7.36"/><path class="cls-3" d="M339.44,231.75H233.33a7.63,7.63,0,0,1-7.63-7.62v-62.2a7.63,7.63,0,0,1,7.63-7.62H339.44a7.63,7.63,0,0,1,7.62,7.62v62.2A7.63,7.63,0,0,1,339.44,231.75ZM233.33,154.86a7.08,7.08,0,0,0-7.07,7.07v62.2a7.07,7.07,0,0,0,7.07,7.06H339.44a7.07,7.07,0,0,0,7.06-7.06v-62.2a7.07,7.07,0,0,0-7.06-7.07Z"/><rect class="cls-4" x="233.23" y="161.5" width="106.3" height="63.06" rx="2.24"/><path class="cls-5" d="M238.56,172a1.54,1.54,0,0,1-1.29-1,4.39,4.39,0,0,1-.48-2.09,4.57,4.57,0,0,1,.46-2.09,1.54,1.54,0,0,1,1.29-1h0a1.56,1.56,0,0,1,1.3.95,4.54,4.54,0,0,1,.47,2.09,4.39,4.39,0,0,1-.46,2.09,1.54,1.54,0,0,1-1.29,1Zm0-5.54h0c-.28,0-.58.24-.8.66a3.86,3.86,0,0,0-.39,1.83,3.81,3.81,0,0,0,.41,1.83c.22.42.52.66.8.66h0c.29,0,.58-.25.8-.67a3.93,3.93,0,0,0,.4-1.83,4,4,0,0,0-.41-1.82C239.12,166.66,238.83,166.42,238.54,166.42Z"/><path class="cls-5" d="M243.43,171.85a.29.29,0,0,1-.28-.28l0-5-1.44,1a.28.28,0,0,1-.39-.06.28.28,0,0,1,.07-.39l1.88-1.34a.27.27,0,0,1,.29,0,.28.28,0,0,1,.15.24l0,5.57a.28.28,0,0,1-.28.28Z"/><path class="cls-5" d="M255,171.89c-1,0-1.76-1.34-1.77-3s.76-3,1.75-3.06h0c1,0,1.77,1.34,1.77,3s-.76,3-1.74,3.06Zm0-5.54h0c-.57,0-1.2,1-1.19,2.5s.64,2.48,1.21,2.48h0c.57,0,1.2-1,1.2-2.49S255.52,166.35,255,166.35Z"/><path class="cls-5" d="M263.39,171.85c-1,0-1.76-1.33-1.77-3s.76-3.05,1.75-3.05h0c1,0,1.76,1.33,1.77,3s-.76,3-1.75,3Zm0-5.54h0c-.57,0-1.21,1-1.2,2.5s.64,2.49,1.21,2.49h0c.57,0,1.2-1,1.19-2.5S264,166.31,263.38,166.31Z"/><path class="cls-5" d="M268.24,171.83c-1,0-1.77-1.33-1.77-3s.76-3,1.75-3h0c1,0,1.76,1.33,1.77,3s-.76,3.05-1.75,3.05Zm0-5.54h0c-.57,0-1.2,1-1.2,2.5s.65,2.49,1.22,2.49h0c.57,0,1.2-1,1.19-2.5S268.79,166.29,268.22,166.29Z"/><path class="cls-5" d="M298.42,171.71a1.57,1.57,0,0,1-1.3-1,4.93,4.93,0,0,1,0-4.18,1.56,1.56,0,0,1,1.29-1h0c1,0,1.77,1.34,1.77,3a4.46,4.46,0,0,1-.46,2.1,1.51,1.51,0,0,1-1.29,1Zm0-5.54h0c-.28,0-.58.25-.8.67a3.81,3.81,0,0,0-.39,1.83,3.91,3.91,0,0,0,.4,1.82c.23.42.52.66.81.66h0c.29,0,.58-.24.8-.66a4,4,0,0,0,.4-1.83C299.61,167.19,299,166.17,298.4,166.17Z"/><path class="cls-5" d="M259.84,171.78a.27.27,0,0,1-.27-.28l0-5-1.44,1a.28.28,0,1,1-.32-.46l1.88-1.34a.28.28,0,0,1,.29,0,.28.28,0,0,1,.15.25l0,5.56a.27.27,0,0,1-.28.28Z"/><path class="cls-5" d="M273.15,171.81c-1,0-1.76-1.33-1.77-3a4.54,4.54,0,0,1,.46-2.09,1.54,1.54,0,0,1,1.29-1h0c1,0,1.77,1.33,1.77,3s-.76,3.05-1.75,3.05Zm0-5.54h0c-.28,0-.57.25-.8.67a3.86,3.86,0,0,0-.39,1.83c0,1.47.64,2.49,1.21,2.49h0c.57,0,1.2-1,1.2-2.5S273.7,166.27,273.13,166.27Z"/><path class="cls-5" d="M281.57,171.78c-1,0-1.76-1.33-1.77-3a4.51,4.51,0,0,1,.46-2.09,1.55,1.55,0,0,1,1.29-1h0c1,0,1.76,1.34,1.77,3s-.76,3.06-1.75,3.06Zm0-5.54h0c-.28,0-.57.24-.8.67a4.06,4.06,0,0,0-.39,1.83c0,1.46.64,2.48,1.21,2.48h0c.57,0,1.2-1,1.19-2.49S282.13,166.24,281.56,166.24Z"/><path class="cls-5" d="M278,171.71a.29.29,0,0,1-.28-.28l0-5-1.44,1a.28.28,0,0,1-.39-.06A.28.28,0,0,1,276,167l1.88-1.34a.27.27,0,0,1,.29,0,.27.27,0,0,1,.15.24l0,5.57a.28.28,0,0,1-.28.28Z"/><path class="cls-5" d="M286.66,171.67a.27.27,0,0,1-.28-.28l0-5-1.44,1a.28.28,0,0,1-.39-.07.28.28,0,0,1,.06-.39l1.88-1.34a.28.28,0,0,1,.29,0,.28.28,0,0,1,.15.25l0,5.56a.28.28,0,0,1-.28.28Z"/><path class="cls-5" d="M290.73,171.65a.27.27,0,0,1-.28-.27l0-5-1.44,1a.28.28,0,0,1-.39-.07.27.27,0,0,1,.06-.38l1.88-1.35a.3.3,0,0,1,.29,0,.29.29,0,0,1,.15.25l0,5.57a.28.28,0,0,1-.28.27Z"/><path class="cls-5" d="M294.8,171.64a.29.29,0,0,1-.28-.28l0-5-1.44,1a.28.28,0,1,1-.33-.45l1.88-1.34a.28.28,0,0,1,.29,0,.25.25,0,0,1,.15.24l0,5.57a.29.29,0,0,1-.28.28Z"/><path class="cls-5" d="M307.05,171.67a1.52,1.52,0,0,1-1.29-.95,4.51,4.51,0,0,1-.48-2.09,4.57,4.57,0,0,1,.46-2.09,1.54,1.54,0,0,1,1.29-1h0a1.54,1.54,0,0,1,1.29.95,4.64,4.64,0,0,1,.48,2.09,4.54,4.54,0,0,1-.46,2.09,1.54,1.54,0,0,1-1.29,1Zm0-5.53h0c-.28,0-.57.24-.8.66a4.12,4.12,0,0,0-.39,1.83,4,4,0,0,0,.41,1.83c.23.42.52.66.8.66h0c.29,0,.58-.25.81-.67a4.06,4.06,0,0,0,.39-1.83,3.91,3.91,0,0,0-.41-1.82C307.61,166.38,307.32,166.14,307,166.14Z"/><path class="cls-5" d="M303.43,171.6a.28.28,0,0,1-.28-.27l0-5-1.44,1a.28.28,0,0,1-.32-.46l1.88-1.34a.27.27,0,0,1,.29,0,.28.28,0,0,1,.15.25l0,5.56a.27.27,0,0,1-.28.28Z"/><path class="cls-5" d="M247.39,171.83a.27.27,0,0,1-.28-.27l0-5-1.44,1a.28.28,0,0,1-.39-.07.28.28,0,0,1,.06-.39l1.88-1.34a.28.28,0,0,1,.29,0,.28.28,0,0,1,.15.25l0,5.56a.28.28,0,0,1-.28.28Z"/><path class="cls-5" d="M251.34,171.82a.29.29,0,0,1-.28-.28l0-5-1.44,1a.28.28,0,0,1-.39-.06.28.28,0,0,1,.07-.39l1.88-1.34a.27.27,0,0,1,.29,0,.27.27,0,0,1,.15.24l0,5.57a.28.28,0,0,1-.28.28Z"/><path class="cls-5" d="M312,171.7a1.57,1.57,0,0,1-1.3-.95,4.93,4.93,0,0,1,0-4.18,1.52,1.52,0,0,1,1.29-1h0a1.55,1.55,0,0,1,1.3.95,4.51,4.51,0,0,1,.47,2.09,4.42,4.42,0,0,1-.46,2.09,1.51,1.51,0,0,1-1.29,1Zm0-5.54h0c-.28,0-.58.25-.8.67a3.84,3.84,0,0,0-.39,1.83,4,4,0,0,0,.4,1.83c.23.42.52.66.81.66h0c.29,0,.58-.25.8-.67a4,4,0,0,0,.4-1.83,4.12,4.12,0,0,0-.41-1.83C312.57,166.4,312.28,166.16,312,166.16Z"/><path class="cls-5" d="M316.88,171.6a.29.29,0,0,1-.28-.28l0-5-1.44,1a.28.28,0,0,1-.39-.06.28.28,0,0,1,.07-.39l1.88-1.34a.27.27,0,0,1,.29,0,.27.27,0,0,1,.15.24l0,5.57a.28.28,0,0,1-.28.28Z"/><path class="cls-5" d="M328.42,171.64c-1,0-1.76-1.34-1.77-3s.76-3.05,1.75-3.05h0c1,0,1.77,1.33,1.77,3s-.76,3-1.75,3.06Zm0-5.54h0c-.57,0-1.2,1-1.19,2.49s.64,2.49,1.21,2.49h0c.57,0,1.2-1,1.2-2.5S329,166.1,328.4,166.1Z"/><path class="cls-5" d="M333.29,171.53a.29.29,0,0,1-.28-.28l0-5-1.44,1a.28.28,0,0,1-.39-.06.28.28,0,0,1,.07-.39l1.88-1.34a.27.27,0,0,1,.29,0,.28.28,0,0,1,.15.24l0,5.57a.28.28,0,0,1-.28.28Z"/><path class="cls-5" d="M320.84,171.58a.27.27,0,0,1-.28-.28l0-5-1.44,1a.28.28,0,0,1-.33-.46l1.88-1.34a.28.28,0,0,1,.29,0,.28.28,0,0,1,.15.25l0,5.56a.29.29,0,0,1-.28.28Z"/><path class="cls-5" d="M324.79,171.56a.28.28,0,0,1-.28-.27l0-5-1.44,1a.28.28,0,0,1-.39-.07.26.26,0,0,1,.07-.38l1.88-1.35a.28.28,0,0,1,.44.23l0,5.56a.27.27,0,0,1-.28.28Z"/><path class="cls-5" d="M259.35,181.65c-1,0-1.77-1.33-1.77-3s.76-3.05,1.74-3.05h0c1,0,1.76,1.33,1.77,3s-.76,3.05-1.75,3.05Zm0-5.54h0c-.57,0-1.2,1-1.2,2.5s.65,2.49,1.22,2.49h0c.57,0,1.2-1,1.19-2.5S259.9,176.11,259.33,176.11Z"/><path class="cls-5" d="M242.5,181.72c-1,0-1.76-1.33-1.77-3s.76-3.05,1.75-3.05h0c1,0,1.77,1.33,1.77,3a4.44,4.44,0,0,1-.46,2.09,1.51,1.51,0,0,1-1.29,1Zm0-5.54h0c-.57,0-1.2,1-1.19,2.5s.64,2.48,1.21,2.48h0c.29,0,.58-.24.8-.66a4,4,0,0,0,.4-1.83C243.69,177.2,243.05,176.18,242.48,176.18Z"/><path class="cls-5" d="M239,181.65a.28.28,0,0,1-.28-.28l0-5-1.44,1a.28.28,0,0,1-.39-.06.28.28,0,0,1,.07-.39l1.88-1.34a.26.26,0,0,1,.28,0,.27.27,0,0,1,.16.25l0,5.56a.29.29,0,0,1-.28.28Z"/><path class="cls-5" d="M247.58,181.61a.27.27,0,0,1-.27-.27l0-5-1.44,1a.28.28,0,0,1-.39-.07.26.26,0,0,1,.07-.38l1.88-1.35a.28.28,0,0,1,.44.23l0,5.56a.27.27,0,0,1-.28.28Z"/><path class="cls-5" d="M251.65,181.6a.28.28,0,0,1-.27-.28l0-5-1.45,1a.27.27,0,0,1-.38-.06.27.27,0,0,1,.06-.39l1.88-1.34a.28.28,0,0,1,.29,0,.27.27,0,0,1,.15.24l0,5.57a.28.28,0,0,1-.27.28Z"/><path class="cls-5" d="M255.73,181.58a.27.27,0,0,1-.28-.28l0-5-1.45,1a.27.27,0,0,1-.38-.07.28.28,0,0,1,.06-.39l1.88-1.34a.28.28,0,0,1,.29,0,.28.28,0,0,1,.15.25l0,5.56a.28.28,0,0,1-.27.28Z"/><path class="cls-5" d="M268,181.62c-1,0-1.76-1.34-1.77-3s.76-3.05,1.75-3.06h0c1,0,1.77,1.34,1.77,3s-.76,3.05-1.75,3.06Zm0-5.54h0c-.57,0-1.2,1-1.19,2.49s.64,2.49,1.21,2.49h0c.57,0,1.2-1,1.2-2.5S268.53,176.08,268,176.08Z"/><path class="cls-5" d="M264.36,181.55a.29.29,0,0,1-.28-.28l0-5-1.44,1a.28.28,0,1,1-.33-.45l1.88-1.34a.28.28,0,0,1,.29,0,.27.27,0,0,1,.15.25l0,5.57a.29.29,0,0,1-.28.28Z"/><path class="cls-5" d="M272.94,181.65c-1,0-1.77-1.34-1.77-3.05a4.44,4.44,0,0,1,.45-2.09,1.54,1.54,0,0,1,1.29-1h0c1,0,1.76,1.33,1.77,3s-.76,3-1.75,3.06Zm0-5.54h0c-.29,0-.58.24-.8.66a4,4,0,0,0-.4,1.83c0,1.47.65,2.49,1.22,2.49h0c.57,0,1.2-1,1.19-2.5S273.49,176.11,272.92,176.11Z"/><path class="cls-5" d="M277.81,181.54a.29.29,0,0,1-.28-.28l0-5-1.44,1a.28.28,0,0,1-.33-.45l1.88-1.34a.28.28,0,0,1,.29,0,.26.26,0,0,1,.15.24l0,5.57a.29.29,0,0,1-.28.28Z"/><path class="cls-5" d="M289.35,181.58c-1,0-1.77-1.34-1.77-3a4.39,4.39,0,0,1,.46-2.09,1.53,1.53,0,0,1,1.29-1h0a1.54,1.54,0,0,1,1.29,1,4.45,4.45,0,0,1,.48,2.09,4.51,4.51,0,0,1-.46,2.09,1.55,1.55,0,0,1-1.29,1Zm0-5.54h0c-.29,0-.58.24-.8.67a3.91,3.91,0,0,0-.4,1.82c0,1.47.65,2.49,1.22,2.49h0c.28,0,.58-.24.8-.67a4.36,4.36,0,0,0,0-3.65C289.91,176.28,289.61,176,289.33,176Z"/><path class="cls-5" d="M297.77,181.54c-1,0-1.76-1.33-1.77-3a4.54,4.54,0,0,1,.46-2.09,1.54,1.54,0,0,1,1.29-1h0a1.56,1.56,0,0,1,1.3,1,4.51,4.51,0,0,1,.47,2.09,4.42,4.42,0,0,1-.46,2.09,1.51,1.51,0,0,1-1.29,1Zm0-5.54h0a1.07,1.07,0,0,0-.8.67,3.86,3.86,0,0,0-.39,1.83c0,1.47.64,2.49,1.21,2.49h0c.29,0,.58-.25.8-.67a4,4,0,0,0,.4-1.83,4,4,0,0,0-.41-1.82C298.33,176.25,298,176,297.75,176Z"/><path class="cls-5" d="M302.61,181.52c-1,0-1.76-1.33-1.77-3a4.57,4.57,0,0,1,.46-2.09,1.54,1.54,0,0,1,1.29-1h0a1.54,1.54,0,0,1,1.29.95,4.64,4.64,0,0,1,.48,2.09,4.54,4.54,0,0,1-.46,2.09,1.54,1.54,0,0,1-1.29,1Zm0-5.54h0c-.28,0-.57.25-.8.67a4.12,4.12,0,0,0-.39,1.83c0,1.47.64,2.49,1.21,2.49h0c.29,0,.58-.25.81-.67a4.09,4.09,0,0,0,.39-1.83,3.91,3.91,0,0,0-.41-1.82C303.17,176.23,302.88,176,302.6,176Z"/><path class="cls-5" d="M332.79,181.4c-1,0-1.76-1.33-1.77-3s.77-3.05,1.75-3.06h0c1,0,1.76,1.34,1.77,3s-.76,3.06-1.75,3.06Zm0-5.54h0c-.57,0-1.2,1-1.2,2.5s.65,2.48,1.22,2.48h0c.57,0,1.2-1,1.19-2.49S333.35,175.86,332.78,175.86Z"/><path class="cls-5" d="M294.22,181.47a.28.28,0,0,1-.28-.28l0-5-1.44,1a.28.28,0,1,1-.32-.46L294,175.4a.26.26,0,0,1,.28,0,.27.27,0,0,1,.16.25l0,5.56a.28.28,0,0,1-.28.28Z"/><path class="cls-5" d="M307.53,181.5c-1,0-1.77-1.33-1.77-3s.76-3.05,1.75-3.05h0c1,0,1.76,1.33,1.77,3a4.54,4.54,0,0,1-.46,2.09,1.54,1.54,0,0,1-1.29,1Zm0-5.54h0c-.57,0-1.2,1-1.2,2.5S307,181,307.53,181h0c.28,0,.57-.25.8-.67a3.84,3.84,0,0,0,.39-1.83C308.72,177,308.08,176,307.51,176Z"/><path class="cls-5" d="M316,181.47c-1,0-1.76-1.34-1.77-3s.76-3.05,1.75-3.06h0c1,0,1.77,1.34,1.77,3s-.76,3.05-1.75,3.06Zm0-5.54h0c-.57,0-1.2,1-1.19,2.5s.64,2.48,1.21,2.48h0c.57,0,1.2-1,1.2-2.49S316.5,175.93,315.93,175.93Z"/><path class="cls-5" d="M312.4,181.4a.29.29,0,0,1-.28-.28l0-5-1.44,1a.28.28,0,1,1-.33-.45l1.88-1.34a.29.29,0,0,1,.45.22l0,5.57a.29.29,0,0,1-.28.28Z"/><path class="cls-5" d="M321,181.36a.29.29,0,0,1-.28-.28l0-5-1.44,1a.28.28,0,1,1-.32-.46l1.88-1.34a.27.27,0,0,1,.29,0,.28.28,0,0,1,.15.25l0,5.56a.27.27,0,0,1-.28.28Z"/><path class="cls-5" d="M325.1,181.34a.27.27,0,0,1-.27-.27l0-5-1.44,1A.28.28,0,0,1,323,177a.27.27,0,0,1,.07-.38l1.88-1.35a.3.3,0,0,1,.29,0,.29.29,0,0,1,.15.25l0,5.57a.27.27,0,0,1-.28.27Z"/><path class="cls-5" d="M329.18,181.33a.28.28,0,0,1-.28-.28l0-5-1.45,1a.27.27,0,0,1-.38-.06.28.28,0,0,1,.06-.39l1.88-1.34a.28.28,0,0,1,.29,0,.27.27,0,0,1,.15.24l0,5.57a.28.28,0,0,1-.27.28Z"/><path class="cls-5" d="M281.76,181.52a.27.27,0,0,1-.27-.27l0-5-1.44,1a.28.28,0,0,1-.32-.46l1.88-1.34a.27.27,0,0,1,.29,0,.28.28,0,0,1,.15.25l0,5.56a.27.27,0,0,1-.28.28Z"/><path class="cls-5" d="M285.72,181.51a.29.29,0,0,1-.28-.28l0-5-1.44,1a.28.28,0,0,1-.33-.45l1.88-1.34a.28.28,0,0,1,.29,0,.25.25,0,0,1,.15.24l0,5.57a.29.29,0,0,1-.28.28Z"/><path class="cls-5" d="M242.42,191.43c-1,0-1.76-1.34-1.77-3a4.58,4.58,0,0,1,.46-2.1,1.56,1.56,0,0,1,1.29-1h0a1.54,1.54,0,0,1,1.29.95,4.57,4.57,0,0,1,.48,2.09,4.51,4.51,0,0,1-.46,2.09,1.55,1.55,0,0,1-1.29,1Zm0-5.54h0c-.29,0-.58.24-.81.67a4,4,0,0,0-.39,1.82c0,1.47.64,2.49,1.21,2.49h0c.28,0,.57-.24.8-.67a4.06,4.06,0,0,0,.39-1.83,3.91,3.91,0,0,0-.41-1.82C243,186.13,242.69,185.89,242.41,185.89Z"/><path class="cls-5" d="M247.27,191.41c-1,0-1.77-1.34-1.77-3a4.39,4.39,0,0,1,.46-2.09,1.53,1.53,0,0,1,1.29-1h0a1.54,1.54,0,0,1,1.29.95,4.45,4.45,0,0,1,.48,2.09,4.51,4.51,0,0,1-.46,2.09,1.55,1.55,0,0,1-1.29,1Zm0-5.54h0c-.29,0-.58.24-.8.67a3.91,3.91,0,0,0-.4,1.82c0,1.47.65,2.49,1.22,2.49h0c.28,0,.58-.24.8-.67a4.36,4.36,0,0,0,0-3.65C247.83,186.11,247.53,185.87,247.25,185.87Z"/><path class="cls-5" d="M277.45,191.28c-1,0-1.76-1.33-1.77-3s.76-3.05,1.75-3.05h0c1,0,1.77,1.33,1.77,3s-.76,3.05-1.75,3.05Zm0-5.54h0c-.57,0-1.2,1-1.19,2.5s.64,2.49,1.21,2.49h0c.57,0,1.2-1,1.2-2.5S278,185.74,277.43,185.74Z"/><path class="cls-5" d="M238.87,191.36a.28.28,0,0,1-.27-.28l0-5-1.44,1a.28.28,0,0,1-.39-.06.28.28,0,0,1,.07-.39l1.88-1.34a.28.28,0,0,1,.29,0,.29.29,0,0,1,.15.25l0,5.57a.29.29,0,0,1-.28.28Z"/><path class="cls-5" d="M252.18,191.39c-1,0-1.76-1.34-1.77-3s.76-3,1.75-3.06h0c1,0,1.77,1.34,1.77,3a4.51,4.51,0,0,1-.45,2.09,1.55,1.55,0,0,1-1.3,1Zm0-5.54h0c-.57,0-1.2,1-1.19,2.49s.64,2.49,1.21,2.49h0c.29,0,.58-.24.8-.67a3.93,3.93,0,0,0,.4-1.83C253.37,186.87,252.73,185.85,252.16,185.85Z"/><path class="cls-5" d="M260.6,191.35c-1,0-1.76-1.33-1.77-3s.76-3.05,1.75-3.05h0c1,0,1.76,1.33,1.77,3s-.76,3-1.75,3Zm0-5.54h0c-.57,0-1.2,1-1.19,2.5s.64,2.49,1.21,2.49h0c.58,0,1.21-1,1.2-2.5S261.16,185.81,260.59,185.81Z"/><path class="cls-5" d="M257.05,191.28a.29.29,0,0,1-.28-.28l0-5-1.44,1a.29.29,0,0,1-.39-.07.28.28,0,0,1,.07-.39l1.88-1.34a.27.27,0,0,1,.29,0,.28.28,0,0,1,.15.25l0,5.56a.28.28,0,0,1-.28.28Z"/><path class="cls-5" d="M265.69,191.25a.28.28,0,0,1-.28-.28l0-5L264,187a.28.28,0,0,1-.33-.45l1.88-1.34a.3.3,0,0,1,.29,0,.29.29,0,0,1,.15.25l0,5.57a.29.29,0,0,1-.28.28Z"/><path class="cls-5" d="M269.76,191.23a.28.28,0,0,1-.28-.28l0-5L268,187a.28.28,0,0,1-.33-.45l1.88-1.34a.28.28,0,0,1,.44.22l0,5.57a.29.29,0,0,1-.28.28Z"/><path class="cls-5" d="M273.83,191.21a.28.28,0,0,1-.28-.28l0-5-1.44,1a.28.28,0,0,1-.39-.07.28.28,0,0,1,.06-.39l1.88-1.34a.28.28,0,0,1,.29,0,.26.26,0,0,1,.15.25l0,5.56a.28.28,0,0,1-.28.28Z"/><path class="cls-5" d="M286.08,191.25c-1,0-1.76-1.34-1.77-3s.76-3.05,1.75-3.06h0c1,0,1.76,1.34,1.77,3s-.77,3.05-1.75,3.06Zm0-5.54h0c-.57,0-1.2,1-1.19,2.5s.64,2.48,1.21,2.48h0c.57,0,1.21-1,1.2-2.49S286.64,185.71,286.07,185.71Z"/><path class="cls-5" d="M282.46,191.18a.29.29,0,0,1-.28-.28l0-5-1.44,1a.28.28,0,0,1-.39-.06.28.28,0,0,1,.07-.39l1.88-1.34a.27.27,0,0,1,.29,0,.27.27,0,0,1,.15.24l0,5.57a.28.28,0,0,1-.28.28Z"/><path class="cls-5" d="M291,191.28a1.56,1.56,0,0,1-1.3-1,4.5,4.5,0,0,1-.47-2.08,4.58,4.58,0,0,1,.46-2.1,1.52,1.52,0,0,1,1.29-1h0c1,0,1.77,1.33,1.77,3a4.39,4.39,0,0,1-.46,2.09,1.54,1.54,0,0,1-1.29,1Zm0-5.54h0c-.28,0-.58.24-.8.66a3.86,3.86,0,0,0-.39,1.83,3.93,3.93,0,0,0,.4,1.83c.23.42.52.66.81.66h0c.29,0,.58-.24.8-.67a3.93,3.93,0,0,0,.4-1.83C292.23,186.76,291.59,185.74,291,185.74Z"/><path class="cls-5" d="M295.91,191.17a.28.28,0,0,1-.28-.28l0-5-1.44,1a.29.29,0,0,1-.39-.07.28.28,0,0,1,.07-.39l1.88-1.34a.27.27,0,0,1,.29,0,.28.28,0,0,1,.15.25l0,5.56a.28.28,0,0,1-.28.28Z"/><path class="cls-5" d="M307.45,191.21c-1,0-1.76-1.33-1.77-3a4.51,4.51,0,0,1,.46-2.09,1.57,1.57,0,0,1,1.29-1h0a1.54,1.54,0,0,1,1.3,1,4.93,4.93,0,0,1,0,4.18,1.51,1.51,0,0,1-1.29,1Zm0-5.54h0c-.28,0-.58.24-.8.67a3.81,3.81,0,0,0-.39,1.83c0,1.46.64,2.48,1.21,2.48h0c.29,0,.58-.24.8-.66a4,4,0,0,0,.4-1.83,4.05,4.05,0,0,0-.41-1.83C308,185.91,307.72,185.67,307.43,185.67Z"/><path class="cls-5" d="M315.87,191.17c-1,0-1.76-1.33-1.77-3a4.57,4.57,0,0,1,.46-2.09,1.54,1.54,0,0,1,1.29-1h0a1.54,1.54,0,0,1,1.29.95,4.64,4.64,0,0,1,.48,2.09,4.54,4.54,0,0,1-.46,2.09,1.54,1.54,0,0,1-1.29,1Zm0-5.53h0c-.28,0-.57.24-.8.66a4.12,4.12,0,0,0-.39,1.83c0,1.47.64,2.49,1.21,2.49h0c.29,0,.58-.25.81-.67a4.06,4.06,0,0,0,.39-1.83,3.91,3.91,0,0,0-.41-1.82C316.43,185.88,316.14,185.64,315.86,185.64Z"/><path class="cls-5" d="M320.72,191.16c-1,0-1.77-1.34-1.77-3s.76-3.05,1.75-3.05h0c1,0,1.76,1.33,1.77,3a4.54,4.54,0,0,1-.46,2.09,1.57,1.57,0,0,1-1.29,1Zm0-5.54h0c-.57,0-1.2,1-1.2,2.49s.65,2.49,1.22,2.49h0c.28,0,.57-.25.8-.67a3.81,3.81,0,0,0,.39-1.83C321.91,186.64,321.27,185.62,320.7,185.62Z"/><path class="cls-5" d="M312.32,191.1a.28.28,0,0,1-.28-.27l0-5-1.44,1a.28.28,0,1,1-.32-.46l1.88-1.34a.27.27,0,0,1,.29,0,.28.28,0,0,1,.15.25l0,5.56a.27.27,0,0,1-.28.28Z"/><path class="cls-5" d="M325.63,191.14c-1,0-1.76-1.34-1.77-3s.76-3.05,1.75-3.05h0c1,0,1.77,1.33,1.77,3s-.76,3-1.75,3.06Zm0-5.54h0c-.57,0-1.2,1-1.19,2.49s.64,2.49,1.21,2.49h0c.57,0,1.2-1,1.2-2.5S326.18,185.6,325.61,185.6Z"/><path class="cls-5" d="M334.05,191.1c-1,0-1.76-1.33-1.77-3S333,185,334,185h0c1,0,1.76,1.34,1.77,3s-.77,3.06-1.75,3.06Zm0-5.54h0c-.57,0-1.2,1-1.19,2.5s.64,2.48,1.21,2.48h0c.57,0,1.21-1,1.2-2.49S334.61,185.56,334,185.56Z"/><path class="cls-5" d="M330.5,191a.29.29,0,0,1-.28-.28l0-5-1.44,1a.28.28,0,0,1-.39-.06.28.28,0,0,1,.07-.39l1.88-1.34a.27.27,0,0,1,.29,0,.27.27,0,0,1,.15.24l0,5.57a.28.28,0,0,1-.28.28Z"/><path class="cls-5" d="M299.87,191.15a.27.27,0,0,1-.28-.27l0-5-1.44,1a.28.28,0,0,1-.39-.07.27.27,0,0,1,.06-.38l1.88-1.35a.3.3,0,0,1,.29,0,.29.29,0,0,1,.15.25l0,5.56a.28.28,0,0,1-.28.28Z"/><path class="cls-5" d="M303.82,191.14a.29.29,0,0,1-.28-.28l0-5-1.44,1a.28.28,0,0,1-.39-.06.28.28,0,0,1,.07-.39l1.88-1.34a.27.27,0,0,1,.29,0,.27.27,0,0,1,.15.24l0,5.57a.28.28,0,0,1-.28.28Z"/><path class="cls-5" d="M238.67,201.37c-1,0-1.76-1.33-1.77-3s.77-3.05,1.75-3.05h0c1,0,1.76,1.33,1.77,3s-.76,3.05-1.75,3.05Zm0-5.54h0c-.57,0-1.2,1-1.2,2.5s.65,2.48,1.22,2.48h0c.57,0,1.2-1,1.19-2.49S239.23,195.83,238.66,195.83Z"/><path class="cls-5" d="M243.52,201.35c-1,0-1.77-1.33-1.77-3a4.42,4.42,0,0,1,.46-2.09,1.52,1.52,0,0,1,1.29-1h0c1,0,1.77,1.33,1.77,3s-.76,3-1.75,3Zm0-5.54h0c-.29,0-.58.25-.8.67a3.93,3.93,0,0,0-.4,1.83c0,1.47.65,2.49,1.22,2.49h0c.57,0,1.2-1,1.2-2.5S244.07,195.81,243.5,195.81Z"/><path class="cls-5" d="M273.7,201.23a1.54,1.54,0,0,1-1.29-.95,4.45,4.45,0,0,1-.48-2.09,4.51,4.51,0,0,1,.46-2.09,1.55,1.55,0,0,1,1.29-1h0c1,0,1.77,1.34,1.77,3a4.51,4.51,0,0,1-.45,2.09,1.55,1.55,0,0,1-1.3,1Zm0-5.54h0c-.28,0-.57.24-.8.67a4.36,4.36,0,0,0,0,3.65c.22.42.52.66.8.66h0c.29,0,.58-.24.8-.67a3.91,3.91,0,0,0,.4-1.82C274.89,196.71,274.25,195.69,273.68,195.69Z"/><path class="cls-5" d="M248.43,201.33a1.54,1.54,0,0,1-1.29-1,4.39,4.39,0,0,1-.48-2.09,4.54,4.54,0,0,1,.46-2.09,1.54,1.54,0,0,1,1.29-1h0c1,0,1.76,1.33,1.77,3a4.57,4.57,0,0,1-.46,2.09,1.54,1.54,0,0,1-1.29,1Zm0-5.54h0c-.28,0-.57.25-.8.67a4.36,4.36,0,0,0,0,3.65c.22.42.52.66.8.66h0c.29,0,.58-.24.8-.66a4,4,0,0,0,.4-1.83C249.62,196.81,249,195.79,248.41,195.79Z"/><path class="cls-5" d="M256.85,201.3a1.54,1.54,0,0,1-1.29-1,4.88,4.88,0,0,1,0-4.18,1.56,1.56,0,0,1,1.29-1h0c1,0,1.76,1.34,1.77,3a4.51,4.51,0,0,1-.46,2.09,1.55,1.55,0,0,1-1.29,1Zm0-5.54h0c-.29,0-.58.24-.81.67a4,4,0,0,0-.39,1.82,3.93,3.93,0,0,0,.41,1.83c.23.42.52.66.8.66h0c.28,0,.57-.24.8-.67a4.06,4.06,0,0,0,.39-1.83C258.05,196.78,257.41,195.76,256.84,195.76Z"/><path class="cls-5" d="M253.3,201.22A.27.27,0,0,1,253,201l0-5-1.45,1a.27.27,0,0,1-.38-.06.27.27,0,0,1,.06-.39l1.88-1.34a.28.28,0,0,1,.29,0,.29.29,0,0,1,.15.25l0,5.57a.27.27,0,0,1-.27.27Z"/><path class="cls-5" d="M261.94,201.19a.27.27,0,0,1-.28-.28l0-5-1.44,1a.28.28,0,0,1-.33-.45l1.88-1.34a.28.28,0,0,1,.29,0,.28.28,0,0,1,.15.25l0,5.56a.29.29,0,0,1-.28.28Z"/><path class="cls-5" d="M266,201.17a.28.28,0,0,1-.28-.27l0-5-1.44,1a.28.28,0,0,1-.39-.07.28.28,0,0,1,.06-.39l1.88-1.34a.28.28,0,0,1,.29,0,.26.26,0,0,1,.15.25l0,5.56a.28.28,0,0,1-.28.28Z"/><path class="cls-5" d="M270.08,201.16a.29.29,0,0,1-.28-.28l0-5-1.44,1a.28.28,0,0,1-.39-.06.28.28,0,0,1,.07-.39l1.88-1.34a.28.28,0,0,1,.44.22l0,5.57a.28.28,0,0,1-.28.28Z"/><path class="cls-5" d="M282.33,201.19a1.54,1.54,0,0,1-1.29-.95,4.64,4.64,0,0,1-.48-2.09,4.54,4.54,0,0,1,.46-2.09,1.54,1.54,0,0,1,1.29-1h0a1.52,1.52,0,0,1,1.29,1,4.88,4.88,0,0,1,0,4.18,1.54,1.54,0,0,1-1.29,1Zm0-5.54h0c-.29,0-.58.25-.81.67a4.09,4.09,0,0,0-.39,1.83,3.91,3.91,0,0,0,.41,1.82c.23.43.52.67.8.67h0c.28,0,.57-.25.8-.67a4.12,4.12,0,0,0,.39-1.83,4,4,0,0,0-.41-1.83C282.89,195.89,282.6,195.65,282.32,195.65Z"/><path class="cls-5" d="M278.71,201.12a.27.27,0,0,1-.27-.28l0-5-1.44,1a.29.29,0,0,1-.39-.07.28.28,0,0,1,.07-.39l1.88-1.34a.28.28,0,0,1,.29,0,.28.28,0,0,1,.15.25l0,5.56a.28.28,0,0,1-.28.28Z"/><path class="cls-5" d="M287.29,201.22c-1,0-1.76-1.33-1.77-3a4.54,4.54,0,0,1,.46-2.09,1.57,1.57,0,0,1,1.29-1h0a1.54,1.54,0,0,1,1.3,1,4.51,4.51,0,0,1,.47,2.09,4.57,4.57,0,0,1-.45,2.09,1.54,1.54,0,0,1-1.3,1Zm0-5.54h0c-.28,0-.57.25-.8.67a3.81,3.81,0,0,0-.39,1.83c0,1.46.64,2.48,1.21,2.48h0c.29,0,.58-.24.8-.66a4,4,0,0,0,.4-1.83,4.05,4.05,0,0,0-.41-1.83C287.85,195.92,287.56,195.68,287.27,195.68Z"/><path class="cls-5" d="M292.16,201.11a.28.28,0,0,1-.28-.27l0-5-1.44,1a.28.28,0,0,1-.39-.07.27.27,0,0,1,.07-.38L292,195a.28.28,0,0,1,.44.23l0,5.56a.27.27,0,0,1-.28.28Z"/><path class="cls-5" d="M303.7,201.15c-1,0-1.76-1.33-1.77-3s.76-3.05,1.75-3.05h0c1,0,1.77,1.33,1.78,3s-.77,3.05-1.75,3.05Zm0-5.54h0c-.57,0-1.2,1-1.19,2.5s.64,2.49,1.21,2.49h0c.57,0,1.2-1,1.2-2.5S304.25,195.61,303.68,195.61Z"/><path class="cls-5" d="M312.12,201.12c-1,0-1.76-1.33-1.77-3a4.51,4.51,0,0,1,.46-2.09,1.55,1.55,0,0,1,1.29-1h0c1,0,1.76,1.34,1.77,3s-.76,3.05-1.75,3.06Zm0-5.54h0c-.29,0-.58.24-.81.67a4.06,4.06,0,0,0-.39,1.83c0,1.46.64,2.48,1.21,2.48h0c.57,0,1.2-1,1.19-2.49S312.68,195.58,312.11,195.58Z"/><path class="cls-5" d="M317,201.1c-1,0-1.77-1.33-1.77-3a4.39,4.39,0,0,1,.46-2.09,1.53,1.53,0,0,1,1.29-1h0c1,0,1.76,1.34,1.77,3S318,201.1,317,201.1Zm0-5.54h0c-.29,0-.58.24-.8.67a3.93,3.93,0,0,0-.4,1.83c0,1.46.65,2.48,1.22,2.48h0c.57,0,1.2-1,1.19-2.49S317.52,195.56,317,195.56Z"/><path class="cls-5" d="M308.57,201.05a.28.28,0,0,1-.27-.28l0-5-1.45,1a.28.28,0,1,1-.32-.45l1.88-1.34a.28.28,0,0,1,.29,0,.27.27,0,0,1,.15.24l0,5.57a.28.28,0,0,1-.27.28Z"/><path class="cls-5" d="M321.88,201.08a1.54,1.54,0,0,1-1.29-1,4.45,4.45,0,0,1-.48-2.09,4.51,4.51,0,0,1,.46-2.09,1.55,1.55,0,0,1,1.29-1h0c1,0,1.77,1.34,1.77,3a4.46,4.46,0,0,1-.45,2.1,1.56,1.56,0,0,1-1.29,1Zm0-5.54h0c-.28,0-.57.24-.8.67a3.81,3.81,0,0,0-.39,1.83,3.91,3.91,0,0,0,.41,1.82c.22.42.52.66.8.66h0c.29,0,.58-.24.8-.67a3.91,3.91,0,0,0,.4-1.82C323.07,196.56,322.43,195.54,321.86,195.54Z"/><path class="cls-5" d="M330.3,201a1.52,1.52,0,0,1-1.29-.95,4.64,4.64,0,0,1-.48-2.09,4.57,4.57,0,0,1,.46-2.09,1.54,1.54,0,0,1,1.29-1h0c1,0,1.76,1.33,1.77,3a4.54,4.54,0,0,1-.46,2.09,1.54,1.54,0,0,1-1.29,1Zm0-5.53h0c-.29,0-.58.24-.81.66a4.12,4.12,0,0,0-.39,1.83,4,4,0,0,0,.41,1.83c.23.42.52.66.8.66h0c.28,0,.57-.25.8-.67a4.06,4.06,0,0,0,.39-1.83C331.49,196.53,330.86,195.51,330.29,195.51Z"/><path class="cls-5" d="M326.75,201a.27.27,0,0,1-.27-.28l0-5-1.44,1a.28.28,0,0,1-.39-.07.29.29,0,0,1,.07-.39l1.88-1.34a.28.28,0,0,1,.29,0,.28.28,0,0,1,.15.25l0,5.56a.27.27,0,0,1-.27.28Z"/><path class="cls-5" d="M335.39,200.94a.28.28,0,0,1-.28-.28l0-5-1.44,1a.28.28,0,0,1-.33-.45l1.88-1.34a.28.28,0,0,1,.29,0,.27.27,0,0,1,.15.24l0,5.57a.29.29,0,0,1-.28.28Z"/><path class="cls-5" d="M296.12,201.1a.29.29,0,0,1-.28-.28l0-5-1.44,1a.28.28,0,0,1-.33-.45l1.88-1.34a.28.28,0,0,1,.29,0,.25.25,0,0,1,.15.24l0,5.57a.29.29,0,0,1-.28.28Z"/><path class="cls-5" d="M300.07,201.08a.29.29,0,0,1-.28-.28l0-5-1.44,1a.28.28,0,0,1-.32-.46l1.88-1.34a.27.27,0,0,1,.29,0,.28.28,0,0,1,.15.25l0,5.56a.27.27,0,0,1-.28.28Z"/><path class="cls-5" d="M238.7,211c-1,0-1.76-1.34-1.77-3a4.58,4.58,0,0,1,.46-2.1,1.56,1.56,0,0,1,1.29-1h0c1,0,1.76,1.34,1.77,3s-.77,3.05-1.75,3.06Zm0-5.54h0c-.28,0-.57.24-.8.67a4,4,0,0,0-.39,1.82c0,1.47.64,2.49,1.21,2.49h0c.57,0,1.2-1,1.2-2.5S239.25,205.47,238.69,205.47Z"/><path class="cls-5" d="M247.12,211c-1,0-1.76-1.33-1.77-3a4.54,4.54,0,0,1,.46-2.09,1.54,1.54,0,0,1,1.29-1h0c1,0,1.76,1.33,1.77,3s-.76,3.05-1.75,3.05Zm0-5.54h0c-.29,0-.58.25-.8.67a4,4,0,0,0-.4,1.83c0,1.47.65,2.49,1.21,2.49h0c.57,0,1.2-1,1.19-2.5S247.68,205.43,247.11,205.43Z"/><path class="cls-5" d="M252,211a1.57,1.57,0,0,1-1.3-.95,4.51,4.51,0,0,1-.47-2.09,4.42,4.42,0,0,1,.46-2.09,1.51,1.51,0,0,1,1.29-1h0c1,0,1.76,1.33,1.77,3a4.42,4.42,0,0,1-.46,2.09,1.52,1.52,0,0,1-1.29,1Zm0-5.54h0c-.29,0-.58.25-.8.67a4,4,0,0,0-.4,1.83,4.12,4.12,0,0,0,.41,1.83c.23.42.52.66.81.66h0a1.07,1.07,0,0,0,.8-.67,3.86,3.86,0,0,0,.39-1.83C253.16,206.43,252.52,205.41,252,205.41Z"/><path class="cls-5" d="M282.15,210.83a1.54,1.54,0,0,1-1.29-1,4.45,4.45,0,0,1-.48-2.09,4.51,4.51,0,0,1,.46-2.09,1.55,1.55,0,0,1,1.29-1h0c1,0,1.77,1.34,1.77,3a4.46,4.46,0,0,1-.46,2.1,1.53,1.53,0,0,1-1.29,1Zm0-5.54h0c-.28,0-.58.24-.8.67a4.36,4.36,0,0,0,0,3.65c.22.42.52.66.8.66h0c.29,0,.58-.24.8-.67a3.91,3.91,0,0,0,.4-1.82C283.34,206.31,282.7,205.29,282.13,205.29Z"/><path class="cls-5" d="M243.57,210.9a.27.27,0,0,1-.27-.28l0-5-1.45,1a.27.27,0,0,1-.38-.07.28.28,0,0,1,.06-.39l1.88-1.34a.28.28,0,0,1,.29,0,.28.28,0,0,1,.15.25l0,5.56a.28.28,0,0,1-.27.28Z"/><path class="cls-5" d="M256.88,210.93a1.54,1.54,0,0,1-1.29-1,4.39,4.39,0,0,1-.48-2.09,4.54,4.54,0,0,1,.46-2.09,1.54,1.54,0,0,1,1.29-1h0c1,0,1.77,1.33,1.78,3a4.54,4.54,0,0,1-.46,2.09,1.54,1.54,0,0,1-1.29,1Zm0-5.54h0c-.28,0-.57.25-.8.67a3.84,3.84,0,0,0-.39,1.83,4,4,0,0,0,.41,1.83c.22.42.52.66.8.66h0c.29,0,.58-.25.8-.67a4,4,0,0,0,.4-1.83C258.07,206.41,257.43,205.39,256.86,205.39Z"/><path class="cls-5" d="M265.3,210.9a1.54,1.54,0,0,1-1.29-1,4.7,4.7,0,0,1-.48-2.09,4.51,4.51,0,0,1,.46-2.09,1.55,1.55,0,0,1,1.29-1h0c1,0,1.76,1.34,1.77,3a4.51,4.51,0,0,1-.46,2.09,1.55,1.55,0,0,1-1.29,1Zm0-5.54h0c-.29,0-.58.24-.81.67a4.06,4.06,0,0,0-.39,1.83,3.91,3.91,0,0,0,.41,1.82c.23.42.52.66.8.66h0c.28,0,.57-.24.8-.67a4,4,0,0,0,.39-1.82C266.5,206.38,265.86,205.36,265.29,205.36Z"/><path class="cls-5" d="M261.75,210.83a.28.28,0,0,1-.27-.28l0-5-1.45,1a.28.28,0,1,1-.32-.45l1.88-1.34a.28.28,0,0,1,.29,0,.27.27,0,0,1,.15.24l0,5.57a.28.28,0,0,1-.27.28Z"/><path class="cls-5" d="M270.39,210.79a.27.27,0,0,1-.28-.28l0-5-1.44,1a.28.28,0,0,1-.33-.46l1.88-1.34a.28.28,0,0,1,.29,0,.28.28,0,0,1,.15.25l0,5.56a.29.29,0,0,1-.28.28Z"/><path class="cls-5" d="M274.46,210.77a.28.28,0,0,1-.28-.27l0-5-1.44,1a.28.28,0,0,1-.39-.07.27.27,0,0,1,.06-.38l1.88-1.35a.3.3,0,0,1,.29,0,.27.27,0,0,1,.15.25l0,5.56a.28.28,0,0,1-.28.28Z"/><path class="cls-5" d="M278.53,210.76a.29.29,0,0,1-.28-.28l0-5-1.44,1a.28.28,0,0,1-.39-.06.28.28,0,0,1,.07-.39l1.88-1.34a.28.28,0,0,1,.44.22l0,5.57a.29.29,0,0,1-.28.28Z"/><path class="cls-5" d="M290.78,210.79c-1,0-1.76-1.33-1.77-3a4.57,4.57,0,0,1,.46-2.09,1.54,1.54,0,0,1,1.29-1h0a1.54,1.54,0,0,1,1.29,1,4.88,4.88,0,0,1,0,4.18,1.54,1.54,0,0,1-1.29,1Zm0-5.54h0c-.29,0-.58.25-.81.67a4.12,4.12,0,0,0-.39,1.83c0,1.47.64,2.49,1.21,2.49h0c.28,0,.57-.25.8-.67a4.09,4.09,0,0,0,.39-1.83,3.91,3.91,0,0,0-.41-1.82C291.34,205.5,291.05,205.25,290.77,205.25Z"/><path class="cls-5" d="M287.16,210.72a.29.29,0,0,1-.28-.28l0-5-1.44,1a.28.28,0,1,1-.32-.46l1.88-1.34a.27.27,0,0,1,.29,0,.28.28,0,0,1,.15.25l0,5.56a.27.27,0,0,1-.28.28Z"/><path class="cls-5" d="M295.74,210.82c-1,0-1.76-1.33-1.77-3a4.54,4.54,0,0,1,.46-2.09,1.54,1.54,0,0,1,1.29-1h0a1.53,1.53,0,0,1,1.3,1,4.51,4.51,0,0,1,.47,2.09,4.44,4.44,0,0,1-.46,2.09,1.51,1.51,0,0,1-1.29,1Zm0-5.54h0c-.28,0-.58.25-.8.67a3.81,3.81,0,0,0-.39,1.83c0,1.47.64,2.49,1.21,2.49h0c.29,0,.58-.25.8-.67a4,4,0,0,0,.4-1.83,4.08,4.08,0,0,0-.41-1.83C296.3,205.52,296,205.28,295.72,205.28Z"/><path class="cls-5" d="M300.61,210.72a.29.29,0,0,1-.28-.28l0-5-1.44,1a.28.28,0,0,1-.39-.06.28.28,0,0,1,.07-.39l1.88-1.34a.27.27,0,0,1,.29,0,.29.29,0,0,1,.15.25l0,5.57a.29.29,0,0,1-.28.28Z"/><path class="cls-5" d="M312.15,210.75c-1,0-1.76-1.33-1.77-3a4.57,4.57,0,0,1,.46-2.09,1.54,1.54,0,0,1,1.29-1h0c1,0,1.77,1.33,1.78,3s-.77,3.05-1.75,3.05Zm0-5.53h0c-.28,0-.57.24-.8.66a3.86,3.86,0,0,0-.39,1.83c0,1.47.64,2.49,1.21,2.49h0c.57,0,1.2-1,1.2-2.5S312.7,205.22,312.13,205.22Z"/><path class="cls-5" d="M320.57,210.72a1.54,1.54,0,0,1-1.29-.95,4.67,4.67,0,0,1-.48-2.09,4.51,4.51,0,0,1,.46-2.09,1.57,1.57,0,0,1,1.29-1h0c1,0,1.76,1.34,1.77,3a4.58,4.58,0,0,1-.46,2.1,1.54,1.54,0,0,1-1.29,1Zm0-5.54h0c-.29,0-.58.25-.81.67a4.06,4.06,0,0,0-.39,1.83,3.91,3.91,0,0,0,.41,1.82c.23.42.52.66.8.66h0c.28,0,.57-.24.8-.66a4.12,4.12,0,0,0,.39-1.83C321.76,206.2,321.13,205.18,320.56,205.18Z"/><path class="cls-5" d="M325.42,210.7a1.56,1.56,0,0,1-1.3-.95,4.54,4.54,0,0,1-.47-2.09,4.39,4.39,0,0,1,.46-2.09,1.54,1.54,0,0,1,1.29-1h0c1,0,1.76,1.34,1.77,3.05a4.57,4.57,0,0,1-.46,2.09,1.52,1.52,0,0,1-1.29,1Zm0-5.54h0c-.29,0-.58.25-.8.67a3.93,3.93,0,0,0-.4,1.83,4,4,0,0,0,.41,1.82c.23.42.52.66.81.66h0c.28,0,.58-.24.8-.66a3.86,3.86,0,0,0,.39-1.83C326.61,206.18,326,205.16,325.4,205.16Z"/><path class="cls-5" d="M317,210.65a.28.28,0,0,1-.27-.28l0-5-1.45,1a.28.28,0,1,1-.32-.45l1.88-1.34a.28.28,0,0,1,.29,0,.27.27,0,0,1,.15.24l0,5.57a.28.28,0,0,1-.27.28Z"/><path class="cls-5" d="M330.33,210.68a1.54,1.54,0,0,1-1.29-1,4.42,4.42,0,0,1-.48-2.09,4.51,4.51,0,0,1,.46-2.09,1.57,1.57,0,0,1,1.29-1h0c1,0,1.77,1.34,1.77,3a4.58,4.58,0,0,1-.45,2.1,1.54,1.54,0,0,1-1.3,1Zm0-5.54h0c-.28,0-.57.25-.8.67a3.81,3.81,0,0,0-.39,1.83,3.91,3.91,0,0,0,.41,1.82c.22.42.52.66.8.66h0c.29,0,.58-.24.8-.66a4,4,0,0,0,.4-1.83C331.52,206.16,330.88,205.14,330.31,205.14Z"/><path class="cls-5" d="M335.2,210.57a.27.27,0,0,1-.27-.27l0-5-1.44,1a.28.28,0,1,1-.32-.46L335,204.5a.27.27,0,0,1,.29,0,.29.29,0,0,1,.15.25l0,5.56a.27.27,0,0,1-.28.28Z"/><path class="cls-5" d="M304.57,210.7a.28.28,0,0,1-.28-.28l0-5-1.44,1a.28.28,0,1,1-.33-.45l1.88-1.34a.28.28,0,0,1,.29,0,.28.28,0,0,1,.15.25l0,5.56a.29.29,0,0,1-.28.28Z"/><path class="cls-5" d="M308.52,210.68a.28.28,0,0,1-.28-.27l0-5-1.44,1a.28.28,0,0,1-.32-.46l1.88-1.34a.27.27,0,0,1,.29,0,.28.28,0,0,1,.15.25l0,5.56a.27.27,0,0,1-.28.28Z"/><path class="cls-5" d="M242.46,220.65c-1,0-1.76-1.33-1.77-3s.77-3.05,1.75-3.06h0c1,0,1.76,1.34,1.77,3s-.76,3.05-1.75,3.05Zm0-5.54h0c-.57,0-1.21,1-1.2,2.5s.64,2.48,1.21,2.48h0c.57,0,1.2-1,1.19-2.49S243,215.11,242.45,215.11Z"/><path class="cls-5" d="M247.31,220.63c-1,0-1.77-1.33-1.77-3s.76-3.05,1.75-3.05h0c1,0,1.76,1.33,1.77,3s-.76,3-1.75,3Zm0-5.54h0c-.57,0-1.2,1-1.2,2.5s.65,2.48,1.22,2.48h0c.57,0,1.2-1,1.19-2.49S247.86,215.09,247.29,215.09Z"/><path class="cls-5" d="M277.49,220.51a1.54,1.54,0,0,1-1.29-1,4.38,4.38,0,0,1-.48-2.08,4.58,4.58,0,0,1,.46-2.1,1.56,1.56,0,0,1,1.29-1h0c1,0,1.77,1.34,1.77,3a4.39,4.39,0,0,1-.46,2.09,1.53,1.53,0,0,1-1.29,1Zm0-5.54h0c-.28,0-.58.24-.8.67a4.36,4.36,0,0,0,0,3.65c.22.42.52.66.8.66h0c.29,0,.58-.24.8-.67a3.93,3.93,0,0,0,.4-1.83C278.68,216,278,215,277.47,215Z"/><path class="cls-5" d="M238.91,220.58a.28.28,0,0,1-.27-.28l0-5-1.45,1a.27.27,0,0,1-.38-.06.27.27,0,0,1,.06-.39l1.88-1.34a.28.28,0,0,1,.29,0,.28.28,0,0,1,.15.24l0,5.57a.28.28,0,0,1-.27.28Z"/><path class="cls-5" d="M252.22,220.61a1.54,1.54,0,0,1-1.29-1,4.39,4.39,0,0,1-.48-2.09,4.54,4.54,0,0,1,.46-2.09,1.57,1.57,0,0,1,1.29-1h0c1,0,1.77,1.34,1.77,3.05a4.44,4.44,0,0,1-.45,2.09,1.54,1.54,0,0,1-1.29,1Zm0-5.54h0c-.28,0-.57.25-.8.67a3.81,3.81,0,0,0-.39,1.83,3.91,3.91,0,0,0,.41,1.82c.22.42.52.66.8.66h0c.29,0,.58-.24.8-.66a4,4,0,0,0,.4-1.83C253.41,216.09,252.77,215.07,252.2,215.07Z"/><path class="cls-5" d="M260.64,220.58a1.54,1.54,0,0,1-1.29-1,4.88,4.88,0,0,1,0-4.18,1.54,1.54,0,0,1,1.29-1h0c1,0,1.76,1.33,1.77,3a4.51,4.51,0,0,1-.46,2.09,1.57,1.57,0,0,1-1.29,1Zm0-5.54h0c-.29,0-.58.24-.81.66a4.12,4.12,0,0,0-.39,1.83,3.93,3.93,0,0,0,.41,1.83c.23.42.52.66.8.66h0c.28,0,.57-.24.8-.67a4.06,4.06,0,0,0,.39-1.83C261.83,216.06,261.2,215,260.63,215Z"/><path class="cls-5" d="M257.09,220.5a.27.27,0,0,1-.27-.27l0-5-1.44,1a.28.28,0,0,1-.39-.07.27.27,0,0,1,.07-.38l1.88-1.35a.3.3,0,0,1,.29,0,.29.29,0,0,1,.15.25l0,5.56a.27.27,0,0,1-.27.28Z"/><path class="cls-5" d="M265.73,220.47a.28.28,0,0,1-.28-.28l0-5-1.44,1a.28.28,0,0,1-.33-.45l1.88-1.34a.28.28,0,0,1,.29,0,.28.28,0,0,1,.15.25l0,5.56a.29.29,0,0,1-.28.28Z"/><path class="cls-5" d="M269.8,220.45a.28.28,0,0,1-.28-.27l0-5-1.44,1a.28.28,0,0,1-.39-.07.28.28,0,0,1,.06-.39l1.88-1.34a.28.28,0,0,1,.29,0,.26.26,0,0,1,.15.25l0,5.56a.28.28,0,0,1-.28.28Z"/><path class="cls-5" d="M273.87,220.44a.29.29,0,0,1-.28-.28l0-5-1.44,1a.28.28,0,0,1-.39-.06.28.28,0,0,1,.07-.39l1.88-1.34a.28.28,0,0,1,.28,0,.3.3,0,0,1,.16.25l0,5.57a.29.29,0,0,1-.28.28Z"/><path class="cls-5" d="M286.12,220.47a1.54,1.54,0,0,1-1.29-.95,4.88,4.88,0,0,1,0-4.18,1.54,1.54,0,0,1,1.29-1h0a1.52,1.52,0,0,1,1.29,1,4.64,4.64,0,0,1,.48,2.09,4.57,4.57,0,0,1-.46,2.09,1.54,1.54,0,0,1-1.29,1Zm0-5.54h0c-.28,0-.57.25-.8.67a4.06,4.06,0,0,0-.39,1.83,3.91,3.91,0,0,0,.41,1.82c.23.42.52.67.8.67h0c.28,0,.57-.25.8-.67a4.12,4.12,0,0,0,.39-1.83,4,4,0,0,0-.41-1.83C286.68,215.17,286.39,214.93,286.11,214.93Z"/><path class="cls-5" d="M282.5,220.4a.29.29,0,0,1-.28-.28l0-5-1.44,1a.29.29,0,0,1-.39-.07.28.28,0,0,1,.07-.39l1.88-1.34a.27.27,0,0,1,.29,0,.28.28,0,0,1,.15.25l0,5.56a.28.28,0,0,1-.28.28Z"/><path class="cls-5" d="M291.08,220.5c-1,0-1.76-1.33-1.77-3a4.51,4.51,0,0,1,.46-2.09,1.57,1.57,0,0,1,1.29-1h0a1.55,1.55,0,0,1,1.3,1,4.51,4.51,0,0,1,.47,2.09,4.44,4.44,0,0,1-.46,2.09,1.51,1.51,0,0,1-1.29,1Zm0-5.54h0c-.28,0-.58.25-.8.67a3.81,3.81,0,0,0-.39,1.83c0,1.46.64,2.48,1.21,2.48h0c.29,0,.58-.24.8-.66a4,4,0,0,0,.4-1.83,4.05,4.05,0,0,0-.41-1.83C291.64,215.2,291.35,215,291.06,215Z"/><path class="cls-5" d="M296,220.39a.28.28,0,0,1-.28-.27l0-5-1.44,1a.28.28,0,0,1-.39-.07.26.26,0,0,1,.07-.38l1.88-1.35a.27.27,0,0,1,.29,0,.29.29,0,0,1,.15.25l0,5.56a.27.27,0,0,1-.28.28Z"/><path class="cls-5" d="M307.49,220.43c-1,0-1.76-1.33-1.77-3s.76-3,1.75-3h0c1,0,1.77,1.33,1.77,3s-.76,3.05-1.74,3.05Zm0-5.54h0c-.57,0-1.2,1-1.19,2.5s.64,2.49,1.21,2.49h0c.57,0,1.2-1,1.2-2.5S308,214.89,307.47,214.89Z"/><path class="cls-5" d="M315.91,220.4c-1,0-1.76-1.34-1.77-3s.76-3.05,1.75-3.06h0c1,0,1.76,1.34,1.77,3s-.76,3-1.75,3.06Zm0-5.54h0c-.57,0-1.21,1-1.2,2.5s.64,2.48,1.21,2.48h0c.57,0,1.2-1,1.19-2.49S316.47,214.86,315.9,214.86Z"/><path class="cls-5" d="M320.76,220.38c-1,0-1.77-1.34-1.77-3a4.39,4.39,0,0,1,.46-2.09,1.53,1.53,0,0,1,1.29-1h0c1,0,1.76,1.34,1.77,3s-.76,3.05-1.75,3.06Zm0-5.54h0c-.29,0-.58.24-.8.67a3.93,3.93,0,0,0-.4,1.83c0,1.46.65,2.48,1.22,2.48h0c.57,0,1.2-1,1.19-2.49S321.31,214.84,320.74,214.84Z"/><path class="cls-5" d="M312.36,220.33a.28.28,0,0,1-.27-.28l0-5-1.44,1a.28.28,0,1,1-.32-.45l1.88-1.34a.28.28,0,0,1,.29,0,.27.27,0,0,1,.15.24l0,5.57a.28.28,0,0,1-.28.28Z"/><path class="cls-5" d="M325.67,220.36a1.54,1.54,0,0,1-1.29-1,4.45,4.45,0,0,1-.48-2.09,4.51,4.51,0,0,1,.46-2.09,1.55,1.55,0,0,1,1.29-1h0c1,0,1.77,1.34,1.77,3a4.58,4.58,0,0,1-.45,2.1,1.56,1.56,0,0,1-1.3,1Zm0-5.54h0c-.28,0-.57.24-.8.67a4.36,4.36,0,0,0,0,3.65c.22.42.52.66.8.66h0c.29,0,.58-.24.8-.67a3.91,3.91,0,0,0,.4-1.82C326.86,215.84,326.22,214.82,325.65,214.82Z"/><path class="cls-5" d="M334.09,220.32a1.52,1.52,0,0,1-1.29-.95,4.64,4.64,0,0,1-.48-2.09,4.57,4.57,0,0,1,.46-2.09,1.54,1.54,0,0,1,1.29-1h0c1,0,1.76,1.33,1.77,3a4.54,4.54,0,0,1-.46,2.09,1.54,1.54,0,0,1-1.29,1Zm0-5.54h0c-.28,0-.57.25-.8.67a4.12,4.12,0,0,0-.39,1.83,4,4,0,0,0,.41,1.83c.23.42.52.66.8.66h0c.28,0,.57-.25.8-.67a4.06,4.06,0,0,0,.39-1.83C335.28,215.8,334.65,214.78,334.08,214.78Z"/><path class="cls-5" d="M330.54,220.25a.29.29,0,0,1-.28-.28l0-5-1.44,1a.28.28,0,1,1-.32-.46l1.88-1.34a.27.27,0,0,1,.29,0,.28.28,0,0,1,.15.25l0,5.56a.27.27,0,0,1-.28.28Z"/><path class="cls-5" d="M299.91,220.38a.28.28,0,0,1-.28-.28l0-5-1.44,1a.28.28,0,0,1-.33-.45l1.88-1.34a.28.28,0,0,1,.29,0,.27.27,0,0,1,.15.24l0,5.57a.29.29,0,0,1-.28.28Z"/><path class="cls-5" d="M303.86,220.36a.28.28,0,0,1-.28-.28l0-5-1.44,1a.28.28,0,0,1-.32-.46l1.88-1.34a.27.27,0,0,1,.29,0,.28.28,0,0,1,.15.25l0,5.56a.27.27,0,0,1-.28.28Z"/><path class="cls-3" d="M246.27,158.41a.26.26,0,0,1-.24-.15L225.58,121a.29.29,0,0,1,.11-.38.29.29,0,0,1,.38.11L246.51,158a.26.26,0,0,1-.11.37A.2.2,0,0,1,246.27,158.41Z"/><path class="cls-3" d="M216.68,113.3a.27.27,0,0,1-.27-.28V21.78a.28.28,0,1,1,.55,0V113A.27.27,0,0,1,216.68,113.3Z"/><path class="cls-3" d="M207.54,112.5a.28.28,0,0,1-.27-.28V31a.28.28,0,1,1,.55,0v81.19A.28.28,0,0,1,207.54,112.5Z"/><path class="cls-3" d="M189.26,119.78a.27.27,0,0,1-.27-.28V31a.28.28,0,1,1,.55,0V119.5A.27.27,0,0,1,189.26,119.78Z"/><path class="cls-3" d="M225.82,121.1a.28.28,0,0,1-.27-.28V31a.28.28,0,1,1,.55,0v89.79A.28.28,0,0,1,225.82,121.1Z"/><path class="cls-3" d="M235,122.09a.27.27,0,0,1-.27-.27V31a.28.28,0,1,1,.55,0v90.79A.27.27,0,0,1,235,122.09Z"/><path class="cls-3" d="M198.4,105.9a.27.27,0,0,1-.27-.27V25.29l-10.55-7.77a.28.28,0,1,1,.33-.45l10.66,7.85a.28.28,0,0,1,.11.22v80.49A.27.27,0,0,1,198.4,105.9Z"/><path class="cls-2" d="M205,112.22a2.53,2.53,0,1,0,2.53-2.53A2.53,2.53,0,0,0,205,112.22Z"/><path class="cls-3" d="M207.51,115a2.81,2.81,0,1,1,2.81-2.8A2.8,2.8,0,0,1,207.51,115Zm0-5a2.25,2.25,0,1,0,2.25,2.25A2.25,2.25,0,0,0,207.51,110Z"/><circle class="cls-6" cx="246.27" cy="158.13" r="2.53" transform="translate(-0.16 0.26) rotate(-0.06)"/><path class="cls-2" d="M186.74,120a2.53,2.53,0,1,0,2.52-2.53A2.53,2.53,0,0,0,186.74,120Z"/><path class="cls-3" d="M189.26,122.84a2.81,2.81,0,1,1,2.81-2.8A2.8,2.8,0,0,1,189.26,122.84Zm0-5a2.25,2.25,0,1,0,2.25,2.25A2.25,2.25,0,0,0,189.26,117.79Z"/><path class="cls-2" d="M214.16,22.35a2.53,2.53,0,1,0,2.52-2.53A2.52,2.52,0,0,0,214.16,22.35Z"/><path class="cls-3" d="M216.68,25.16a2.81,2.81,0,1,1,2.81-2.81A2.81,2.81,0,0,1,216.68,25.16Zm0-5.06a2.25,2.25,0,1,0,2.25,2.25A2.25,2.25,0,0,0,216.68,20.1Z"/><circle class="cls-2" cx="187.74" cy="17.04" r="2.53" transform="matrix(1, 0, 0, 1, -0.02, 0.2)"/><path class="cls-3" d="M187.74,19.85A2.81,2.81,0,1,1,190.55,17,2.81,2.81,0,0,1,187.74,19.85Zm0-5.05A2.25,2.25,0,1,0,190,17,2.25,2.25,0,0,0,187.74,14.8Z"/><path class="cls-3" d="M148.05,95.26a.32.32,0,0,1-.2-.08.28.28,0,0,1,0-.4l13-13a.32.32,0,0,1,.2-.08H264.67a.28.28,0,1,1,0,.56H161.13L148.25,95.18A.32.32,0,0,1,148.05,95.26Z"/><path class="cls-3" d="M152.91,113.3H138.08a.28.28,0,1,1,0-.55h14.71L174.6,91a.27.27,0,0,1,.19-.08h74.65a.28.28,0,0,1,0,.55H174.91L153.1,113.22A.27.27,0,0,1,152.91,113.3Z"/><path class="cls-3" d="M292.5,54.9H145.55a.3.3,0,0,1-.23-.11L131.59,35.31a.28.28,0,0,1,.46-.33L145.7,54.35H292.39l18.84-18.83a.28.28,0,0,1,.39.39L292.7,54.82A.24.24,0,0,1,292.5,54.9Z"/><path class="cls-3" d="M294.44,64.54H241.1l-58-.53h-28.4a.28.28,0,1,1,0-.55h28.4l58,.52h53.22l11.06-11a.27.27,0,0,1,.39,0,.28.28,0,0,1,0,.4L294.64,64.46A.32.32,0,0,1,294.44,64.54Z"/><path class="cls-3" d="M314.24,108.22a.25.25,0,0,1-.2-.09l-35-35H174.79a.28.28,0,0,1,0-.55H279.17a.28.28,0,0,1,.2.08l35.06,35a.27.27,0,0,1,0,.39A.25.25,0,0,1,314.24,108.22Z"/><path class="cls-3" d="M256.32,45.77H174.79a.27.27,0,0,1-.27-.28.28.28,0,0,1,.27-.28H256.2l9.23-9.69a.28.28,0,0,1,.4,0,.28.28,0,0,1,0,.39l-9.32,9.77A.25.25,0,0,1,256.32,45.77Z"/><circle class="cls-2" cx="266.03" cy="35.15" r="2.53" transform="translate(230.61 301.14) rotate(-89.94)"/><path class="cls-3" d="M266,38a2.81,2.81,0,1,1,2.81-2.8A2.81,2.81,0,0,1,266,38Zm0-5.05a2.25,2.25,0,1,0,2.25,2.25A2.25,2.25,0,0,0,266,32.9Z"/><circle class="cls-2" cx="311.71" cy="35.72" r="2.53" transform="translate(275.67 347.39) rotate(-89.94)"/><path class="cls-3" d="M311.71,38.52a2.81,2.81,0,1,1,2.8-2.8A2.81,2.81,0,0,1,311.71,38.52Zm0-5.05A2.25,2.25,0,1,0,314,35.72,2.25,2.25,0,0,0,311.71,33.47Z"/><circle class="cls-2" cx="305.95" cy="53.13" r="2.53"/><path class="cls-3" d="M306,55.93a2.81,2.81,0,1,1,2.8-2.8A2.8,2.8,0,0,1,306,55.93Zm0-5a2.25,2.25,0,1,0,2.25,2.25A2.25,2.25,0,0,0,306,50.88Z"/><path class="cls-2" d="M316.76,107.94a2.53,2.53,0,1,1-2.52-2.53A2.52,2.52,0,0,1,316.76,107.94Z"/><path class="cls-3" d="M314.24,110.74a2.81,2.81,0,1,1,2.8-2.8A2.81,2.81,0,0,1,314.24,110.74Zm0-5a2.25,2.25,0,1,0,2.25,2.25A2.25,2.25,0,0,0,314.24,105.69Z"/><circle class="cls-2" cx="138.08" cy="113.02" r="2.53" transform="translate(-0.12 0.14) rotate(-0.06)"/><path class="cls-3" d="M138.08,115.83a2.81,2.81,0,1,1,2.81-2.81A2.81,2.81,0,0,1,138.08,115.83Zm0-5a2.25,2.25,0,1,0,2.25,2.24A2.24,2.24,0,0,0,138.08,110.78Z"/><circle class="cls-2" cx="147.8" cy="94.73" r="2.53" transform="translate(52.91 242.42) rotate(-89.94)"/><path class="cls-3" d="M147.8,97.53a2.81,2.81,0,1,1,2.8-2.8A2.81,2.81,0,0,1,147.8,97.53Zm0-5a2.25,2.25,0,1,0,2.25,2.25A2.25,2.25,0,0,0,147.8,92.48Z"/><circle class="cls-2" cx="154.5" cy="63.99" r="2.53" transform="translate(-0.07 0.16) rotate(-0.06)"/><path class="cls-3" d="M154.5,66.79a2.81,2.81,0,1,1,2.81-2.8A2.81,2.81,0,0,1,154.5,66.79Zm0-5.05A2.25,2.25,0,1,0,156.75,64,2.25,2.25,0,0,0,154.5,61.74Z"/><circle class="cls-2" cx="131.62" cy="35.15" r="2.53" transform="translate(-0.04 0.14) rotate(-0.06)"/><path class="cls-3" d="M131.62,38a2.81,2.81,0,1,1,2.81-2.8A2.81,2.81,0,0,1,131.62,38Zm0-5.05a2.25,2.25,0,1,0,2.25,2.25A2.25,2.25,0,0,0,131.62,32.9Z"/><rect class="cls-6" x="183.13" y="39.36" width="57.97" height="57.93" rx="5.49"/><rect class="cls-2" x="189.63" y="45.86" width="44.96" height="44.94"/><path class="cls-6" d="M224.66,66H199.57a1.71,1.71,0,0,0-1.7,1.71v7.53a11.64,11.64,0,0,0,11.64,11.64h5.21a11.64,11.64,0,0,0,11.64-11.64V67.69A1.71,1.71,0,0,0,224.66,66Z"/><path class="cls-6" d="M222.28,64a1,1,0,0,1-1-1.05V59.4a7.52,7.52,0,0,0-7.51-7.51H210.5A7.52,7.52,0,0,0,203,59.4v3.54a1,1,0,1,1-2.09,0V59.4a9.62,9.62,0,0,1,9.6-9.6h3.23a9.62,9.62,0,0,1,9.6,9.6v3.54A1,1,0,0,1,222.28,64Z"/><path class="cls-2" d="M214.69,73a2.58,2.58,0,1,0-3.81,2.26v5a1.24,1.24,0,0,0,2.47,0v-5A2.58,2.58,0,0,0,214.69,73Z"/><path class="cls-2" d="M124.57,84.49s2.81,33.66-10.34,33.62c-10.15,0-20.68-7.42-20.83-8.21s-.12-21.52-.12-21.52Z"/><path class="cls-3" d="M114.26,118.39h0c-9.91,0-20.88-7.28-21.1-8.44C93,109.16,93,90.5,93,88.38a.29.29,0,0,1,.25-.28l31.29-3.89a.27.27,0,0,1,.21.06.3.3,0,0,1,.1.19c.08,1,1.9,23.8-5.18,31.47A7.17,7.17,0,0,1,114.26,118.39ZM93.56,88.62c0,8.32,0,20.65.12,21.23.44.93,10.78,8,20.55,8h0a6.61,6.61,0,0,0,5-2.28c6.49-7,5.25-28,5.06-30.75Z"/><polygon class="cls-2" points="111.98 109.64 103.63 133.07 78.81 126.58 93.52 92.25 111.98 109.64"/><path class="cls-3" d="M103.63,133.35h-.07l-24.82-6.49a.26.26,0,0,1-.18-.14.29.29,0,0,1,0-.24L93.26,92.14a.28.28,0,0,1,.52.22l-14.59,34,24.27,6.33,8.26-23.19a.28.28,0,0,1,.35-.17.29.29,0,0,1,.17.36l-8.34,23.43A.29.29,0,0,1,103.63,133.35Z"/><path class="cls-3" d="M102.17,66.56l21.22.79s4.78-3.82,8-4.12a6.79,6.79,0,0,1,7.53,5.82c.29,2.56-.89,5.47-5.4,8.21,0,0,4.74,6.54-5.66,9.47,0,0,1,8.06-11,7.19,0,0-1-4.14-5.08-2.83-2.42.77-3.69,5.72-.82,11,0,0-8.75,10.83-19.68,8.31S83.15,95,84,90.77,81.28,73.83,90.33,67C95.76,62.86,102.17,66.56,102.17,66.56Z"/><path class="cls-2" d="M112.14,93.53s4.22-1.47,2,5.57Z"/><path class="cls-3" d="M114.19,99.38h-.08a.27.27,0,0,1-.18-.35c1-3.22.58-4.48.07-5a1.94,1.94,0,0,0-1.77-.26.27.27,0,0,1-.35-.17.27.27,0,0,1,.17-.35,2.45,2.45,0,0,1,2.34.38c.9.87.93,2.74.07,5.53A.29.29,0,0,1,114.19,99.38Z"/><path class="cls-2" d="M182.22,194.58s15.43,1.19,25.81,0,3.4-10.82,3.4-10.82S187.92,187.34,182.22,194.58Z"/><path class="cls-3" d="M211.17,184.37c.66,1,2.79,4.58,1.69,7.06-.62,1.42-2.27,2.3-4.89,2.6a101,101,0,0,1-11.24.53c-5.73,0-11.07-.31-13.33-.45C189.5,188.11,208.37,184.83,211.17,184.37Zm.26-.61s-23.51,3.58-29.21,10.82c0,0,6.86.53,14.51.53a102.46,102.46,0,0,0,11.3-.53C218.41,193.39,211.43,183.76,211.43,183.76Z"/><path class="cls-2" d="M1.93,183.5S-8.58,209.31,20.17,212L36.39,178.6,8.46,174Z"/><path class="cls-3" d="M8.72,174.61,35.56,179,19.84,211.44c-8.26-.85-13.94-3.75-16.88-8.6-4.73-7.79-.86-18.24-.53-19.08ZM8.46,174l-6.53,9.5S-8.58,209.31,20.17,212L36.39,178.6Z"/><path class="cls-6" d="M5.45,231.47H101l17-40.59L152,175.94s-8.52-39.77-30-48.85c-18.92-8-58-7.4-77.9-.48S3.76,175.25,1.93,183.5H26.35Z"/><path class="cls-3" d="M23.73,189.88a.18.18,0,0,1-.1,0,.27.27,0,0,1-.16-.35l9.24-24.61a9.11,9.11,0,0,0,.31-5.49l-.38-1.49a.28.28,0,0,1,.54-.14l.38,1.49a9.76,9.76,0,0,1-.32,5.83L24,189.7A.28.28,0,0,1,23.73,189.88Z"/><path class="cls-3" d="M110,191.45a.29.29,0,0,1-.27-.2L103,170.45a3.39,3.39,0,0,0-1-1.78,1.19,1.19,0,0,0-1-.18.68.68,0,0,0-.47.39.27.27,0,0,1-.36.15.28.28,0,0,1-.16-.36,1.25,1.25,0,0,1,.84-.72,1.78,1.78,0,0,1,1.5.28,3.88,3.88,0,0,1,1.19,2.05l6.72,20.8a.27.27,0,0,1-.18.35Z"/><path class="cls-2" d="M152,174.47l-41.24,17.26s4.32,27.77,23.54,27.78c26.75,0,60.35-34.36,78-34.37,0,0,2.57-6.59-2.9-8,0,0-2.68-5.57-10.07-5.26,0,0-1.25-5.67-15-2.39-9.27,2.2-31.33,11-31.33,11Z"/><path class="cls-3" d="M134.3,219.79h0c-11.49,0-17.72-9.73-20.93-17.89a.27.27,0,0,1,.16-.36.28.28,0,0,1,.36.15c3.14,8,9.24,17.54,20.41,17.54h0c14.69,0,31.62-10.52,46.57-19.81,12.46-7.75,23.23-14.44,31.18-14.56.24-.7,1-3.41,0-5.41a4.15,4.15,0,0,0-2.8-2.08.28.28,0,0,1-.17-.15,10.34,10.34,0,0,0-9.81-5.1.27.27,0,0,1-.29-.22,3.59,3.59,0,0,0-1.7-2c-1.76-1.09-5.45-2-13-.22-9.14,2.17-31.07,10.85-31.29,10.93a.26.26,0,0,1-.23,0,.27.27,0,0,1-.15-.18l-1.26-5.57a.28.28,0,0,1,.21-.34.28.28,0,0,1,.33.21l1.2,5.26c2.68-1.06,22.48-8.8,31.07-10.84,7.76-1.85,11.6-.85,13.45.31a4.4,4.4,0,0,1,1.85,2.07,10.94,10.94,0,0,1,10.06,5.3,4.65,4.65,0,0,1,3,2.34c1.29,2.54,0,5.9-.05,6a.28.28,0,0,1-.26.18c-7.81,0-19.12,7-31.09,14.47C166.15,209.22,149.15,219.79,134.3,219.79Z"/><path class="cls-3" d="M155.36,190.61a.28.28,0,0,1-.27-.21l-2.45-10a.29.29,0,0,1,.21-.34.28.28,0,0,1,.33.21l2.45,9.95a.29.29,0,0,1-.21.34Z"/><path class="cls-3" d="M192.1,174a.29.29,0,0,1-.27-.22.28.28,0,0,1,.22-.33l6.36-1.37a.27.27,0,0,1,.33.21.28.28,0,0,1-.21.33L192.16,174Z"/><path class="cls-3" d="M200.5,179.13a.27.27,0,0,1-.24-.14.27.27,0,0,1,.1-.38,13.43,13.43,0,0,1,8.91-1.51.27.27,0,1,1-.1.54,12.92,12.92,0,0,0-8.53,1.45A.25.25,0,0,1,200.5,179.13Z"/><path class="cls-2" d="M51.57,59.29a5.44,5.44,0,0,0-.19-.57,20.15,20.15,0,0,0,4.82-3.58,4.26,4.26,0,0,0,.49.34A4.93,4.93,0,0,0,61.75,47a5.28,5.28,0,0,0-.53-.27,20,20,0,0,0,.87-5.94c.2,0,.39-.06.59-.11a4.93,4.93,0,0,0-2.41-9.57,4.76,4.76,0,0,0-.57.19,20.15,20.15,0,0,0-3.58-4.82c.12-.16.23-.32.34-.5A4.93,4.93,0,0,0,48,20.93a5.44,5.44,0,0,0-.27.54,20,20,0,0,0-5.94-.88c0-.2-.06-.39-.11-.59a4.93,4.93,0,1,0-9.56,2.41,4.75,4.75,0,0,0,.18.57,19.9,19.9,0,0,0-4.81,3.58c-.16-.12-.32-.23-.5-.34a4.93,4.93,0,0,0-5.06,8.47q.27.15.54.27a20.34,20.34,0,0,0-.88,5.94c-.19,0-.39.06-.59.11a4.93,4.93,0,0,0,2.41,9.57,3.47,3.47,0,0,0,.57-.19,20,20,0,0,0,3.59,4.82,4.46,4.46,0,0,0-.35.5,4.93,4.93,0,0,0,8.47,5.06,3.78,3.78,0,0,0,.27-.53,20,20,0,0,0,5.94.87c0,.2.06.39.11.59a4.93,4.93,0,0,0,9.57-2.41ZM33,43.09a9.16,9.16,0,1,1,11.11,6.64A9.15,9.15,0,0,1,33,43.09Z"/><path class="cls-3" d="M46.78,65.71a5.22,5.22,0,0,1-5.05-3.94c0-.12-.06-.25-.08-.38a20.48,20.48,0,0,1-5.55-.82c-.06.12-.12.24-.18.34a5.21,5.21,0,0,1-7.14,1.8A5.21,5.21,0,0,1,27,55.56c.06-.1.13-.21.21-.32a20.51,20.51,0,0,1-3.35-4.5l-.37.11a5.21,5.21,0,0,1-2.54-10.11l.38-.08a20.47,20.47,0,0,1,.81-5.55l-.34-.18A5.21,5.21,0,1,1,27.12,26l.33.22A20.19,20.19,0,0,1,32,22.85a3,3,0,0,1-.11-.37,5.21,5.21,0,1,1,10.1-2.55c0,.12.06.25.08.38a20.48,20.48,0,0,1,5.55.82c.06-.12.12-.24.18-.34A5.21,5.21,0,0,1,54.9,19a5.23,5.23,0,0,1,1.8,7.15l-.22.32A20.19,20.19,0,0,1,59.83,31l.37-.11A5.21,5.21,0,1,1,62.75,41l-.38.08a20.48,20.48,0,0,1-.82,5.55l.34.18a5.21,5.21,0,1,1-5.34,8.95l-.33-.21a20.23,20.23,0,0,1-4.5,3.34,3.16,3.16,0,0,1,.12.37,5.22,5.22,0,0,1-3.78,6.33A5.16,5.16,0,0,1,46.78,65.71Zm-4.89-4.88a.29.29,0,0,1,.28.24c0,.22.06.39.1.56a4.66,4.66,0,1,0,9-2.27,5.68,5.68,0,0,0-.18-.54.29.29,0,0,1,.13-.35A19.76,19.76,0,0,0,56,54.94a.28.28,0,0,1,.37,0,4.88,4.88,0,0,0,.46.32,4.66,4.66,0,1,0,4.78-8A4.8,4.8,0,0,0,61.1,47a.27.27,0,0,1-.15-.33,19.7,19.7,0,0,0,.86-5.86.28.28,0,0,1,.24-.28l.56-.1a4.66,4.66,0,1,0-2.27-9,3.79,3.79,0,0,0-.54.18.29.29,0,0,1-.35-.13,19.38,19.38,0,0,0-3.53-4.75.28.28,0,0,1,0-.37,4.93,4.93,0,0,0,.32-.47,4.66,4.66,0,0,0-1.61-6.38,4.65,4.65,0,0,0-6.38,1.6c-.09.15-.17.32-.26.51a.27.27,0,0,1-.33.15,20,20,0,0,0-5.79-.86s-.05,0-.07,0a.28.28,0,0,1-.28-.24,3.78,3.78,0,0,0-.1-.56,4.65,4.65,0,1,0-9,2.27,5.44,5.44,0,0,0,.17.54.28.28,0,0,1-.13.35,19.76,19.76,0,0,0-4.75,3.53.28.28,0,0,1-.37,0,3.86,3.86,0,0,0-.46-.32,4.65,4.65,0,0,0-4.77,8,4.58,4.58,0,0,0,.5.26.27.27,0,0,1,.15.33,19.7,19.7,0,0,0-.86,5.86.28.28,0,0,1-.24.28l-.56.1a4.66,4.66,0,0,0,2.27,9,3.42,3.42,0,0,0,.54-.18.29.29,0,0,1,.35.13A19.62,19.62,0,0,0,27.75,55a.27.27,0,0,1,0,.36,3.73,3.73,0,0,0-.33.47,4.66,4.66,0,0,0,1.61,6.38,4.65,4.65,0,0,0,6.38-1.6,4.8,4.8,0,0,0,.26-.51A.28.28,0,0,1,36,60a20,20,0,0,0,5.85.86Zm-.07-10.54A9.48,9.48,0,1,1,44.14,50,9.22,9.22,0,0,1,41.82,50.29Zm0-18.33a8.52,8.52,0,0,0-2.18.28A8.88,8.88,0,1,0,44,49.46,8.89,8.89,0,0,0,41.85,32Z"/><path class="cls-7" d="M97.29,43.7a2.23,2.23,0,0,0-.13-.39,13.75,13.75,0,0,0,3.31-2.47,2.62,2.62,0,0,0,.34.24,3.39,3.39,0,1,0,3.48-5.82l-.37-.19a13.89,13.89,0,0,0,.6-4.08,2.79,2.79,0,0,0,.4-.07,3.39,3.39,0,0,0-1.65-6.57,2.22,2.22,0,0,0-.39.12,14.18,14.18,0,0,0-2.46-3.31,2.88,2.88,0,0,0,.23-.34,3.39,3.39,0,0,0-5.82-3.47,3,3,0,0,0-.18.36,14.28,14.28,0,0,0-4.08-.6,2.83,2.83,0,0,0-.08-.4,3.39,3.39,0,0,0-6.57,1.65,3.56,3.56,0,0,0,.13.39,14,14,0,0,0-3.31,2.46A4,4,0,0,0,80.4,21a3.39,3.39,0,0,0-3.47,5.82l.36.19a14.18,14.18,0,0,0-.6,4.08,2.79,2.79,0,0,0-.4.07,3.39,3.39,0,0,0,1.65,6.57c.14,0,.27-.08.4-.12A13.84,13.84,0,0,0,80.8,40.9a2.52,2.52,0,0,0-.24.33,3.39,3.39,0,0,0,5.82,3.48c.07-.12.13-.24.19-.36a14.18,14.18,0,0,0,4.08.6,1.87,1.87,0,0,0,.07.4,3.39,3.39,0,1,0,6.57-1.65ZM84.51,32.57a6.29,6.29,0,1,1,7.63,4.56A6.29,6.29,0,0,1,84.51,32.57Z"/><path class="cls-7" d="M61.49,19.78a2.14,2.14,0,0,0,3-.33,1.37,1.37,0,0,0,.15-.21,8.61,8.61,0,0,0,2.5.72,2.26,2.26,0,0,0,0,.26,2.14,2.14,0,0,0,4.26-.47,2.38,2.38,0,0,0,0-.26,8.33,8.33,0,0,0,2.28-1.25,1.54,1.54,0,0,0,.19.17,2.14,2.14,0,1,0,2.68-3.33,1.07,1.07,0,0,0-.22-.15,8.72,8.72,0,0,0,.73-2.5l.26,0a2.14,2.14,0,0,0-.47-4.25l-.26.05a8.9,8.9,0,0,0-1.25-2.28,1.54,1.54,0,0,0,.17-.19,2.14,2.14,0,1,0-3.34-2.68L72,3.28a8.85,8.85,0,0,0-2.5-.73,2.35,2.35,0,0,0,0-.26,2.14,2.14,0,1,0-4.25.47,2,2,0,0,0,0,.26A8.64,8.64,0,0,0,63,4.28a1.07,1.07,0,0,0-.19-.18,2.14,2.14,0,1,0-2.67,3.34l.21.15a8.85,8.85,0,0,0-.73,2.5h-.26a2.14,2.14,0,1,0,.48,4.25l.25,0a8.86,8.86,0,0,0,1.26,2.29l-.18.19A2.13,2.13,0,0,0,61.49,19.78Zm4.35-5.42a4,4,0,1,1,5.58-.62A4,4,0,0,1,65.84,14.36Z"/><path class="cls-3" d="M3.71,161.91a.28.28,0,0,1-.28-.28V124.39a.28.28,0,0,1,.28-.28.29.29,0,0,1,.28.28v37.24A.29.29,0,0,1,3.71,161.91Z"/><path class="cls-3" d="M3.71,91.78a.27.27,0,0,1-.28-.27V37.32a.27.27,0,0,1,.28-.27H14.54a.28.28,0,1,1,0,.55H4V91.51A.28.28,0,0,1,3.71,91.78Z"/><ellipse class="cls-4" cx="3.69" cy="97.22" rx="3.63" ry="3.63"/><ellipse class="cls-4" cx="3.69" cy="107.82" rx="3.63" ry="3.63"/><ellipse class="cls-4" cx="3.69" cy="118.42" rx="3.63" ry="3.63"/></svg>