<svg id="Layer_1" data-name="Layer 1" xmlns="http://www.w3.org/2000/svg" viewBox="0 0 66.13 66.08"><defs><style>.cls-1{fill:none;}.cls-2{fill:#fdeef5;}.cls-3{fill:#f16263;}.cls-4{fill:#ee236c;}.cls-5{fill:#86c440;}.cls-6{fill:#55b948;}.cls-7{fill:#6fc8bd;}.cls-8{fill:#f8a17c;}.cls-9{fill:#ed8564;}.cls-10{fill:#56c3bb;}.cls-11{fill:#d4e3f0;}.cls-12{fill:#edf7f8;}</style></defs><rect class="cls-1" x="0.52" y="6.61" width="318.47" height="285.2" rx="62.31"/><rect class="cls-1" x="0.52" y="6.61" width="315.37" height="282.15" rx="58.74"/><circle class="cls-2" cx="33.06" cy="33.04" r="33"/><path class="cls-3" d="M19.07,34.65a11.74,11.74,0,0,1,4.27-2.2A15.71,15.71,0,0,1,26.05,32h.79V52.3H15.13a1.45,1.45,0,0,1-1-.95V43.28A5.2,5.2,0,0,0,14.45,42a13.09,13.09,0,0,1,2.21-4.93l3.72,0a1.17,1.17,0,0,0,1.25-1.18,1.19,1.19,0,0,0-1.26-1.19Z"/><path class="cls-4" d="M26.84,52.3V32h0a2,2,0,0,0,.88-.06,3.33,3.33,0,0,0,1.21.22,12.45,12.45,0,0,1,5.65,2.53l-1.22,0A1.21,1.21,0,0,0,32,35.87,1.19,1.19,0,0,0,33.32,37l3.64,0a17.1,17.1,0,0,1,1.12,1.82c0,.12-.11.24-.17.36a8.81,8.81,0,0,0-.69,6.58,9.21,9.21,0,0,0,2.22,3.85c0,.38,0,.76,0,1.14a1.34,1.34,0,0,1-.9,1.49Z"/><path class="cls-5" d="M39.44,49.67a9.21,9.21,0,0,1-2.22-3.85,8.81,8.81,0,0,1,.69-6.58c.06-.12.12-.24.17-.36a9.56,9.56,0,0,1,3.12-3.11,8.69,8.69,0,0,1,4.61-1.26c0,3,0,6,0,9l-.07.13a3.51,3.51,0,0,0-.34.33c-.17.22-.3.24-.51,0-.48-.51-1-1-1.48-1.48a1.19,1.19,0,0,0-1.65,0,1.17,1.17,0,0,0,0,1.67c.83.86,1.68,1.7,2.54,2.54a1.13,1.13,0,0,0,1.51.14V52.3H44.71c0-.1-.12-.08-.19-.09a10.19,10.19,0,0,1-1.71-.43A9.42,9.42,0,0,1,39.44,49.67Z"/><path class="cls-6" d="M45.82,52.3c0-1.79,0-3.57,0-5.36,1.56-1.55,3.13-3.1,4.68-4.66a1,1,0,0,0,.27-1.06,1.19,1.19,0,0,0-2-.54c-1,1-1.93,1.91-2.89,2.87,0-3,0-6,0-9a8.85,8.85,0,0,1,8.24,5.58,7.82,7.82,0,0,1,.56,2.2.11.11,0,0,0,.07.12v2.06c-.08,0-.07.09-.08.16a8.81,8.81,0,0,1-6,7.21c-.6.22-1.23.27-1.84.46Z"/><path class="cls-7" d="M14.18,12.67a1.47,1.47,0,0,1,1.55-.88c1.53,0,3.06,0,4.58,0a1.19,1.19,0,1,1,0,2.37c-1.09,0-2.18,0-3.28,0-.37,0-.51.06-.5.48,0,1,0,2.06,0,3.08,0,.86-.27,1.33-.87,1.49s-1.1-.12-1.5-.85Z"/><path class="cls-7" d="M19.07,34.65l1.3,0a1.19,1.19,0,0,1,1.26,1.19A1.17,1.17,0,0,1,20.38,37l-3.72,0a7.37,7.37,0,0,0-.94,0,1.4,1.4,0,0,1-1.54-.89V30.47c.42-.73.89-1,1.46-.85s.91.63.91,1.51c0,1.07,0,2.13,0,3.2,0,.28.08.35.35.34C17.62,34.65,18.35,34.66,19.07,34.65Z"/><path class="cls-8" d="M26.84,32h-.79a10.57,10.57,0,0,1-2.26-.64,7.38,7.38,0,0,1-4.47-6.17A7.51,7.51,0,0,1,25.67,17a4.15,4.15,0,0,1,1.17-.09v.55q0,7.28,0,14.53Z"/><path class="cls-9" d="M26.83,32q0-7.26,0-14.53v-.55a7.21,7.21,0,0,1,4.79,1.74,7.29,7.29,0,0,1,2.7,6.43,7.53,7.53,0,0,1-6.27,6.83c-.12,0-.24,0-.35,0A2,2,0,0,1,26.83,32Z"/><path class="cls-10" d="M39.42,15.53c0,.82,0,1.64,0,2.45a1.16,1.16,0,0,1-1.17,1.26A1.18,1.18,0,0,1,37.05,18c0-1.16,0-2.32,0-3.48,0-.28-.07-.36-.35-.36-1.13,0-2.27,0-3.4,0a1.19,1.19,0,1,1,0-2.37h4.79a1.18,1.18,0,0,1,1.31,1.32C39.43,13.92,39.42,14.73,39.42,15.53Z"/><path class="cls-10" d="M37,37.06l-3.64,0A1.19,1.19,0,0,1,32,35.87a1.21,1.21,0,0,1,1.37-1.2l1.22,0c.74,0,1.48,0,2.21,0,.25,0,.28-.11.27-.31,0-1.17,0-2.34,0-3.51a1.19,1.19,0,0,1,1.62-1.17,1.08,1.08,0,0,1,.75,1q0,2.61,0,5.22A1.14,1.14,0,0,1,38.3,37Z"/><path class="cls-11" d="M45.82,43.55c1-1,1.92-1.92,2.89-2.87a1.19,1.19,0,0,1,2,.54,1,1,0,0,1-.27,1.06c-1.55,1.56-3.12,3.11-4.68,4.66V44c0-.11,0-.23-.07-.33Z"/><path class="cls-12" d="M45.75,43.68c.1.1.07.22.07.33v2.9a1.13,1.13,0,0,1-1.51-.14c-.86-.84-1.71-1.68-2.54-2.54a1.17,1.17,0,0,1,0-1.67,1.19,1.19,0,0,1,1.65,0c.51.47,1,1,1.48,1.48.21.23.34.21.51,0A3.51,3.51,0,0,1,45.75,43.68Z"/></svg>