<svg id="Layer_1" data-name="Layer 1" xmlns="http://www.w3.org/2000/svg" viewBox="0 0 66.13 66.08"><defs><style>.cls-1{fill:none;}.cls-2{fill:#fdfad5;}.cls-3{fill:#fdcd1c;}.cls-4{fill:#f8a21b;}.cls-5{fill:#e93a84;}.cls-6{fill:#fcca54;}.cls-7{fill:#f9b33c;}</style></defs><rect class="cls-1" x="0.52" y="6.61" width="318.47" height="285.2" rx="62.31"/><rect class="cls-1" x="0.52" y="6.61" width="315.37" height="282.15" rx="58.74"/><circle class="cls-2" cx="33.06" cy="33.04" r="33"/><path class="cls-3" d="M45,48.05a2.45,2.45,0,0,1-.37-.26c-2.35-2.46-5.36-3.72-8.53-4.69a30.48,30.48,0,0,0-9.78-1.26,2,2,0,0,1-.34,0V24.53a43.17,43.17,0,0,0,5.21-.24c4.38-.65,8.57-1.83,12.18-4.56A17.14,17.14,0,0,1,45,18.3V47.91Z"/><path class="cls-4" d="M17,41.86l-1.31,0a3,3,0,0,1-3.14-3.1c0-.19,0-.38,0-.57v-10c0-.26,0-.53,0-.8a2.93,2.93,0,0,1,2.74-2.86c3.51,0,7,0,10.53,0V41.82l-2.75,0Z"/><path class="cls-4" d="M45,18.43V18.3a14.71,14.71,0,0,1,.1-1.48,3,3,0,0,1,3.2-2.39,3.07,3.07,0,0,1,2.78,2.81v.34q0,15.6,0,31.19A3,3,0,1,1,45,49l0-.92,0-.14c.18-.17.11-.39.11-.59V19C45.1,18.83,45.17,18.6,45,18.43Z"/><path class="cls-5" d="M17,41.86h6.08l1.68,10.33a3,3,0,0,1-2.43,3.47,3,3,0,0,1-3.46-2.29C18.21,49.54,17.62,45.7,17,41.86Z"/><path class="cls-5" d="M12.54,28.18v10a5.14,5.14,0,0,1-3.1-.56,3.77,3.77,0,0,1-1.86-3.17c0-.86,0-1.72,0-2.58a3.84,3.84,0,0,1,3.74-3.68Z"/><path class="cls-6" d="M25.83,41.82V24.53H26V41.82Z"/><path class="cls-7" d="M45,18.43c.18.17.11.4.11.6V47.32c0,.2.07.42-.11.59Z"/></svg>