<svg id="Layer_1" data-name="Layer 1" xmlns="http://www.w3.org/2000/svg" viewBox="0 0 66.13 66.08"><defs><style>.cls-1{fill:none;}.cls-2{fill:#e7f6fd;}.cls-3{fill:#ceecf6;}.cls-4{fill:#29bfc9;}.cls-5{fill:#83d3eb;}.cls-6{fill:#847ab9;}.cls-7{fill:#2cbfc9;}.cls-8{fill:#6456a5;}.cls-9{fill:#ccebf7;}.cls-10{fill:#ee2843;}.cls-11{fill:#c12026;}</style></defs><rect class="cls-1" x="0.52" y="6.61" width="318.47" height="285.2" rx="62.31"/><rect class="cls-1" x="0.52" y="6.61" width="315.37" height="282.15" rx="58.74"/><circle class="cls-2" cx="33.06" cy="33.04" r="33"/><path class="cls-3" d="M24,14.45h2.66c0,.72,0,1.44,0,2.16a2.18,2.18,0,0,0,2.23,2.23h9.32a2.2,2.2,0,0,0,2.24-2.23V14.45h.39l.14.08a2.17,2.17,0,0,1,1.66,2.18c0,5.74,0,11.48,0,17.22l-.47,0c-2.11,0-4.22,0-6.34,0a2.23,2.23,0,0,0-2.26,2.27c0,2.43,0,4.86,0,7.28a2.31,2.31,0,0,0,.31,1.2,2.38,2.38,0,0,0,2.23,1.1h6.54c0,2.17,0,4.35,0,6.53a2.34,2.34,0,0,1-.21.94,2.4,2.4,0,0,1-1.6,1.31H24.05c-.11-.12-.27-.1-.4-.14a2.23,2.23,0,0,1-1.41-1.94q0-9.63,0-19.24h.35c2.8,0,5.61,0,8.41,0a2.29,2.29,0,0,0,2.47-2.44c-.06-2.38,0-4.75,0-7.13a2.27,2.27,0,0,0-.07-.73,2.22,2.22,0,0,0-2.34-1.58h-8.8c0-1.61,0-3.23,0-4.84a2,2,0,0,1,.3-1A2.63,2.63,0,0,1,24,14.45ZM33.52,48.3a1.88,1.88,0,1,0,1.88,1.86A1.88,1.88,0,0,0,33.52,48.3Z"/><path class="cls-4" d="M40.42,14.45v2.16a2.2,2.2,0,0,1-2.24,2.23H28.86a2.18,2.18,0,0,1-2.23-2.23c0-.72,0-1.44,0-2.16Z"/><path class="cls-5" d="M43,14.45a2.37,2.37,0,0,1,1.6,1.31,2.56,2.56,0,0,1,.2,1.06V33.93a20.18,20.18,0,0,1-2.2,0c0-5.74,0-11.48,0-17.22A2.17,2.17,0,0,0,41,14.53l-.14-.08Z"/><path class="cls-5" d="M44.81,45.79v6.45a2.2,2.2,0,0,1-1.71,2.27l-.09.06h-2.2a2.4,2.4,0,0,0,1.6-1.31,2.34,2.34,0,0,0,.21-.94c0-2.18,0-4.36,0-6.53Z"/><path class="cls-6" d="M22.25,33.25c-.42,0-.84,0-1.26,0a.49.49,0,0,0-.49.29c-.46.8-.95,1.59-1.42,2.39-.36.59-.84.6-1.2,0l-1.43-2.38c-.1-.17-.2-.31-.4-.32a.44.44,0,0,0-.06-.3,2.44,2.44,0,0,1-.25-1.25c0-2.62,0-5.24,0-7.86a2.76,2.76,0,0,1,1.13-2.39c1.79,0,3.59.05,5.39-.05h8.8A2.22,2.22,0,0,1,33.39,23a2.27,2.27,0,0,1,.07.73c0,2.38,0,4.75,0,7.13A2.29,2.29,0,0,1,31,33.25c-2.8,0-5.61,0-8.41,0ZM26,26.35h3c.54,0,.79-.24.76-.67s-.28-.54-.77-.54H23.07a1.34,1.34,0,0,0-.35.05.55.55,0,0,0-.45.56.55.55,0,0,0,.43.55,1.75,1.75,0,0,0,.46.05Zm1.26,3.13H29c.5,0,.75-.26.72-.67s-.27-.54-.73-.55H25.53a1.09,1.09,0,0,0-.26,0,.56.56,0,0,0-.49.58.55.55,0,0,0,.46.55,2,2,0,0,0,.42.05ZM19.1,26.35c.37,0,.75,0,1.13,0s.7-.23.69-.61-.24-.59-.7-.6H18a.67.67,0,0,0-.74.59c0,.34.3.61.75.62S18.73,26.35,19.1,26.35Zm-.63,3.13a3.92,3.92,0,0,0,.76,0,.55.55,0,0,0,.44-.56.51.51,0,0,0-.43-.57,4.2,4.2,0,0,0-1.54,0,.52.52,0,0,0-.44.56.56.56,0,0,0,.42.55A3,3,0,0,0,18.47,29.48Zm3.78-1.23c-.22,0-.47,0-.71,0a.56.56,0,0,0-.52.59.55.55,0,0,0,.5.56,4.89,4.89,0,0,0,1.43,0,.53.53,0,0,0,.48-.6.53.53,0,0,0-.5-.55A4.88,4.88,0,0,0,22.25,28.25Z"/><path class="cls-6" d="M44.81,45.79H36.08a2.38,2.38,0,0,1-2.23-1.1,2.31,2.31,0,0,1-.31-1.2c0-2.42,0-4.85,0-7.28a2.23,2.23,0,0,1,2.26-2.27c2.12,0,4.23,0,6.34,0l.47,0a20.18,20.18,0,0,0,2.2,0h5.38a2.76,2.76,0,0,1,1.13,2.43c0,2,0,4,0,6A7.78,7.78,0,0,1,51,45.75c-.22,0-.3.16-.39.32l-1.41,2.35c-.38.64-.84.64-1.24,0s-.94-1.56-1.4-2.35a.5.5,0,0,0-.53-.29C45.61,45.79,45.21,45.78,44.81,45.79Zm.39-9.33a2.07,2.07,0,0,0-1.31.27.6.6,0,0,1-.68,0,2.15,2.15,0,0,0-2.39.12,2.35,2.35,0,0,0-1,2.3A4.31,4.31,0,0,0,42,42.35a8.08,8.08,0,0,0,1.17.76.71.71,0,0,0,.81,0,10.27,10.27,0,0,0,1.8-1.24,3.87,3.87,0,0,0,1.48-3.3A2.24,2.24,0,0,0,45.2,36.46Z"/><path class="cls-7" d="M33.52,48.3a1.88,1.88,0,1,1-1.88,1.9A1.89,1.89,0,0,1,33.52,48.3Z"/><path class="cls-8" d="M16.86,21.41a2.76,2.76,0,0,0-1.13,2.39c0,2.62,0,5.24,0,7.86A2.44,2.44,0,0,0,16,32.91a.44.44,0,0,1,.06.3,2.18,2.18,0,0,1-2.53-2.3V23.67A2.12,2.12,0,0,1,15.8,21.4Z"/><path class="cls-8" d="M51,45.75a7.78,7.78,0,0,0,.33-3.35c0-2,0-4,0-6a2.76,2.76,0,0,0-1.13-2.43,5.16,5.16,0,0,1,1.52,0,2.13,2.13,0,0,1,1.81,1.89v8A2.2,2.2,0,0,1,51,45.75Z"/><path class="cls-9" d="M26,26.35H23.16a1.75,1.75,0,0,1-.46-.05.55.55,0,0,1-.43-.55.55.55,0,0,1,.45-.56,1.34,1.34,0,0,1,.35-.05h5.86c.49,0,.74.18.77.54s-.22.67-.76.67Z"/><path class="cls-9" d="M27.23,29.48H25.66a2,2,0,0,1-.42-.05.55.55,0,0,1-.46-.55.56.56,0,0,1,.49-.58,1.09,1.09,0,0,1,.26,0H29c.46,0,.7.2.73.55s-.22.66-.72.67Z"/><path class="cls-9" d="M19.1,26.35c-.37,0-.73,0-1.1,0s-.76-.28-.75-.62a.67.67,0,0,1,.74-.59h2.23c.46,0,.7.22.7.6s-.23.6-.69.61S19.47,26.35,19.1,26.35Z"/><path class="cls-9" d="M18.47,29.48a3,3,0,0,1-.79-.05.56.56,0,0,1-.42-.55.52.52,0,0,1,.44-.56,4.2,4.2,0,0,1,1.54,0,.51.51,0,0,1,.43.57.55.55,0,0,1-.44.56A3.92,3.92,0,0,1,18.47,29.48Z"/><path class="cls-9" d="M22.25,28.25a4.88,4.88,0,0,1,.68,0,.53.53,0,0,1,.5.55.53.53,0,0,1-.48.6,4.89,4.89,0,0,1-1.43,0,.55.55,0,0,1-.5-.56.56.56,0,0,1,.52-.59C21.78,28.26,22,28.26,22.25,28.25Z"/><path class="cls-10" d="M42,42.35a4.31,4.31,0,0,1-2.13-3.2,2.35,2.35,0,0,1,1-2.3,2.15,2.15,0,0,1,2.39-.12.6.6,0,0,0,.68,0,2.07,2.07,0,0,1,1.31-.27,3,3,0,0,1,0,3.21A6.81,6.81,0,0,1,42,42.35Z"/><path class="cls-11" d="M42,42.35a6.81,6.81,0,0,0,3.2-2.68,3,3,0,0,0,0-3.21,2.24,2.24,0,0,1,2,2.11,3.87,3.87,0,0,1-1.48,3.3A10.27,10.27,0,0,1,44,43.11a.71.71,0,0,1-.81,0A8.08,8.08,0,0,1,42,42.35Z"/></svg>