<svg id="Layer_1" data-name="Layer 1" xmlns="http://www.w3.org/2000/svg" viewBox="0 0 66.13 66.08"><defs><style>.cls-1{fill:none;}.cls-2{fill:#f1f0f8;}.cls-3{fill:#7bc1cb;}.cls-4{fill:#fdd373;}.cls-5{fill:#69627d;}.cls-6{fill:#eb8383;}.cls-7{fill:#eb8686;}.cls-8{fill:#4f9cb9;}.cls-9{fill:#fab665;}.cls-10{fill:#4c435b;}</style></defs><rect class="cls-1" x="0.52" y="6.61" width="318.47" height="285.2" rx="62.31"/><rect class="cls-1" x="0.52" y="6.61" width="315.37" height="282.15" rx="58.74"/><circle class="cls-2" cx="33.06" cy="33.04" r="33"/><path class="cls-3" d="M36.44,41.27c-1.52-1.54-3-3.08-4.59-4.57a24.77,24.77,0,0,0-1.77-1.78l-.24-.27C28,32.77,26.06,30.89,24.2,29a1.49,1.49,0,0,0-1.69-.48,6.41,6.41,0,0,1-8-5.38,5.46,5.46,0,0,1,.28-2.85c.14,0,.21.16.3.25.69.68,1.38,1.37,2.06,2.06a.55.55,0,0,0,.57.19c.95-.18,1.91-.32,2.86-.47a.43.43,0,0,0,.41-.42c.15-1,.3-1.93.47-2.89a.43.43,0,0,0-.12-.46c-.61-.6-1.21-1.22-1.82-1.82-.19-.19-.38-.38-.61-.59a3.79,3.79,0,0,1,1.55-.35,6.48,6.48,0,0,1,6.89,5.63,6.77,6.77,0,0,1-.32,3,.4.4,0,0,0,.09.49c2.1,2.08,4.19,4.18,6.28,6.27a.46.46,0,0,0,.24.17,13.45,13.45,0,0,0,1.77,1.77c0,.15.17.23.27.34L40,37.73a12.53,12.53,0,0,0-1.6,1.09A8.86,8.86,0,0,0,36.44,41.27ZM24.25,24.74s0-.07-.06-.09l-.93-.94c-.1-.1-.19-.05-.29,0-.73.56-.74.64-.1,1.28l0,0c.56.56.56.56,1.13,0C24.12,24.94,24.23,24.88,24.25,24.74Z"/><path class="cls-4" d="M36.44,41.27a8.86,8.86,0,0,1,1.94-2.45A12.53,12.53,0,0,1,40,37.73a10.76,10.76,0,0,1,2-.63,7.49,7.49,0,0,1,6.37,1.77A7.4,7.4,0,0,1,51,44.93a7.28,7.28,0,0,1-1.91,4.78A7.44,7.44,0,0,1,43,52.29a7.34,7.34,0,0,1-4.71-1.9A7.49,7.49,0,0,1,35.8,46a7.61,7.61,0,0,1,.5-4.32C36.35,41.52,36.39,41.39,36.44,41.27Zm10.45,3.36c0-.48,0-1,0-1.43a.42.42,0,0,0-.27-.46l-3.06-1.53a.41.41,0,0,0-.44,0l-3,1.51a.44.44,0,0,0-.28.45q0,1.45,0,2.91a.44.44,0,0,0,.27.46q1.53.75,3.06,1.53a.43.43,0,0,0,.41,0c1-.53,2.06-1,3.09-1.55a.4.4,0,0,0,.25-.44C46.88,45.61,46.89,45.12,46.89,44.63Z"/><path class="cls-5" d="M29.5,39c.56.65,1.2,1.23,1.81,1.83.21.21.24.33,0,.54-.44.41-.87.84-1.27,1.28a.45.45,0,0,1-.58.12c-.31-.13-.65-.22-1-.33a.68.68,0,0,0-.9.89c.12.37.24.74.37,1.11a.28.28,0,0,1-.08.35c-2.15,2.14-4.27,4.31-6.45,6.42a4,4,0,0,1-4.58.68,4.16,4.16,0,0,1-1.12-6.74L22,38.92a.34.34,0,0,1,.42-.1c.36.14.73.26,1.11.37a.66.66,0,0,0,.86-.87c-.1-.36-.23-.72-.36-1.08a.35.35,0,0,1,.1-.45c.48-.46.94-.93,1.4-1.4.15-.16.24-.14.38,0,.64.63,1.24,1.3,1.92,1.88S28.9,38.45,29.5,39Zm-5.84,3.17a.25.25,0,0,0-.11-.2,4.89,4.89,0,0,1-.39-.4c-.2-.25-.34-.25-.57,0-1.84,1.86-3.69,3.7-5.54,5.55-.65.65-.64.64,0,1.27.16.15.26.17.42,0l6-6Zm1.85,1.65a5.76,5.76,0,0,1-.59-.5c-.2-.22-.33-.22-.55,0L18.8,48.89c-.64.64-.63.64,0,1.27.14.14.23.16.38,0q3-3,6.07-6.07A1.1,1.1,0,0,0,25.51,43.82Z"/><path class="cls-6" d="M35.44,33.11a13.45,13.45,0,0,1-1.77-1.77l6.65-6.64c.93-.93,1.87-1.88,2.81-2.81a.71.71,0,0,0,.23-.55c0-.78,0-1.57,0-2.35a.4.4,0,0,1,.23-.41l4.89-2.72c.16-.09.25,0,.37.07.67.67,1.33,1.34,2,2a.29.29,0,0,1,0,.41q-1.35,2.4-2.69,4.82a.44.44,0,0,1-.46.27H45.39a.55.55,0,0,0-.43.15Z"/><path class="cls-7" d="M29.5,39c-.6-.55-1.17-1.13-1.72-1.73.44-.57,1-1,1.49-1.55.26-.27.54-.53.81-.8a24.77,24.77,0,0,1,1.77,1.78C31.07,37.46,30.34,38.28,29.5,39Z"/><path class="cls-8" d="M24.25,24.74c0,.14-.13.2-.22.28-.57.58-.57.58-1.13,0l0,0c-.64-.64-.63-.72.1-1.28.1-.07.19-.12.29,0l.93.94S24.23,24.71,24.25,24.74Z"/><path class="cls-9" d="M46.89,44.63c0,.49,0,1,0,1.47a.4.4,0,0,1-.25.44c-1,.51-2.06,1-3.09,1.55a.43.43,0,0,1-.41,0q-1.53-.78-3.06-1.53a.44.44,0,0,1-.27-.46q0-1.46,0-2.91a.44.44,0,0,1,.28-.45l3-1.51a.41.41,0,0,1,.44,0l3.06,1.53a.42.42,0,0,1,.27.46C46.88,43.68,46.89,44.15,46.89,44.63Z"/><path class="cls-10" d="M23.66,42.17l-.16.18-6,6c-.16.16-.26.14-.42,0-.64-.63-.65-.62,0-1.27,1.85-1.85,3.7-3.69,5.54-5.55.23-.24.37-.24.57,0a4.89,4.89,0,0,0,.39.4A.25.25,0,0,1,23.66,42.17Z"/><path class="cls-10" d="M25.51,43.82a1.1,1.1,0,0,1-.22.28q-3,3-6.07,6.07c-.15.15-.24.13-.38,0-.67-.63-.68-.63,0-1.27l5.57-5.57c.22-.22.35-.22.55,0A5.76,5.76,0,0,0,25.51,43.82Z"/></svg>